<?xml version="1.0" encoding="iso-8859-1"?>
<!-- Generator: Adobe Illustrator 19.0.0, SVG Export Plug-In . SVG Version: 6.00 Build 0)  -->
<svg version="1.1" id="Layer_1" xmlns="http://www.w3.org/2000/svg" xmlns:xlink="http://www.w3.org/1999/xlink" x="0px" y="0px"
	 viewBox="0 0 496.216 496.216" style="enable-background:new 0 0 496.216 496.216;" xml:space="preserve">
<g>
	<path style="fill:#333333;" d="M432,128.108v-128H40c-22.056,0-40,17.944-40,40v416c0,22.056,17.944,40,40,40h392v-272h-16v256H40
		c-13.232,0-24-10.768-24-24V71.9c6.704,5.08,14.96,8.208,24,8.208h376v48H432z M40,64.108c-13.232,0-24-10.768-24-24
		s10.768-24,24-24h376v16H120v16h296v16H40z"/>
	<polygon style="fill:#333333;" points="400,152.108 400,104.108 32,104.108 32,264.108 400,264.108 400,232.108 384,232.108 
		384,248.108 48,248.108 48,120.108 384,120.108 384,152.108 	"/>
	<rect x="32" y="304.108" style="fill:#333333;" width="368" height="16"/>
	<rect x="32" y="344.108" style="fill:#333333;" width="368" height="16"/>
	<rect x="32" y="384.108" style="fill:#333333;" width="368" height="16"/>
	<rect x="40" y="32.108" style="fill:#333333;" width="64" height="16"/>
</g>
<path style="fill:#F9BA48;" d="M477.696,255.9L416,225.052l-61.696,30.84l20.536-61.624l-39.072-39.08l51.184-10.232l29.04-48.4
	l29.04,48.4l51.184,10.232l-39.072,39.08L477.696,255.9z"/>
<g>
</g>
<g>
</g>
<g>
</g>
<g>
</g>
<g>
</g>
<g>
</g>
<g>
</g>
<g>
</g>
<g>
</g>
<g>
</g>
<g>
</g>
<g>
</g>
<g>
</g>
<g>
</g>
<g>
</g>
</svg>
