<?xml version="1.0" encoding="iso-8859-1"?>
<!-- Generator: Adobe Illustrator 19.0.0, SVG Export Plug-In . SVG Version: 6.00 Build 0)  -->
<svg version="1.1" id="Layer_1" xmlns="http://www.w3.org/2000/svg" xmlns:xlink="http://www.w3.org/1999/xlink" x="0px" y="0px"
	 viewBox="0 0 496 496" style="enable-background:new 0 0 496 496;" xml:space="preserve">
<g>
	<path style="fill:#333333;" d="M289.944,140.08c-5.504-1.088-11.152-1.968-16.76-2.616l-1.84,15.888
		c5.184,0.6,10.408,1.424,15.504,2.432L289.944,140.08z"/>
	<path style="fill:#333333;" d="M60.248,282.92l-15-5.56c-1.944,5.248-3.712,10.696-5.24,16.168l15.408,4.312
		C56.832,292.784,58.464,287.76,60.248,282.92z"/>
	<path style="fill:#333333;" d="M256.288,136.16c-5.632-0.224-11.336-0.208-16.944,0.016l0.624,15.984
		c5.2-0.208,10.496-0.208,15.712-0.016L256.288,136.16z"/>
	<path style="fill:#333333;" d="M33.464,326.784l15.888,1.84c0.6-5.184,1.424-10.408,2.432-15.504l-15.704-3.096
		C34.992,315.528,34.112,321.168,33.464,326.784z"/>
	<path style="fill:#333333;" d="M189.184,144.104c-5.424,1.528-10.848,3.296-16.144,5.256l5.56,15
		c4.88-1.808,9.896-3.44,14.92-4.848L189.184,144.104z"/>
	<path style="fill:#333333;" d="M205.68,140.144l3.128,15.688c5.096-1.008,10.312-1.832,15.504-2.448l-1.872-15.888
		C216.832,138.152,211.192,139.04,205.68,140.144z"/>
	<path style="fill:#333333;" d="M444.128,261.36c-2.344-5.072-4.944-10.152-7.736-15.096l-13.936,7.84
		c2.568,4.576,4.976,9.28,7.144,13.968L444.128,261.36z"/>
	<path style="fill:#333333;" d="M114.152,182.456l9.92,12.544c4.096-3.24,8.368-6.352,12.688-9.24l-8.888-13.296
		C123.184,175.584,118.568,178.952,114.152,182.456z"/>
	<path style="fill:#333333;" d="M322.592,149.224c-5.296-1.952-10.728-3.712-16.152-5.224l-4.312,15.408
		c5.008,1.408,10.032,3.032,14.928,4.832L322.592,149.224z"/>
	<path style="fill:#333333;" d="M446.6,328.272l15.888-1.872c-0.656-5.608-1.544-11.24-2.648-16.76l-15.688,3.128
		C445.168,317.856,445.992,323.08,446.6,328.272z"/>
	<path style="fill:#333333;" d="M150.16,177.528c4.552-2.56,9.256-4.968,13.976-7.144l-6.72-14.528
		c-5.096,2.36-10.176,4.96-15.104,7.736L150.16,177.528z"/>
	<path style="fill:#333333;" d="M68.312,232.104l13.296,8.888c2.904-4.336,6.016-8.608,9.24-12.712l-12.56-9.904
		C74.8,222.8,71.448,227.416,68.312,232.104z"/>
	<path style="fill:#333333;" d="M112.152,205.224l-10.856-11.752c-4.104,3.792-8.144,7.832-11.992,12l11.752,10.856
		C104.616,212.472,108.352,208.736,112.152,205.224z"/>
	<path style="fill:#333333;" d="M383.64,205.016c3.848,3.552,7.592,7.288,11.128,11.112l11.736-10.872
		c-3.816-4.12-7.848-8.152-12-11.984L383.64,205.016z"/>
	<path style="fill:#333333;" d="M440.496,297.504l15.392-4.36c-1.544-5.456-3.312-10.88-5.256-16.136l-0.36,0.136
		C477.496,262.176,496,233.216,496,200c0-43.048-30.56-79.096-72.176-86.568C420.4,50.304,367.96,0,304,0
		c-43.208,0-83.328,23.752-104.464,61.168C192.2,57.776,184.208,56,176,56c-19.608,0-37.688,10.344-47.776,26.848
		C120.312,80.96,112.192,80,104,80C46.656,80,0,126.656,0,184s46.656,104,104,104h64v-16h-64c-12.712,0-24.768-2.768-35.688-7.632
		c1.648-3.368,3.28-6.752,5.088-9.992l-13.952-7.816c-1.824,3.248-3.448,6.648-5.112,10.016C31.208,240.704,16,214.104,16,184
		c0-48.52,39.48-88,88-88c8.832,0,17.544,1.312,25.928,3.896l6.744,2.072l2.904-6.424C146.048,81.24,160.344,72,176,72
		c8.016,0,15.744,2.36,22.352,6.832l7.72,5.208l3.984-8.424C227.208,39.4,264.088,16,304,16c57.344,0,104,46.656,104.016,103.504
		l-0.04,8.152l7.208,0.712C452.144,132.024,480,162.824,480,200c0,39.704-32.296,72-72,72h-80v16h80
		c9.752,0,19.112-1.664,27.888-4.608C437.576,288,439.144,292.736,440.496,297.504z"/>
	<path style="fill:#333333;" d="M338.288,155.72l-6.704,14.528c4.752,2.184,9.464,4.592,14.008,7.136l7.816-13.952
		C348.504,160.68,343.424,158.088,338.288,155.72z"/>
	<path style="fill:#333333;" d="M367.864,172.288l-8.888,13.296c4.336,2.904,8.608,6.016,12.712,9.24l9.904-12.56
		C377.168,178.776,372.552,175.424,367.864,172.288z"/>
	<path style="fill:#333333;" d="M404.976,228.048c3.256,4.128,6.368,8.392,9.24,12.68l13.296-8.888
		c-3.112-4.648-6.472-9.256-9.992-13.712L404.976,228.048z"/>
	<path style="fill:#333333;" d="M40,336c-17.648,0-32,14.352-32,32s14.352,32,32,32s32-14.352,32-32S57.648,336,40,336z M40,384
		c-8.824,0-16-7.176-16-16s7.176-16,16-16s16,7.176,16,16S48.824,384,40,384z"/>
	<path style="fill:#333333;" d="M456,336c-17.648,0-32,14.352-32,32s14.352,32,32,32s32-14.352,32-32S473.648,336,456,336z M456,384
		c-8.824,0-16-7.176-16-16s7.176-16,16-16s16,7.176,16,16S464.824,384,456,384z"/>
</g>
<path style="fill:#F9BA48;" d="M248,145.576L126.312,328.112L187.832,416H308.16l61.52-87.888L248,145.576z M248,368
	c-17.672,0-32-14.328-32-32s14.328-32,32-32s32,14.328,32,32S265.672,368,248,368z"/>
<g>
	<path style="fill:#333333;" d="M208,336c0,22.056,17.944,40,40,40s40-17.944,40-40c0-19.312-13.768-35.472-32-39.192V168h-16
		v128.808C221.768,300.528,208,316.688,208,336z M248,312c13.232,0,24,10.768,24,24s-10.768,24-24,24s-24-10.768-24-24
		S234.768,312,248,312z"/>
	<path style="fill:#333333;" d="M312,400H184c-13.232,0-24,10.768-24,24s10.768,24,24,24v48h128v-48c13.232,0,24-10.768,24-24
		S325.232,400,312,400z M296,480h-96v-32h96V480z M312,432H184c-4.416,0-8-3.584-8-8s3.584-8,8-8h128c4.416,0,8,3.584,8,8
		S316.416,432,312,432z"/>
</g>
<g>
</g>
<g>
</g>
<g>
</g>
<g>
</g>
<g>
</g>
<g>
</g>
<g>
</g>
<g>
</g>
<g>
</g>
<g>
</g>
<g>
</g>
<g>
</g>
<g>
</g>
<g>
</g>
<g>
</g>
</svg>
