<?xml version="1.0" encoding="iso-8859-1"?>
<!-- Generator: Adobe Illustrator 18.0.0, SVG Export Plug-In . SVG Version: 6.00 Build 0)  -->
<!DOCTYPE svg PUBLIC "-//W3C//DTD SVG 1.1//EN" "http://www.w3.org/Graphics/SVG/1.1/DTD/svg11.dtd">
<svg version="1.1" id="Capa_1" xmlns="http://www.w3.org/2000/svg" xmlns:xlink="http://www.w3.org/1999/xlink" x="0px" y="0px"
	 viewBox="0 0 215.453 215.453" style="enable-background:new 0 0 215.453 215.453;" xml:space="preserve">
<path d="M214.703,205.593L148.229,5.14c-1.052-3.174-4.02-5.171-7.194-5.138c-0.009,0-0.018-0.002-0.026-0.002h-0.025
	c-0.005,0-0.01,0-0.015,0H74.35c-3.232,0-6.102,2.071-7.119,5.139L0.75,205.592c-0.758,2.287-0.372,4.798,1.038,6.751
	c1.41,1.953,3.672,3.11,6.081,3.11h66.668c3.232,0,6.102-2.071,7.119-5.14l26.07-78.62l26.072,78.62
	c1.018,3.068,3.887,5.14,7.119,5.14h66.666c2.409,0,4.671-1.157,6.081-3.11C215.075,210.39,215.461,207.879,214.703,205.593z
	 M69.122,200.453H18.258L79.764,15h50.855L69.122,200.453z M146.332,200.453l-30.703-92.589l25.43-76.689l56.137,169.277H146.332z"
	/>
<g>
</g>
<g>
</g>
<g>
</g>
<g>
</g>
<g>
</g>
<g>
</g>
<g>
</g>
<g>
</g>
<g>
</g>
<g>
</g>
<g>
</g>
<g>
</g>
<g>
</g>
<g>
</g>
<g>
</g>
</svg>
