<?xml version="1.0" encoding="iso-8859-1"?>
<!-- Generator: Adobe Illustrator 18.0.0, SVG Export Plug-In . SVG Version: 6.00 Build 0)  -->
<!DOCTYPE svg PUBLIC "-//W3C//DTD SVG 1.1//EN" "http://www.w3.org/Graphics/SVG/1.1/DTD/svg11.dtd">
<svg version="1.1" id="Capa_1" xmlns="http://www.w3.org/2000/svg" xmlns:xlink="http://www.w3.org/1999/xlink" x="0px" y="0px"
	 viewBox="0 0 240.009 240.009" style="enable-background:new 0 0 240.009 240.009;" xml:space="preserve">
<path d="M218.946,31.934c-13.605-13.606-31.689-21.099-50.919-21.098c-17.889,0.001-34.782,6.494-48.006,18.353
	C106.803,17.338,89.918,10.85,72.031,10.85c-0.002,0-0.005,0-0.008,0c-19.237,0.002-37.322,7.498-50.92,21.105
	C7.495,45.557,0,63.642,0,82.877C0,102.114,7.494,120.201,21.101,133.807l1.717,1.718c-0.003,0.165-0.012,0.33-0.012,0.496
	c0,6.314,2.462,12.246,6.922,16.691c4.007,4.009,9.198,6.397,14.781,6.848c-0.002,0.13-0.009,0.259-0.009,0.39
	c0.003,6.31,2.464,12.239,6.927,16.693c4.46,4.458,10.389,6.913,16.694,6.913c0.001,0,0.001,0,0.001,0c0.134,0,0.266-0.008,0.4-0.01
	c0.433,5.393,2.692,10.662,6.802,14.774c4.012,4.021,9.208,6.414,14.796,6.863c-0.002,0.121-0.009,0.241-0.009,0.362
	c0,6.31,2.46,12.242,6.919,16.697c4.455,4.468,10.389,6.929,16.707,6.929c0.001,0,0,0,0.001,0c6.308,0,12.239-2.454,16.704-6.914
	l15.548-15.566c2.368-2.365,4.165-5.148,5.337-8.181c3.043-1.177,5.82-2.967,8.179-5.327c4.274-4.271,6.711-9.894,6.914-15.907
	c6.012-0.198,11.634-2.635,15.9-6.906c4.064-4.061,6.468-9.34,6.87-15.015c0.047,0,0.093,0.001,0.14,0.001
	c6.045-0.001,12.097-2.295,16.714-6.887c1.848-1.85,3.347-3.954,4.475-6.23l8.427-8.425
	C247.029,105.741,247.03,60.037,218.946,31.934z M40.327,142.099c-1.625-1.621-2.521-3.78-2.521-6.079
	c0-2.306,0.899-4.477,2.527-6.107l15.54-15.532c1.633-1.633,3.802-2.532,6.108-2.532c2.3,0,4.46,0.896,6.092,2.53
	c3.361,3.357,3.363,8.834,0.02,12.194l-0.871,0.87c-0.084,0.082-0.172,0.159-0.255,0.243l-14.448,14.45
	c-1.622,1.618-3.775,2.509-6.067,2.509c0,0-0.001,0-0.001,0C44.144,144.645,41.972,143.744,40.327,142.099z M68.122,168.556
	c-2.3,0-4.463-0.896-6.095-2.526c-1.629-1.626-2.526-3.787-2.527-6.087c-0.001-2.305,0.898-4.473,2.532-6.107l1.063-1.063
	c0.015-0.015,0.031-0.029,0.046-0.044l14.562-14.555c1.616-1.552,3.725-2.41,5.967-2.41c2.308,0,4.482,0.901,6.112,2.525
	c3.36,3.363,3.36,8.84,0.01,12.196l-15.574,15.54C72.589,167.658,70.424,168.556,68.122,168.556L68.122,168.556z M85.938,187.721
	c-3.356-3.357-3.352-8.827,0.005-12.188l15.55-15.533c1.637-1.638,3.808-2.54,6.11-2.54c2.293,0,4.452,0.896,6.086,2.532
	c1.629,1.625,2.526,3.788,2.527,6.09c0.001,2.305-0.896,4.473-2.518,6.097l-15.573,15.555c-1.626,1.635-3.786,2.534-6.082,2.534
	C89.744,190.267,87.578,189.365,85.938,187.721z M119.836,211.651c-1.628,1.626-3.793,2.521-6.098,2.521
	c-2.304,0-4.466-0.895-6.096-2.53c-1.632-1.63-2.53-3.795-2.53-6.096c0-2.302,0.899-4.467,2.533-6.101l15.542-15.543
	c1.631-1.631,3.796-2.529,6.096-2.529c2.304,0,4.473,0.9,6.103,2.526c1.628,1.629,2.525,3.794,2.525,6.097
	c0,2.299-0.895,4.459-2.526,6.088L119.836,211.651z M183.222,137.842l-0.884-0.883c-0.002-0.002-0.003-0.004-0.004-0.005
	l-32.39-32.381c-2.93-2.93-7.677-2.929-10.607,0.001c-2.928,2.93-2.928,7.678,0.001,10.607l32.378,32.37
	c0.003,0.003,0.006,0.007,0.009,0.01c1.629,1.63,2.525,3.796,2.523,6.1c-0.002,2.304-0.901,4.47-2.537,6.104
	c-1.626,1.629-3.79,2.525-6.092,2.525c-2.304,0-4.47-0.898-6.101-2.529l-32.377-32.377c-2.929-2.928-7.678-2.928-10.606,0
	c-2.929,2.93-2.929,7.678,0,10.607l32.377,32.377c1.627,1.627,2.523,3.794,2.521,6.1c-0.001,1.227-0.263,2.411-0.747,3.5
	c-1.15-2.449-2.728-4.707-4.699-6.679c-4.01-4.004-9.201-6.386-14.782-6.833c0.002-0.127,0.009-0.254,0.009-0.381
	c-0.002-6.313-2.464-12.245-6.924-16.695c-4.46-4.464-10.387-6.922-16.688-6.922c-0.135,0-0.269,0.008-0.404,0.01
	c-0.437-5.395-2.7-10.671-6.817-14.793c-4.021-4.006-9.224-6.389-14.813-6.83c0.096-6.178-2.19-12.381-6.886-17.072
	c-4.458-4.466-10.389-6.926-16.701-6.926c-6.312,0-12.248,2.459-16.713,6.924l-15.544,15.536c-0.281,0.281-0.553,0.568-0.818,0.86
	C19.918,109.808,15,96.723,15,82.878c0-15.229,5.933-29.546,16.71-40.316C42.478,31.786,56.795,25.851,72.025,25.85
	c0.003,0,0.003,0,0.006,0c13.834,0,26.909,4.912,37.27,13.895l-28.8,28.805c-9.208,9.216-9.211,24.205-0.002,33.416
	c9.213,9.202,24.199,9.201,33.411-0.005l28.917-28.931l52.619,52.627c1.622,1.616,2.518,3.773,2.521,6.076
	c0.001,1.117-0.212,2.201-0.61,3.208c-0.036,0.083-0.072,0.165-0.105,0.249c-0.425,0.983-1.029,1.887-1.803,2.661
	C192.07,141.211,186.586,141.208,183.222,137.842z M210.405,121.03c-1.116-2.188-2.576-4.211-4.363-5.99l-57.909-57.917
	c-0.001-0.001-0.003-0.003-0.004-0.005c-2.741-2.739-7.071-2.914-10.015-0.529c-0.007,0.006-0.014,0.01-0.02,0.016
	c-0.128,0.104-0.248,0.221-0.37,0.334c-0.065,0.061-0.135,0.117-0.199,0.181c0,0-0.001,0.001-0.001,0.001l-0.001,0.001
	l-34.218,34.233c-3.364,3.359-8.839,3.359-12.201,0.002c-3.36-3.361-3.356-8.836,0.009-12.205l34.14-34.145
	c0.029-0.028,0.061-0.053,0.089-0.081c0.027-0.027,0.05-0.058,0.077-0.085l2.289-2.29c10.777-10.777,25.097-16.713,40.322-16.714
	c15.223-0.001,29.539,5.932,40.309,16.702C229.863,64.079,230.551,98.676,210.405,121.03z"/>
<g>
</g>
<g>
</g>
<g>
</g>
<g>
</g>
<g>
</g>
<g>
</g>
<g>
</g>
<g>
</g>
<g>
</g>
<g>
</g>
<g>
</g>
<g>
</g>
<g>
</g>
<g>
</g>
<g>
</g>
</svg>
