<?xml version="1.0" encoding="iso-8859-1"?>
<!-- Generator: Adobe Illustrator 18.0.0, SVG Export Plug-In . SVG Version: 6.00 Build 0)  -->
<!DOCTYPE svg PUBLIC "-//W3C//DTD SVG 1.1//EN" "http://www.w3.org/Graphics/SVG/1.1/DTD/svg11.dtd">
<svg version="1.1" id="Capa_1" xmlns="http://www.w3.org/2000/svg" xmlns:xlink="http://www.w3.org/1999/xlink" x="0px" y="0px"
	 viewBox="0 0 247.068 247.068" style="enable-background:new 0 0 247.068 247.068;" xml:space="preserve">
<g>
	<path d="M207.967,173.525h-24.909l-12.535-90.768c-0.513-3.71-3.684-6.474-7.43-6.474H83.959c-3.746,0-6.918,2.764-7.43,6.475
		l-12.526,90.768H39.084c-4.143,0-7.5,3.358-7.5,7.5v48.616c0,4.142,3.357,7.5,7.5,7.5h168.883c4.143,0,7.5-3.358,7.5-7.5v-48.616
		C215.467,176.883,212.109,173.525,207.967,173.525z M90.495,91.283h66.063l11.357,82.242h-88.77L90.495,91.283z M200.467,222.141
		H46.584v-33.616H176.49c0.007,0,0.015,0.001,0.021,0.001c0.005,0,0.01-0.001,0.015-0.001h23.94V222.141z"/>
	<path d="M123.525,61.722c4.143,0,7.5-3.358,7.5-7.5V17.427c0-4.142-3.357-7.5-7.5-7.5s-7.5,3.358-7.5,7.5v36.795
		C116.025,58.364,119.383,61.722,123.525,61.722z"/>
	<path d="M239.568,113.365h-36.795c-4.143,0-7.5,3.358-7.5,7.5s3.357,7.5,7.5,7.5h36.795c4.143,0,7.5-3.358,7.5-7.5
		S243.711,113.365,239.568,113.365z"/>
	<path d="M185.141,73.649c1.92,0,3.839-0.732,5.304-2.197l26.018-26.022c2.929-2.929,2.929-7.678-0.001-10.606
		c-2.931-2.93-7.678-2.928-10.606,0.001l-26.018,26.022c-2.929,2.929-2.929,7.678,0.001,10.606
		C181.303,72.917,183.222,73.649,185.141,73.649z"/>
	<path d="M51.787,120.865c0-4.142-3.357-7.5-7.5-7.5H7.5c-4.143,0-7.5,3.358-7.5,7.5s3.357,7.5,7.5,7.5h36.787
		C48.43,128.365,51.787,125.007,51.787,120.865z"/>
	<path d="M56.611,71.451c1.465,1.465,3.385,2.198,5.305,2.198c1.919,0,3.838-0.732,5.303-2.196c2.929-2.928,2.93-7.677,0.001-10.606
		L41.207,34.824c-2.929-2.93-7.677-2.93-10.608-0.002c-2.929,2.928-2.93,7.677-0.001,10.606L56.611,71.451z"/>
</g>
<g>
</g>
<g>
</g>
<g>
</g>
<g>
</g>
<g>
</g>
<g>
</g>
<g>
</g>
<g>
</g>
<g>
</g>
<g>
</g>
<g>
</g>
<g>
</g>
<g>
</g>
<g>
</g>
<g>
</g>
</svg>
