<?xml version="1.0" encoding="iso-8859-1"?>
<!-- Generator: Adobe Illustrator 18.0.0, SVG Export Plug-In . SVG Version: 6.00 Build 0)  -->
<!DOCTYPE svg PUBLIC "-//W3C//DTD SVG 1.1//EN" "http://www.w3.org/Graphics/SVG/1.1/DTD/svg11.dtd">
<svg version="1.1" id="Capa_1" xmlns="http://www.w3.org/2000/svg" xmlns:xlink="http://www.w3.org/1999/xlink" x="0px" y="0px"
	 viewBox="0 0 239.01 239.01" style="enable-background:new 0 0 239.01 239.01;" xml:space="preserve">
<g>
	<path d="M44.111,116.661H7.5c-4.142,0-7.5,3.357-7.5,7.5v87.439c0,4.143,3.358,7.5,7.5,7.5h36.611c4.142,0,7.5-3.357,7.5-7.5
		v-87.439C51.611,120.019,48.253,116.661,44.111,116.661z M36.611,204.101H15v-72.439h21.611V204.101z"/>
	<path d="M169.029,73.884h-36.61c-4.142,0-7.5,3.357-7.5,7.5v130.217c0,4.143,3.358,7.5,7.5,7.5h36.61c4.142,0,7.5-3.357,7.5-7.5
		V81.384C176.529,77.241,173.171,73.884,169.029,73.884z M161.529,204.101h-21.61V88.884h21.61V204.101z"/>
	<path d="M106.564,56.739H69.963c-4.142,0-7.5,3.357-7.5,7.5v147.361c0,4.143,3.358,7.5,7.5,7.5h36.602c4.142,0,7.5-3.357,7.5-7.5
		V64.239C114.064,60.097,110.707,56.739,106.564,56.739z M99.064,204.101H77.463V71.739h21.602V204.101z"/>
	<path d="M231.51,19.909h-36.615c-4.142,0-7.5,3.357-7.5,7.5v184.191c0,4.143,3.358,7.5,7.5,7.5h36.615c4.142,0,7.5-3.357,7.5-7.5
		V27.409C239.01,23.267,235.652,19.909,231.51,19.909z M224.01,204.101h-21.615V34.909h21.615V204.101z"/>
</g>
<g>
</g>
<g>
</g>
<g>
</g>
<g>
</g>
<g>
</g>
<g>
</g>
<g>
</g>
<g>
</g>
<g>
</g>
<g>
</g>
<g>
</g>
<g>
</g>
<g>
</g>
<g>
</g>
<g>
</g>
</svg>
