<?xml version="1.0" encoding="iso-8859-1"?>
<!-- Generator: Adobe Illustrator 18.0.0, SVG Export Plug-In . SVG Version: 6.00 Build 0)  -->
<!DOCTYPE svg PUBLIC "-//W3C//DTD SVG 1.1//EN" "http://www.w3.org/Graphics/SVG/1.1/DTD/svg11.dtd">
<svg version="1.1" id="Capa_1" xmlns="http://www.w3.org/2000/svg" xmlns:xlink="http://www.w3.org/1999/xlink" x="0px" y="0px"
	 viewBox="0 0 235.588 235.588" style="enable-background:new 0 0 235.588 235.588;" xml:space="preserve">
<path d="M209.448,0H97.649H67.226H52.017C33.612,0.005,18.64,14.98,18.64,33.383v168.823c0,18.403,14.973,33.378,33.379,33.382
	h157.43c4.143,0,7.5-3.358,7.5-7.5v-51.766V59.269V7.5C216.948,3.358,213.591,0,209.448,0z M90.149,15v38.088l-2.409-2.41
	c-1.406-1.407-3.314-2.197-5.304-2.197c-1.99,0-3.898,0.791-5.305,2.198l-2.406,2.407V15H90.149z M52.019,15h7.707v56.194
	c0,4.142,3.363,7.5,7.506,7.5c1.99,0,3.898-0.79,5.305-2.198l9.901-9.906l9.904,9.907c1.406,1.407,3.314,2.197,5.304,2.197h0.004
	c4.143,0,7.5-3.358,7.5-7.5V15h96.799v44.269v109.554H52.017c-6.786,0.002-13.103,2.044-18.377,5.538V33.383
	C33.64,23.25,41.886,15.003,52.019,15z M52.021,220.588c-10.136-0.002-18.381-8.248-18.381-18.382
	c0-10.134,8.246-18.381,18.379-18.384h149.93v10.884H52.019c-4.143,0-7.5,3.358-7.5,7.5c0,4.142,3.357,7.5,7.5,7.5h149.93v10.882
	H52.021z"/>
<g>
</g>
<g>
</g>
<g>
</g>
<g>
</g>
<g>
</g>
<g>
</g>
<g>
</g>
<g>
</g>
<g>
</g>
<g>
</g>
<g>
</g>
<g>
</g>
<g>
</g>
<g>
</g>
<g>
</g>
</svg>
