<?xml version="1.0" encoding="iso-8859-1"?>
<!-- Generator: Adobe Illustrator 18.0.0, SVG Export Plug-In . SVG Version: 6.00 Build 0)  -->
<!DOCTYPE svg PUBLIC "-//W3C//DTD SVG 1.1//EN" "http://www.w3.org/Graphics/SVG/1.1/DTD/svg11.dtd">
<svg version="1.1" id="Capa_1" xmlns="http://www.w3.org/2000/svg" xmlns:xlink="http://www.w3.org/1999/xlink" x="0px" y="0px"
	 viewBox="0 0 235.588 235.588" style="enable-background:new 0 0 235.588 235.588;" xml:space="preserve">
<g>
	<path d="M209.447,0H52.018C33.613,0,18.641,14.974,18.641,33.38v168.822c0,18.4,14.972,33.377,33.377,33.386h157.43
		c4.143,0,7.5-3.358,7.5-7.5v-51.764V59.266V7.5C216.947,3.358,213.59,0,209.447,0z M52.018,15h149.93v44.266v109.559H52.018
		c-6.786,0-13.103,2.041-18.377,5.534V33.38C33.641,23.245,41.885,15,52.018,15z M52.021,220.588
		c-10.136-0.005-18.381-8.252-18.381-18.386c0-10.134,8.244-18.378,18.377-18.378h149.93v10.878H52.018c-4.143,0-7.5,3.358-7.5,7.5
		c0,4.142,3.357,7.5,7.5,7.5h149.93v10.886H52.021z"/>
	<path d="M61.957,93.202h111.674c4.143,0,7.5-3.358,7.5-7.5V48.803c0-4.142-3.357-7.5-7.5-7.5H61.957c-4.143,0-7.5,3.358-7.5,7.5
		v36.899C54.457,89.844,57.814,93.202,61.957,93.202z M69.457,56.303h96.674v21.899H69.457V56.303z"/>
</g>
<g>
</g>
<g>
</g>
<g>
</g>
<g>
</g>
<g>
</g>
<g>
</g>
<g>
</g>
<g>
</g>
<g>
</g>
<g>
</g>
<g>
</g>
<g>
</g>
<g>
</g>
<g>
</g>
<g>
</g>
</svg>
