<?xml version="1.0" encoding="iso-8859-1"?>
<!-- Generator: Adobe Illustrator 18.0.0, SVG Export Plug-In . SVG Version: 6.00 Build 0)  -->
<!DOCTYPE svg PUBLIC "-//W3C//DTD SVG 1.1//EN" "http://www.w3.org/Graphics/SVG/1.1/DTD/svg11.dtd">
<svg version="1.1" id="Capa_1" xmlns="http://www.w3.org/2000/svg" xmlns:xlink="http://www.w3.org/1999/xlink" x="0px" y="0px"
	 viewBox="0 0 232.447 232.447" style="enable-background:new 0 0 232.447 232.447;" xml:space="preserve">
<g>
	<path d="M116.211,194.8c-4.143,0-7.5,3.357-7.5,7.5v22.643c0,4.143,3.357,7.5,7.5,7.5s7.5-3.357,7.5-7.5V202.3
		C123.711,198.157,120.354,194.8,116.211,194.8z"/>
	<path d="M116.211,37.645c4.143,0,7.5-3.357,7.5-7.5V7.505c0-4.143-3.357-7.5-7.5-7.5s-7.5,3.357-7.5,7.5v22.641
		C108.711,34.288,112.068,37.645,116.211,37.645z"/>
	<path d="M50.054,171.78l-16.016,16.008c-2.93,2.929-2.931,7.677-0.003,10.606c1.465,1.466,3.385,2.198,5.305,2.198
		c1.919,0,3.838-0.731,5.302-2.195l16.016-16.008c2.93-2.929,2.931-7.677,0.003-10.606C57.731,168.852,52.982,168.851,50.054,171.78
		z"/>
	<path d="M177.083,62.852c1.919,0,3.838-0.731,5.302-2.195L198.4,44.649c2.93-2.929,2.931-7.677,0.003-10.606
		c-2.93-2.932-7.679-2.931-10.607-0.003l-16.016,16.008c-2.93,2.929-2.931,7.677-0.003,10.607
		C173.243,62.12,175.163,62.852,177.083,62.852z"/>
	<path d="M37.645,116.224c0-4.143-3.357-7.5-7.5-7.5H7.5c-4.143,0-7.5,3.357-7.5,7.5s3.357,7.5,7.5,7.5h22.645
		C34.287,123.724,37.645,120.366,37.645,116.224z"/>
	<path d="M224.947,108.724h-22.652c-4.143,0-7.5,3.357-7.5,7.5s3.357,7.5,7.5,7.5h22.652c4.143,0,7.5-3.357,7.5-7.5
		S229.09,108.724,224.947,108.724z"/>
	<path d="M50.052,60.655c1.465,1.465,3.384,2.197,5.304,2.197c1.919,0,3.839-0.732,5.303-2.196c2.93-2.929,2.93-7.678,0.001-10.606
		L44.652,34.042c-2.93-2.93-7.679-2.929-10.606-0.001c-2.93,2.929-2.93,7.678-0.001,10.606L50.052,60.655z"/>
	<path d="M182.395,171.782c-2.93-2.929-7.679-2.93-10.606-0.001c-2.93,2.929-2.93,7.678-0.001,10.607l16.007,16.008
		c1.465,1.465,3.384,2.197,5.304,2.197c1.919,0,3.839-0.732,5.303-2.196c2.93-2.929,2.93-7.678,0.001-10.607L182.395,171.782z"/>
	<path d="M116.22,48.7c-37.232,0-67.523,30.291-67.523,67.523s30.291,67.523,67.523,67.523s67.522-30.291,67.522-67.523
		S153.452,48.7,116.22,48.7z M116.22,168.747c-28.962,0-52.523-23.561-52.523-52.523S87.258,63.7,116.22,63.7
		c28.961,0,52.522,23.562,52.522,52.523S145.181,168.747,116.22,168.747z"/>
</g>
<g>
</g>
<g>
</g>
<g>
</g>
<g>
</g>
<g>
</g>
<g>
</g>
<g>
</g>
<g>
</g>
<g>
</g>
<g>
</g>
<g>
</g>
<g>
</g>
<g>
</g>
<g>
</g>
<g>
</g>
</svg>
