<?xml version="1.0" encoding="iso-8859-1"?>
<!-- Generator: Adobe Illustrator 18.0.0, SVG Export Plug-In . SVG Version: 6.00 Build 0)  -->
<!DOCTYPE svg PUBLIC "-//W3C//DTD SVG 1.1//EN" "http://www.w3.org/Graphics/SVG/1.1/DTD/svg11.dtd">
<svg version="1.1" id="Capa_1" xmlns="http://www.w3.org/2000/svg" xmlns:xlink="http://www.w3.org/1999/xlink" x="0px" y="0px"
	 viewBox="0 0 334.623 334.623" style="enable-background:new 0 0 334.623 334.623;" xml:space="preserve">
<g>
	<path d="M334.541,215.61l-10.443-69.895c-0.549-3.673-3.704-6.392-7.419-6.392H251.47l-41.116-51.189
		c-1.424-1.772-3.574-2.803-5.848-2.803H84.129c-3.099,0-5.878,1.905-6.995,4.795l-19.026,49.197H7.5c-4.143,0-7.5,3.358-7.5,7.5
		v69.895c0,4.142,3.357,7.5,7.5,7.5h25.314c6.584,14.756,21.386,25.072,38.561,25.072c17.178,0,31.981-10.316,38.567-25.072h108.603
		c6.584,14.756,21.386,25.072,38.561,25.072c17.175,0,31.976-10.316,38.561-25.072h31.457c2.183,0,4.257-0.951,5.682-2.604
		C334.229,219.961,334.863,217.769,334.541,215.61z M232.23,139.324h-81.045v-38.992h49.725L232.23,139.324z M89.27,100.332h46.916
		v38.992H74.19L89.27,100.332z M71.375,234.291c-12.196,0-22.545-8.066-25.99-19.145c-0.064-0.301-0.151-0.593-0.251-0.879
		c-0.628-2.291-0.97-4.699-0.97-7.187c0-15.003,12.207-27.209,27.211-27.209c15.009,0,27.219,12.206,27.219,27.209
		c0,2.497-0.345,4.915-0.979,7.214c-0.086,0.251-0.16,0.507-0.219,0.77C93.976,226.184,83.605,234.291,71.375,234.291z
		 M71.375,164.871c-23.275,0-42.211,18.935-42.211,42.209c0,0.717,0.019,1.43,0.054,2.139H15v-54.895h48.248h72.938v54.895H113.54
		c0.035-0.708,0.054-1.421,0.054-2.139C113.594,183.806,94.654,164.871,71.375,164.871z M257.105,234.291
		c-12.3,0-22.716-8.206-26.071-19.43c-0.043-0.168-0.088-0.335-0.143-0.499c-0.645-2.319-0.997-4.76-0.997-7.282
		c0-15.003,12.207-27.209,27.211-27.209c15.004,0,27.211,12.206,27.211,27.209c0,2.558-0.362,5.03-1.024,7.378
		c-0.013,0.039-0.022,0.079-0.034,0.119C279.993,225.946,269.509,234.291,257.105,234.291z M299.263,209.219
		c0.035-0.708,0.054-1.421,0.054-2.139c0-23.274-18.936-42.209-42.211-42.209c-23.275,0-42.211,18.935-42.211,42.209
		c0,0.717,0.019,1.43,0.054,2.139h-63.763v-54.895h96.689h0.02h62.322l8.202,54.895H299.263z"/>
	<path d="M190.684,168.238h-18.555c-4.143,0-7.5,3.358-7.5,7.5c0,4.142,3.357,7.5,7.5,7.5h18.555c4.143,0,7.5-3.358,7.5-7.5
		C198.184,171.596,194.826,168.238,190.684,168.238z"/>
</g>
<g>
</g>
<g>
</g>
<g>
</g>
<g>
</g>
<g>
</g>
<g>
</g>
<g>
</g>
<g>
</g>
<g>
</g>
<g>
</g>
<g>
</g>
<g>
</g>
<g>
</g>
<g>
</g>
<g>
</g>
</svg>
