<?xml version="1.0" encoding="iso-8859-1"?>
<!-- Generator: Adobe Illustrator 18.0.0, SVG Export Plug-In . SVG Version: 6.00 Build 0)  -->
<!DOCTYPE svg PUBLIC "-//W3C//DTD SVG 1.1//EN" "http://www.w3.org/Graphics/SVG/1.1/DTD/svg11.dtd">
<svg version="1.1" id="Capa_1" xmlns="http://www.w3.org/2000/svg" xmlns:xlink="http://www.w3.org/1999/xlink" x="0px" y="0px"
	 viewBox="0 0 245.266 245.266" style="enable-background:new 0 0 245.266 245.266;" xml:space="preserve">
<g>
	<path d="M7.5,89.89c-4.142,0-7.5,3.358-7.5,7.5v50.494c0,4.142,3.358,7.5,7.5,7.5s7.5-3.358,7.5-7.5V97.39
		C15,93.247,11.642,89.89,7.5,89.89z"/>
	<path d="M118.805,165.618H43.33V79.647h51.475c4.142,0,7.5-3.358,7.5-7.5c0-4.142-3.358-7.5-7.5-7.5H35.83
		c-4.142,0-7.5,3.358-7.5,7.5v100.971c0,4.142,3.358,7.5,7.5,7.5h82.975c4.142,0,7.5-3.358,7.5-7.5
		C126.305,168.976,122.947,165.618,118.805,165.618z"/>
	<path d="M237.766,64.647h-82.96c-4.142,0-7.5,3.358-7.5,7.5c0,4.142,3.358,7.5,7.5,7.5h75.46v85.971h-51.46
		c-4.142,0-7.5,3.358-7.5,7.5c0,4.142,3.358,7.5,7.5,7.5h58.96c4.142,0,7.5-3.358,7.5-7.5V72.147
		C245.266,68.005,241.908,64.647,237.766,64.647z"/>
	<path d="M173.747,125.506c1.161-2.803,0.519-6.029-1.626-8.174l-42.449-42.436c-2.93-2.928-7.678-2.928-10.607,0.001
		c-2.928,2.93-2.928,7.678,0.001,10.607l29.642,29.632h-41.916c-3.034,0-5.769,1.827-6.929,4.63
		c-1.161,2.803-0.519,6.029,1.626,8.174l42.448,42.444c1.465,1.464,3.384,2.196,5.303,2.196c1.919,0,3.839-0.732,5.304-2.197
		c2.929-2.929,2.928-7.678-0.001-10.607L124.9,130.137h41.918C169.852,130.137,172.587,128.309,173.747,125.506z"/>
</g>
<g>
</g>
<g>
</g>
<g>
</g>
<g>
</g>
<g>
</g>
<g>
</g>
<g>
</g>
<g>
</g>
<g>
</g>
<g>
</g>
<g>
</g>
<g>
</g>
<g>
</g>
<g>
</g>
<g>
</g>
</svg>
