<?xml version="1.0" encoding="iso-8859-1"?>
<!-- Generator: Adobe Illustrator 18.0.0, SVG Export Plug-In . SVG Version: 6.00 Build 0)  -->
<!DOCTYPE svg PUBLIC "-//W3C//DTD SVG 1.1//EN" "http://www.w3.org/Graphics/SVG/1.1/DTD/svg11.dtd">
<svg version="1.1" id="Capa_1" xmlns="http://www.w3.org/2000/svg" xmlns:xlink="http://www.w3.org/1999/xlink" x="0px" y="0px"
	 viewBox="0 0 226.661 226.661" style="enable-background:new 0 0 226.661 226.661;" xml:space="preserve">
<path d="M211.763,12.337c1.883-2.23,2.3-5.35,1.07-7.997C211.604,1.693,208.951,0,206.032,0H20.629c-2.919,0-5.572,1.693-6.802,4.34
	c-1.229,2.647-0.813,5.767,1.07,7.997l90.938,107.745v91.579H74.44c-4.143,0-7.5,3.358-7.5,7.5c0,4.142,3.357,7.5,7.5,7.5h77.789
	c4.143,0,7.5-3.358,7.5-7.5c0-4.142-3.357-7.5-7.5-7.5h-31.394v-91.579L211.763,12.337z M189.888,15l-76.553,90.712L36.774,15
	H189.888z"/>
<g>
</g>
<g>
</g>
<g>
</g>
<g>
</g>
<g>
</g>
<g>
</g>
<g>
</g>
<g>
</g>
<g>
</g>
<g>
</g>
<g>
</g>
<g>
</g>
<g>
</g>
<g>
</g>
<g>
</g>
</svg>
