<?xml version="1.0" encoding="iso-8859-1"?>
<!-- Generator: Adobe Illustrator 18.0.0, SVG Export Plug-In . SVG Version: 6.00 Build 0)  -->
<!DOCTYPE svg PUBLIC "-//W3C//DTD SVG 1.1//EN" "http://www.w3.org/Graphics/SVG/1.1/DTD/svg11.dtd">
<svg version="1.1" id="Capa_1" xmlns="http://www.w3.org/2000/svg" xmlns:xlink="http://www.w3.org/1999/xlink" x="0px" y="0px"
	 viewBox="0 0 239.402 239.402" style="enable-background:new 0 0 239.402 239.402;" xml:space="preserve">
<g>
	<path d="M218.855,9.257H20.555C9.221,9.257,0,18.474,0,29.803v18.754V161.65v18.753c0,11.332,9.221,20.552,20.555,20.552h65.072
		v14.19H60.369c-4.143,0-7.5,3.358-7.5,7.5c0,4.143,3.357,7.5,7.5,7.5h32.758h53.146h32.76c4.143,0,7.5-3.357,7.5-7.5
		c0-4.142-3.357-7.5-7.5-7.5h-25.26v-14.19h65.082c11.33,0,20.547-9.22,20.547-20.552V161.65V48.557V29.803
		C239.402,18.474,230.186,9.257,218.855,9.257z M20.555,24.257h198.301c3.059,0,5.547,2.488,5.547,5.546v11.254H15V29.803
		C15,26.745,17.492,24.257,20.555,24.257z M224.402,154.15H15V56.057h209.402V154.15z M138.773,215.145h-38.146v-14.19h38.146
		V215.145z M218.855,185.955h-72.582H93.127H20.555c-3.063,0-5.555-2.49-5.555-5.552V169.15h209.402v11.253
		C224.402,183.465,221.914,185.955,218.855,185.955z"/>
	<path d="M98.492,133.769c1.919,0,3.839-0.732,5.303-2.196l42.338-42.332c2.93-2.929,2.93-7.678,0.001-10.607
		c-2.929-2.93-7.678-2.929-10.606-0.001l-42.338,42.332c-2.93,2.929-2.93,7.678-0.001,10.606
		C94.653,133.036,96.572,133.769,98.492,133.769z"/>
	<path d="M72.261,131.571c1.465,1.465,3.384,2.197,5.304,2.197c1.919,0,3.839-0.732,5.303-2.196c2.93-2.929,2.93-7.678,0.001-10.606
		l-15.535-15.537l15.625-15.624c2.929-2.93,2.929-7.678,0-10.607c-2.93-2.928-7.678-2.928-10.607,0l-20.928,20.928
		c-2.929,2.93-2.929,7.678,0,10.606L72.261,131.571z"/>
	<path d="M156.454,131.571c1.465,1.465,3.384,2.197,5.304,2.197c1.919,0,3.839-0.732,5.303-2.196l20.928-20.927
		c1.407-1.407,2.197-3.314,2.197-5.304c0-1.989-0.79-3.896-2.197-5.304l-20.842-20.841c-2.929-2.929-7.678-2.929-10.606,0.001
		c-2.929,2.929-2.929,7.678,0.001,10.606l15.538,15.537l-15.624,15.623C153.525,123.894,153.525,128.643,156.454,131.571z"/>
</g>
<g>
</g>
<g>
</g>
<g>
</g>
<g>
</g>
<g>
</g>
<g>
</g>
<g>
</g>
<g>
</g>
<g>
</g>
<g>
</g>
<g>
</g>
<g>
</g>
<g>
</g>
<g>
</g>
<g>
</g>
</svg>
