<?xml version="1.0" encoding="iso-8859-1"?>
<!-- Generator: Adobe Illustrator 18.0.0, SVG Export Plug-In . SVG Version: 6.00 Build 0)  -->
<!DOCTYPE svg PUBLIC "-//W3C//DTD SVG 1.1//EN" "http://www.w3.org/Graphics/SVG/1.1/DTD/svg11.dtd">
<svg version="1.1" id="Capa_1" xmlns="http://www.w3.org/2000/svg" xmlns:xlink="http://www.w3.org/1999/xlink" x="0px" y="0px"
	 viewBox="0 0 218.063 218.063" style="enable-background:new 0 0 218.063 218.063;" xml:space="preserve">
<path d="M215.866,170.815l-23.507-23.507c-0.017-0.017-0.03-0.036-0.047-0.053s-0.036-0.03-0.052-0.048l-36.585-36.584
	l60.161-60.161c2.929-2.929,2.929-7.678,0.001-10.606L178.209,2.219c-1.407-1.406-3.314-2.197-5.304-2.197h0
	c-0.249,0-0.496,0.012-0.741,0.037c-1.717,0.17-3.331,0.929-4.562,2.159l-37.631,37.629c-0.005,0.005-0.008,0.01-0.013,0.015
	L107.43,62.389L94.357,49.315c-0.002-0.002-0.003-0.003-0.005-0.005c-0.002-0.002-0.003-0.003-0.005-0.005L70.86,25.817
	c-0.022-0.023-0.04-0.047-0.063-0.069c-0.022-0.022-0.046-0.04-0.068-0.062L47.243,2.198c-1.406-1.407-3.314-2.197-5.303-2.197
	s-3.897,0.79-5.304,2.197L2.197,36.644c-2.929,2.929-2.928,7.678,0,10.606l60.186,60.185L2.197,167.62
	C0.79,169.028,0,170.935,0,172.924v37.638c0,1.989,0.79,3.897,2.197,5.304c1.407,1.406,3.315,2.196,5.304,2.196l37.635-0.007
	c1.989,0,3.895-0.79,5.302-2.196l60.181-60.182l60.189,60.188c1.464,1.464,3.384,2.196,5.303,2.196c1.919,0,3.838-0.732,5.303-2.196
	l34.451-34.443c1.407-1.406,2.197-3.314,2.197-5.304C218.063,174.129,217.273,172.222,215.866,170.815z M172.898,72.18
	L145.88,45.153l27.023-27.023l27.021,27.028L172.898,72.18z M18.107,41.946L41.94,18.109l12.945,12.946l-11.92,11.923
	c-2.928,2.93-2.928,7.679,0.001,10.606c1.465,1.465,3.383,2.196,5.303,2.196c1.919,0,3.84-0.732,5.304-2.197l11.918-11.921
	l12.95,12.95L61.978,71.075c-2.929,2.929-2.929,7.678,0,10.607c1.464,1.465,3.384,2.197,5.303,2.197
	c1.919,0,3.839-0.732,5.303-2.196L89.049,65.22l7.775,7.774L72.991,96.828L18.107,41.946z M42.028,203.056L15,203.061v-27.03
	L135.273,55.759l27.021,27.03L42.028,203.056z M176.112,199.955l-54.885-54.885l23.84-23.841l7.776,7.776l-16.467,16.467
	c-2.929,2.93-2.929,7.678,0,10.607c1.464,1.464,3.384,2.196,5.303,2.196c1.919,0,3.839-0.732,5.303-2.196l16.467-16.467
	l12.949,12.948l-11.919,11.92c-2.929,2.929-2.929,7.678,0,10.606c1.464,1.464,3.384,2.196,5.303,2.196
	c1.919,0,3.839-0.732,5.303-2.197l11.919-11.919l12.95,12.949L176.112,199.955z"/>
<g>
</g>
<g>
</g>
<g>
</g>
<g>
</g>
<g>
</g>
<g>
</g>
<g>
</g>
<g>
</g>
<g>
</g>
<g>
</g>
<g>
</g>
<g>
</g>
<g>
</g>
<g>
</g>
<g>
</g>
</svg>
