<?xml version="1.0" encoding="iso-8859-1"?>
<!-- Generator: Adobe Illustrator 18.0.0, SVG Export Plug-In . SVG Version: 6.00 Build 0)  -->
<!DOCTYPE svg PUBLIC "-//W3C//DTD SVG 1.1//EN" "http://www.w3.org/Graphics/SVG/1.1/DTD/svg11.dtd">
<svg version="1.1" id="Capa_1" xmlns="http://www.w3.org/2000/svg" xmlns:xlink="http://www.w3.org/1999/xlink" x="0px" y="0px"
	 viewBox="0 0 206.852 206.852" style="enable-background:new 0 0 206.852 206.852;" xml:space="preserve">
<g>
	<path d="M121.572,0C97.427,0,77.783,19.645,77.783,43.791v71.629c0,4.143,3.358,7.5,7.5,7.5h28.789v76.432
		c0,4.143,3.358,7.5,7.5,7.5c4.142,0,7.5-3.357,7.5-7.5V115.42V7.5C129.072,3.357,125.714,0,121.572,0z M92.783,43.791
		c0-13.281,9.04-24.491,21.289-27.8v91.929H92.783V43.791z"/>
	<path d="M195.695,0c-4.142,0-7.5,3.357-7.5,7.5v44.072c0,5.445-2.948,10.215-7.332,12.796V7.5c0-4.143-3.358-7.5-7.5-7.5
		s-7.5,3.357-7.5,7.5v56.869c-4.385-2.581-7.334-7.351-7.334-12.797V7.5c0-4.143-3.358-7.5-7.5-7.5s-7.5,3.357-7.5,7.5v44.072
		c0,13.861,9.502,25.545,22.334,28.88v118.899c0,4.143,3.358,7.5,7.5,7.5s7.5-3.357,7.5-7.5V80.452
		c12.831-3.335,22.332-15.019,22.332-28.88V7.5C203.195,3.357,199.837,0,195.695,0z"/>
	<path d="M33.484,0C17.037,0,3.656,13.382,3.656,29.83v21.742c0,13.861,9.5,25.544,22.328,28.879v118.9c0,4.143,3.358,7.5,7.5,7.5
		s7.5-3.357,7.5-7.5V80.452c12.833-3.335,22.336-15.019,22.336-28.88V29.83C63.32,13.382,49.936,0,33.484,0z M48.32,51.572
		c0,8.181-6.655,14.836-14.836,14.836c-8.176,0-14.828-6.655-14.828-14.836V29.83c0-8.178,6.652-14.83,14.828-14.83
		c8.181,0,14.836,6.652,14.836,14.83V51.572z"/>
</g>
<g>
</g>
<g>
</g>
<g>
</g>
<g>
</g>
<g>
</g>
<g>
</g>
<g>
</g>
<g>
</g>
<g>
</g>
<g>
</g>
<g>
</g>
<g>
</g>
<g>
</g>
<g>
</g>
<g>
</g>
</svg>
