<?xml version="1.0" encoding="iso-8859-1"?>
<!-- Generator: Adobe Illustrator 18.0.0, SVG Export Plug-In . SVG Version: 6.00 Build 0)  -->
<!DOCTYPE svg PUBLIC "-//W3C//DTD SVG 1.1//EN" "http://www.w3.org/Graphics/SVG/1.1/DTD/svg11.dtd">
<svg version="1.1" id="Capa_1" xmlns="http://www.w3.org/2000/svg" xmlns:xlink="http://www.w3.org/1999/xlink" x="0px" y="0px"
	 viewBox="0 0 214.637 214.637" style="enable-background:new 0 0 214.637 214.637;" xml:space="preserve">
<g>
	<path d="M127.75,183.153c-10.629,10.63-24.76,16.483-39.793,16.483c-31.024,0-56.265-25.241-56.265-56.268
		c0-15.034,5.852-29.168,16.479-39.796c2.929-2.929,2.928-7.678-0.001-10.607c-2.929-2.93-7.678-2.929-10.607,0.001
		c-13.459,13.461-20.871,31.36-20.871,50.401c0,39.297,31.969,71.268,71.265,71.268c19.039,0,36.938-7.414,50.4-20.878
		c2.929-2.929,2.928-7.678-0.001-10.606C135.427,180.225,130.678,180.224,127.75,183.153z"/>
	<path d="M190.444,166.706h-21.335L155.9,130.057c-1.072-2.975-3.894-4.957-7.056-4.957H93.232V91.424h51.648
		c4.142,0,7.5-3.357,7.5-7.5c0-4.143-3.358-7.5-7.5-7.5H93.232V53.279c0-4.143-3.358-7.5-7.5-7.5c-4.142,0-7.5,3.357-7.5,7.5v79.32
		c0,4.143,3.358,7.5,7.5,7.5h57.842l13.209,36.649c1.072,2.975,3.894,4.957,7.056,4.957h26.604c4.142,0,7.5-3.357,7.5-7.5
		S194.587,166.706,190.444,166.706z"/>
	<path d="M86.015,36.438c10.063,0,18.221-8.154,18.221-18.224C104.235,8.161,96.078,0,86.015,0C75.952,0,67.796,8.161,67.796,18.215
		C67.796,28.284,75.952,36.438,86.015,36.438z"/>
</g>
<g>
</g>
<g>
</g>
<g>
</g>
<g>
</g>
<g>
</g>
<g>
</g>
<g>
</g>
<g>
</g>
<g>
</g>
<g>
</g>
<g>
</g>
<g>
</g>
<g>
</g>
<g>
</g>
<g>
</g>
</svg>
