<?xml version="1.0" encoding="iso-8859-1"?>
<!-- Generator: Adobe Illustrator 18.0.0, SVG Export Plug-In . SVG Version: 6.00 Build 0)  -->
<!DOCTYPE svg PUBLIC "-//W3C//DTD SVG 1.1//EN" "http://www.w3.org/Graphics/SVG/1.1/DTD/svg11.dtd">
<svg version="1.1" id="Capa_1" xmlns="http://www.w3.org/2000/svg" xmlns:xlink="http://www.w3.org/1999/xlink" x="0px" y="0px"
	 viewBox="0 0 211.293 211.293" style="enable-background:new 0 0 211.293 211.293;" xml:space="preserve">
<g>
	<path d="M176.777,54.027H133.43c-4.143,0-7.5,3.357-7.5,7.5c0,4.142,3.357,7.5,7.5,7.5h35.848v127.266H42.016V69.027h35.844
		c4.143,0,7.5-3.357,7.5-7.5c0-4.143-3.357-7.5-7.5-7.5H34.516c-4.142,0-7.5,3.357-7.5,7.5v142.266c0,4.143,3.358,7.5,7.5,7.5
		h142.262c4.143,0,7.5-3.357,7.5-7.5V61.527C184.277,57.385,180.92,54.027,176.777,54.027z"/>
	<path d="M82.058,101.468c-2.929-2.929-7.678-2.93-10.606-0.001c-2.93,2.93-2.93,7.678-0.001,10.607l28.889,28.89
		c1.407,1.407,3.314,2.197,5.304,2.197c1.989,0,3.896-0.79,5.303-2.196l28.891-28.89c2.93-2.929,2.93-7.678,0.001-10.606
		c-2.929-2.929-7.678-2.93-10.606-0.001l-16.088,16.087V7.5c0-4.143-3.357-7.5-7.5-7.5s-7.5,3.357-7.5,7.5v110.054L82.058,101.468z"
		/>
</g>
<g>
</g>
<g>
</g>
<g>
</g>
<g>
</g>
<g>
</g>
<g>
</g>
<g>
</g>
<g>
</g>
<g>
</g>
<g>
</g>
<g>
</g>
<g>
</g>
<g>
</g>
<g>
</g>
<g>
</g>
</svg>
