<?xml version="1.0" encoding="iso-8859-1"?>
<!-- Generator: Adobe Illustrator 18.0.0, SVG Export Plug-In . SVG Version: 6.00 Build 0)  -->
<!DOCTYPE svg PUBLIC "-//W3C//DTD SVG 1.1//EN" "http://www.w3.org/Graphics/SVG/1.1/DTD/svg11.dtd">
<svg version="1.1" id="Capa_1" xmlns="http://www.w3.org/2000/svg" xmlns:xlink="http://www.w3.org/1999/xlink" x="0px" y="0px"
	 viewBox="0 0 228.08 228.08" style="enable-background:new 0 0 228.08 228.08;" xml:space="preserve">
<g>
	<path d="M210.543,0H39.863C23.426,0,10.052,13.367,10.038,29.803c0,0.004-0.001,0.008-0.001,0.013v0.013v168.436v22.316
		c0,4.142,3.358,7.5,7.5,7.5h170.691c4.142,0,7.5-3.358,7.5-7.5v-14.816h14.814c4.142,0,7.5-3.358,7.5-7.5V7.5
		C218.043,3.358,214.685,0,210.543,0z M180.729,213.08H25.037v-14.816V37.315h155.691V213.08z M203.043,190.764h-7.314V29.815
		c0-4.142-3.358-7.5-7.5-7.5H27.103C29.685,17.946,34.431,15,39.863,15h163.18V190.764z"/>
	<path d="M149.129,66.081H81.328c-4.142,0-7.5,3.358-7.5,7.5v33.911v27.412h-9.957c-13.762,0-24.958,11.196-24.958,24.957
		c0,13.762,11.196,24.959,24.958,24.959c13.761,0,24.957-11.197,24.957-24.959v-44.869h52.801v19.912h-9.955
		c-13.762,0-24.959,11.196-24.959,24.957c0,13.762,11.197,24.959,24.959,24.959c13.76,0,24.955-11.197,24.955-24.959v-52.369V73.581
		C156.629,69.439,153.271,66.081,149.129,66.081z M63.871,169.82c-5.491,0-9.958-4.468-9.958-9.959c0-5.49,4.467-9.957,9.958-9.957
		h9.957v9.957C73.828,165.352,69.361,169.82,63.871,169.82z M88.828,81.081h52.801v18.911H88.828V81.081z M131.674,169.82
		c-5.491,0-9.959-4.468-9.959-9.959c0-5.49,4.468-9.957,9.959-9.957h9.955v9.957C141.629,165.352,137.163,169.82,131.674,169.82z"/>
</g>
<g>
</g>
<g>
</g>
<g>
</g>
<g>
</g>
<g>
</g>
<g>
</g>
<g>
</g>
<g>
</g>
<g>
</g>
<g>
</g>
<g>
</g>
<g>
</g>
<g>
</g>
<g>
</g>
<g>
</g>
</svg>
