<?xml version="1.0" encoding="iso-8859-1"?>
<!-- Generator: Adobe Illustrator 18.0.0, SVG Export Plug-In . SVG Version: 6.00 Build 0)  -->
<!DOCTYPE svg PUBLIC "-//W3C//DTD SVG 1.1//EN" "http://www.w3.org/Graphics/SVG/1.1/DTD/svg11.dtd">
<svg version="1.1" id="Capa_1" xmlns="http://www.w3.org/2000/svg" xmlns:xlink="http://www.w3.org/1999/xlink" x="0px" y="0px"
	 viewBox="0 0 217.855 217.855" style="enable-background:new 0 0 217.855 217.855;" xml:space="preserve">
<path d="M215.658,53.55L164.305,2.196C162.899,0.79,160.991,0,159.002,0c-1.989,0-3.897,0.79-5.303,2.196L3.809,152.086
	c-1.35,1.352-2.135,3.166-2.193,5.075l-1.611,52.966c-0.063,2.067,0.731,4.069,2.193,5.532c1.409,1.408,3.317,2.196,5.303,2.196
	c0.076,0,0.152-0.001,0.229-0.004l52.964-1.613c1.909-0.058,3.724-0.842,5.075-2.192l149.89-149.889
	C218.587,61.228,218.587,56.479,215.658,53.55z M57.264,201.336l-42.024,1.28l1.279-42.026l91.124-91.125l40.75,40.743
	L57.264,201.336z M159,99.602l-40.751-40.742l40.752-40.753l40.746,40.747L159,99.602z"/>
<g>
</g>
<g>
</g>
<g>
</g>
<g>
</g>
<g>
</g>
<g>
</g>
<g>
</g>
<g>
</g>
<g>
</g>
<g>
</g>
<g>
</g>
<g>
</g>
<g>
</g>
<g>
</g>
<g>
</g>
</svg>
