<?xml version="1.0" encoding="iso-8859-1"?>
<!-- Generator: Adobe Illustrator 18.0.0, SVG Export Plug-In . SVG Version: 6.00 Build 0)  -->
<!DOCTYPE svg PUBLIC "-//W3C//DTD SVG 1.1//EN" "http://www.w3.org/Graphics/SVG/1.1/DTD/svg11.dtd">
<svg version="1.1" id="Capa_1" xmlns="http://www.w3.org/2000/svg" xmlns:xlink="http://www.w3.org/1999/xlink" x="0px" y="0px"
	 viewBox="0 0 235.592 235.592" style="enable-background:new 0 0 235.592 235.592;" xml:space="preserve">
<g>
	<path d="M117.795,0.002C52.843,0.002,0,52.844,0,117.795C0,182.747,52.843,235.59,117.795,235.59
		c64.952,0,117.797-52.843,117.797-117.795C235.592,52.844,182.747,0.002,117.795,0.002z M117.795,220.59
		C61.113,220.59,15,174.477,15,117.795C15,61.114,61.113,15.002,117.795,15.002c56.683,0,102.797,46.112,102.797,102.793
		C220.592,174.477,174.477,220.59,117.795,220.59z"/>
	<path d="M189.666,111.66l-66.373-46.707c-2.29-1.611-5.287-1.813-7.771-0.522c-2.485,1.29-4.045,3.856-4.045,6.656v19.846
		L74.559,64.953c-2.29-1.611-5.287-1.813-7.771-0.522c-2.485,1.29-4.045,3.856-4.045,6.656v93.418c0,2.8,1.56,5.367,4.045,6.656
		c1.088,0.565,2.273,0.844,3.454,0.844c1.519,0,3.029-0.46,4.317-1.366l36.918-25.982v19.849c0,2.8,1.56,5.367,4.045,6.656
		c1.088,0.565,2.272,0.844,3.454,0.844c1.519,0,3.03-0.461,4.317-1.366l66.373-46.711c1.996-1.405,3.184-3.693,3.184-6.134
		C192.85,115.354,191.662,113.065,189.666,111.66z M77.742,85.536l45.839,32.258l-45.839,32.262V85.536z M126.477,150.056V134.1
		l14.452-10.172c1.997-1.405,3.185-3.693,3.185-6.134c0-2.44-1.188-4.729-3.185-6.134l-14.452-10.171V85.535l45.841,32.259
		L126.477,150.056z"/>
</g>
<g>
</g>
<g>
</g>
<g>
</g>
<g>
</g>
<g>
</g>
<g>
</g>
<g>
</g>
<g>
</g>
<g>
</g>
<g>
</g>
<g>
</g>
<g>
</g>
<g>
</g>
<g>
</g>
<g>
</g>
</svg>
