<?xml version="1.0" encoding="iso-8859-1"?>
<!-- Generator: Adobe Illustrator 18.0.0, SVG Export Plug-In . SVG Version: 6.00 Build 0)  -->
<!DOCTYPE svg PUBLIC "-//W3C//DTD SVG 1.1//EN" "http://www.w3.org/Graphics/SVG/1.1/DTD/svg11.dtd">
<svg version="1.1" id="Capa_1" xmlns="http://www.w3.org/2000/svg" xmlns:xlink="http://www.w3.org/1999/xlink" x="0px" y="0px"
	 viewBox="0 0 226.661 226.661" style="enable-background:new 0 0 226.661 226.661;" xml:space="preserve">
<path d="M191.384,78.055C191.384,35.015,156.372,0,113.336,0C70.294,0,35.277,35.015,35.277,78.055
	c0,40.506,31.023,73.895,70.559,77.682v20.648H78.052c-4.142,0-7.5,3.358-7.5,7.5c0,4.142,3.358,7.5,7.5,7.5h27.783v27.776
	c0,4.142,3.358,7.5,7.5,7.5c4.142,0,7.5-3.358,7.5-7.5v-27.776h27.773c4.142,0,7.5-3.358,7.5-7.5c0-4.142-3.358-7.5-7.5-7.5h-27.773
	v-20.648C160.365,151.949,191.384,118.561,191.384,78.055z M50.277,78.055C50.277,43.286,78.565,15,113.336,15
	c34.765,0,63.049,28.286,63.049,63.055c0,34.766-28.284,63.05-63.049,63.05C78.565,141.105,50.277,112.82,50.277,78.055z"/>
<g>
</g>
<g>
</g>
<g>
</g>
<g>
</g>
<g>
</g>
<g>
</g>
<g>
</g>
<g>
</g>
<g>
</g>
<g>
</g>
<g>
</g>
<g>
</g>
<g>
</g>
<g>
</g>
<g>
</g>
</svg>
