<?xml version="1.0" encoding="iso-8859-1"?>
<!-- Generator: Adobe Illustrator 18.0.0, SVG Export Plug-In . SVG Version: 6.00 Build 0)  -->
<!DOCTYPE svg PUBLIC "-//W3C//DTD SVG 1.1//EN" "http://www.w3.org/Graphics/SVG/1.1/DTD/svg11.dtd">
<svg version="1.1" id="Capa_1" xmlns="http://www.w3.org/2000/svg" xmlns:xlink="http://www.w3.org/1999/xlink" x="0px" y="0px"
	 viewBox="0 0 228.077 228.077" style="enable-background:new 0 0 228.077 228.077;" xml:space="preserve">
<g>
	<path d="M24.733,164.358c-4.142,0-7.5,3.358-7.5,7.5v48.719c0,4.142,3.358,7.5,7.5,7.5c4.143,0,7.5-3.358,7.5-7.5v-48.719
		C32.233,167.716,28.875,164.358,24.733,164.358z"/>
	<path d="M114.041,15c14.806,0,29.303,3.993,41.925,11.546c3.558,2.128,8.16,0.971,10.287-2.584c2.127-3.554,0.97-8.16-2.584-10.287
		C148.718,4.728,131.558,0,114.041,0c-53.38,0-96.808,43.429-96.808,96.81v36.788c0,4.142,3.358,7.5,7.5,7.5
		c4.143,0,7.5-3.358,7.5-7.5V96.81C32.233,51.7,68.932,15,114.041,15z"/>
	<path d="M197.852,48.323c-2.075-3.584-6.663-4.807-10.249-2.732c-3.584,2.076-4.808,6.664-2.732,10.249
		c7.179,12.395,10.973,26.562,10.973,40.97v123.768c0,4.142,3.357,7.5,7.5,7.5c4.142,0,7.5-3.358,7.5-7.5V96.81
		C210.844,79.766,206.352,63,197.852,48.323z"/>
	<path d="M65.376,131.345c0-4.142-3.357-7.5-7.5-7.5s-7.5,3.358-7.5,7.5v34.813c0,4.142,3.357,7.5,7.5,7.5s7.5-3.358,7.5-7.5
		V131.345z"/>
	<path d="M114.041,33.76c-35.105,0-63.665,28.561-63.665,63.667c0,4.142,3.357,7.5,7.5,7.5s7.5-3.358,7.5-7.5
		c0-26.835,21.831-48.667,48.665-48.667c26.829,0,48.655,21.832,48.655,48.667v34.815c0,4.142,3.357,7.5,7.5,7.5
		c4.143,0,7.5-3.358,7.5-7.5V97.427C177.696,62.321,149.14,33.76,114.041,33.76z"/>
	<path d="M135.49,203.21c-6.699,3.29-13.916,4.959-21.449,4.959c-14.551,0-28.217-6.427-37.493-17.633
		c-2.642-3.19-7.368-3.635-10.562-0.994c-3.19,2.642-3.635,7.369-0.993,10.56c12.138,14.66,30.015,23.068,49.048,23.068
		c9.847,0,19.288-2.185,28.063-6.495c3.718-1.826,5.251-6.32,3.426-10.038C143.704,202.918,139.21,201.382,135.49,203.21z"/>
	<path d="M170.196,167.966c-4.143,0-7.5,3.358-7.5,7.5v45.111c0,4.142,3.357,7.5,7.5,7.5c4.143,0,7.5-3.358,7.5-7.5v-45.111
		C177.696,171.324,174.338,167.966,170.196,167.966z"/>
	<path d="M137.68,127.135c4.142,0,7.5-3.358,7.5-7.5v-15.358c0-17.166-13.969-31.132-31.14-31.132
		c-17.169,0-31.138,13.966-31.138,31.132c0,4.142,3.357,7.5,7.5,7.5c4.143,0,7.5-3.358,7.5-7.5c0-8.895,7.24-16.132,16.138-16.132
		c8.899,0,16.14,7.237,16.14,16.132v15.358C130.18,123.777,133.538,127.135,137.68,127.135z"/>
	<path d="M82.903,155.395c0,17.168,13.969,31.136,31.138,31.136c17.171,0,31.14-13.967,31.14-31.136c0-4.142-3.358-7.5-7.5-7.5
		c-4.143,0-7.5,3.358-7.5,7.5c0,8.897-7.24,16.136-16.14,16.136c-8.898,0-16.138-7.238-16.138-16.136v-15.358
		c0-4.142-3.357-7.5-7.5-7.5c-4.143,0-7.5,3.358-7.5,7.5V155.395z"/>
</g>
<g>
</g>
<g>
</g>
<g>
</g>
<g>
</g>
<g>
</g>
<g>
</g>
<g>
</g>
<g>
</g>
<g>
</g>
<g>
</g>
<g>
</g>
<g>
</g>
<g>
</g>
<g>
</g>
<g>
</g>
</svg>
