<?xml version="1.0" encoding="iso-8859-1"?>
<!-- Generator: Adobe Illustrator 18.0.0, SVG Export Plug-In . SVG Version: 6.00 Build 0)  -->
<!DOCTYPE svg PUBLIC "-//W3C//DTD SVG 1.1//EN" "http://www.w3.org/Graphics/SVG/1.1/DTD/svg11.dtd">
<svg version="1.1" id="Capa_1" xmlns="http://www.w3.org/2000/svg" xmlns:xlink="http://www.w3.org/1999/xlink" x="0px" y="0px"
	 viewBox="0 0 279.626 279.626" style="enable-background:new 0 0 279.626 279.626;" xml:space="preserve">
<path d="M279.37,113.888l-7.663-28.6c-0.694-2.588-2.715-4.609-5.303-5.303c-2.588-0.692-5.349,0.047-7.245,1.94l-27.772,27.771
	l-15.029-4.028l-4.028-15.03l27.768-27.775c1.895-1.896,2.634-4.657,1.94-7.245c-0.694-2.588-2.716-4.609-5.304-5.303l-28.594-7.656
	c-2.588-0.69-5.349,0.047-7.243,1.941l-38.064,38.057c-1.895,1.895-2.635,4.657-1.941,7.245l6.544,24.417l-13.298,13.298
	l-24.563-24.563l0.329-0.33c0.094-0.094,0.176-0.194,0.264-0.292c0.084-0.093,0.172-0.182,0.251-0.277
	c0.088-0.106,0.163-0.221,0.244-0.331c0.067-0.092,0.14-0.182,0.202-0.275c0.078-0.118,0.144-0.241,0.214-0.363
	c0.054-0.092,0.114-0.182,0.163-0.275c0.078-0.147,0.142-0.299,0.209-0.45c0.032-0.072,0.07-0.143,0.1-0.216
	c0.078-0.191,0.143-0.387,0.204-0.582c0.011-0.035,0.025-0.069,0.036-0.104c0.048-0.164,0.084-0.331,0.121-0.497
	c0.015-0.069,0.037-0.137,0.05-0.206c0.014-0.071,0.019-0.143,0.031-0.214c0.377-2.303-0.314-4.746-2.09-6.521l-13.759-13.762
	c2.628-1.166,5.496-1.778,8.459-1.778c5.57,0,10.804,2.166,14.736,6.101c2.928,2.929,7.677,2.931,10.606,0.002
	c0.002-0.002,0.003-0.004,0.005-0.005l20.034-20.03c1.407-1.406,2.197-3.314,2.197-5.304c0-1.99-0.79-3.897-2.198-5.305
	c-25.026-25.016-65.741-25.016-90.759,0.002l-40.08,40.078c-1.407,1.407-2.197,3.314-2.197,5.304c0,1.989,0.79,3.897,2.197,5.304
	l4.718,4.718l-6.305,6.303l-4.717-4.717c-1.406-1.407-3.314-2.197-5.303-2.197c-1.989,0-3.897,0.79-5.304,2.197L2.196,129.069
	C0.79,130.476,0,132.384,0,134.373c0,1.988,0.791,3.896,2.197,5.303l40.079,40.072c1.464,1.464,3.383,2.196,5.303,2.196
	c1.919,0,3.839-0.732,5.303-2.196l20.035-20.035c2.929-2.93,2.929-7.678,0-10.607l-4.728-4.729l6.306-6.306l4.729,4.729
	c1.407,1.406,3.314,2.196,5.304,2.196c1.989,0,3.896-0.79,5.303-2.197l2.419-2.42l24.561,24.562l-32.794,32.793
	c-5.379,5.378-8.341,12.529-8.341,20.136c0,7.608,2.965,14.76,8.34,20.131c5.375,5.384,12.526,8.35,20.136,8.35
	c7.608,0,14.761-2.964,20.14-8.345l32.792-32.788l36.732,36.729c1.465,1.464,3.384,2.196,5.303,2.196
	c1.92,0,3.839-0.732,5.303-2.197l26.715-26.717c2.929-2.929,2.929-7.677,0.001-10.605l-36.725-36.732l13.295-13.293l24.408,6.537
	c2.588,0.695,5.349-0.046,7.244-1.94l38.067-38.062C279.324,119.238,280.064,116.476,279.37,113.888z M47.579,163.838
	l-29.472-29.467l9.432-9.433L46.9,144.301l5.378,5.38c0.006,0.006,0.012,0.011,0.018,0.017l4.712,4.712L47.579,163.838z
	 M63.877,127.478l-6.293,6.292l-9.417-9.42l6.293-6.292L63.877,127.478z M153.669,57.746l-9.583,9.582
	c-5.75-3.738-12.459-5.75-19.483-5.75c-7.024,0-13.734,2.012-19.485,5.751l-9.58-9.582
	C112.767,45.109,136.436,45.109,153.669,57.746z M84.527,126.891l-29.472-29.47l29.472-29.472l14.727,14.729l0.054,0.054
	l14.686,14.688l-0.319,0.319c-0.004,0.004-0.007,0.007-0.011,0.01l-26.719,26.718c-0.014,0.014-0.025,0.029-0.039,0.044
	L84.527,126.891z M102.857,129.772l16.111-16.111l24.563,24.563l-16.111,16.111L102.857,129.772z M215.23,209.927l-16.11,16.11
	l-31.427-31.426l16.116-16.113L215.23,209.927z M231.818,145.526l-24.408-6.537c-2.586-0.692-5.349,0.046-7.243,1.941l-86.481,86.47
	c-2.546,2.548-5.932,3.951-9.533,3.951c-3.599,0-6.98-1.402-9.528-3.954c-2.546-2.544-3.949-5.928-3.949-9.527
	c-0.001-3.6,1.401-6.982,3.947-9.527l86.481-86.478c1.895-1.896,2.635-4.657,1.94-7.245l-6.543-24.417l31.939-31.934l11.864,3.177
	l-21.644,21.65c-1.894,1.895-2.634,4.656-1.94,7.244l6.27,23.395c0.693,2.588,2.715,4.609,5.303,5.303l23.394,6.27
	c2.589,0.693,5.35-0.046,7.245-1.94l21.648-21.647l3.18,11.869L231.818,145.526z"/>
<g>
</g>
<g>
</g>
<g>
</g>
<g>
</g>
<g>
</g>
<g>
</g>
<g>
</g>
<g>
</g>
<g>
</g>
<g>
</g>
<g>
</g>
<g>
</g>
<g>
</g>
<g>
</g>
<g>
</g>
</svg>
