<?xml version="1.0" encoding="iso-8859-1"?>
<!-- Generator: Adobe Illustrator 18.0.0, SVG Export Plug-In . SVG Version: 6.00 Build 0)  -->
<!DOCTYPE svg PUBLIC "-//W3C//DTD SVG 1.1//EN" "http://www.w3.org/Graphics/SVG/1.1/DTD/svg11.dtd">
<svg version="1.1" id="Capa_1" xmlns="http://www.w3.org/2000/svg" xmlns:xlink="http://www.w3.org/1999/xlink" x="0px" y="0px"
	 viewBox="0 0 245.27 245.27" style="enable-background:new 0 0 245.27 245.27;" xml:space="preserve">
<g>
	<path d="M237.77,64.687H35.979c-4.142,0-7.5,3.358-7.5,7.5v100.896c0,4.142,3.358,7.5,7.5,7.5h201.79c4.142,0,7.5-3.358,7.5-7.5
		V72.187C245.27,68.045,241.912,64.687,237.77,64.687z M230.27,165.583H43.479V79.687h186.79V165.583z"/>
	<rect x="180.666" y="101.936" width="27.35" height="41.4"/>
	<rect x="65.729" y="101.936" width="27.348" height="41.4"/>
	<rect x="104.042" y="101.936" width="27.347" height="41.4"/>
	<rect x="142.354" y="101.936" width="27.348" height="41.4"/>
	<path d="M7.5,89.889c-4.142,0-7.5,3.358-7.5,7.5v50.492c0,4.142,3.358,7.5,7.5,7.5s7.5-3.358,7.5-7.5V97.389
		C15,93.247,11.642,89.889,7.5,89.889z"/>
</g>
<g>
</g>
<g>
</g>
<g>
</g>
<g>
</g>
<g>
</g>
<g>
</g>
<g>
</g>
<g>
</g>
<g>
</g>
<g>
</g>
<g>
</g>
<g>
</g>
<g>
</g>
<g>
</g>
<g>
</g>
</svg>
