<?xml version="1.0" encoding="iso-8859-1"?>
<!-- Generator: Adobe Illustrator 18.0.0, SVG Export Plug-In . SVG Version: 6.00 Build 0)  -->
<!DOCTYPE svg PUBLIC "-//W3C//DTD SVG 1.1//EN" "http://www.w3.org/Graphics/SVG/1.1/DTD/svg11.dtd">
<svg version="1.1" id="Capa_1" xmlns="http://www.w3.org/2000/svg" xmlns:xlink="http://www.w3.org/1999/xlink" x="0px" y="0px"
	 viewBox="0 0 228.079 228.079" style="enable-background:new 0 0 228.079 228.079;" xml:space="preserve">
<path d="M146.781,0H75.755c-4.143,0-7.5,3.358-7.5,7.5v10.251H53.283V7.5c0-4.142-3.357-7.5-7.5-7.5H10.271
	c-4.143,0-7.5,3.358-7.5,7.5v71.026c0,4.142,3.357,7.5,7.5,7.5h35.512c4.143,0,7.5-3.358,7.5-7.5V68.249h14.973v10.277
	c0,4.142,3.357,7.5,7.5,7.5h10.252v134.553c0,4.142,3.357,7.5,7.5,7.5h35.516c4.143,0,7.5-3.358,7.5-7.5V86.026h10.258
	c4.143,0,7.5-3.358,7.5-7.5V51.525c11.796,3.28,20.48,14.1,20.518,26.917c0,0.028-0.004,0.056-0.004,0.084
	c0,4.142,3.357,7.5,7.5,7.5h35.514c4.143,0,7.5-3.358,7.5-7.5C225.308,35.227,190.081,0,146.781,0z M38.283,71.026H17.771V15h20.512
	v10.251v35.498V71.026z M68.232,53.249H53.283V32.751h14.949V53.249z M83.255,15h56.025v28.006v28.02h-10.258H93.507H83.255V15z
	 M121.523,213.079h-20.516V86.026h20.516V213.079z M189.134,71.026c-3.13-17.719-17.135-31.723-34.854-34.852V15.44
	c29.046,3.433,52.155,26.541,55.587,55.586H189.134z"/>
<g>
</g>
<g>
</g>
<g>
</g>
<g>
</g>
<g>
</g>
<g>
</g>
<g>
</g>
<g>
</g>
<g>
</g>
<g>
</g>
<g>
</g>
<g>
</g>
<g>
</g>
<g>
</g>
<g>
</g>
</svg>
