<?xml version="1.0" encoding="iso-8859-1"?>
<!-- Generator: Adobe Illustrator 18.0.0, SVG Export Plug-In . SVG Version: 6.00 Build 0)  -->
<!DOCTYPE svg PUBLIC "-//W3C//DTD SVG 1.1//EN" "http://www.w3.org/Graphics/SVG/1.1/DTD/svg11.dtd">
<svg version="1.1" id="Capa_1" xmlns="http://www.w3.org/2000/svg" xmlns:xlink="http://www.w3.org/1999/xlink" x="0px" y="0px"
	 viewBox="0 0 218.598 218.598" style="enable-background:new 0 0 218.598 218.598;" xml:space="preserve">
<path d="M175.43,36.592c-2.162,0-4.248,0.329-6.215,0.934V30.38c0-11.697-9.514-21.214-21.209-21.214
	c-3.14,0-6.113,0.703-8.798,1.932C135.609,4.492,128.6,0,120.561,0c-11.042,0-20.13,8.482-21.115,19.273
	c-1.993-0.623-4.112-0.959-6.307-0.959c-11.698,0-21.215,9.521-21.215,21.223v57.094l-4.888-6.687
	c-7.709-11.637-22.998-15.47-34.254-8.492c-5.259,3.333-8.915,8.586-10.294,14.791c-1.437,6.467-0.212,13.479,3.361,19.331
	c1.68,3.621,12.629,26.754,28.854,50.241c24.195,35.023,47.572,52.782,69.481,52.782c59.486,0,72.514-51.663,72.514-71.569V57.806
	C196.697,46.108,187.157,36.592,175.43,36.592z M181.697,147.028c0,0.565-0.658,56.569-57.514,56.569
	c-34.176,0-72.872-68.363-84.897-94.704c-0.146-0.319-0.314-0.63-0.503-0.926c-1.667-2.607-2.269-5.694-1.652-8.471
	c0.359-1.615,1.289-3.859,3.618-5.336c4.374-2.713,10.581-0.85,13.837,4.149c0.074,0.113,0.15,0.225,0.23,0.334l18.553,25.382
	c1.915,2.62,5.296,3.71,8.382,2.704c3.085-1.008,5.172-3.885,5.172-7.13V39.537c0-3.432,2.788-6.223,6.215-6.223
	c3.424,0,6.209,2.791,6.209,6.223v57.188c0,4.143,3.358,7.5,7.5,7.5s7.5-3.357,7.5-7.5V39.537V21.213
	c0-3.426,2.787-6.213,6.213-6.213c3.43,0,6.22,2.787,6.22,6.213v9.167v66.345c0,4.143,3.358,7.5,7.5,7.5c4.142,0,7.5-3.357,7.5-7.5
	V30.38c0-3.427,2.793-6.214,6.225-6.214c3.424,0,6.209,2.787,6.209,6.214v27.426v48.074c0,4.143,3.358,7.5,7.5,7.5
	c4.142,0,7.5-3.357,7.5-7.5V57.806c0-3.427,2.788-6.214,6.215-6.214c3.456,0,6.268,2.787,6.268,6.214V147.028z"/>
<g>
</g>
<g>
</g>
<g>
</g>
<g>
</g>
<g>
</g>
<g>
</g>
<g>
</g>
<g>
</g>
<g>
</g>
<g>
</g>
<g>
</g>
<g>
</g>
<g>
</g>
<g>
</g>
<g>
</g>
</svg>
