<?xml version="1.0" encoding="iso-8859-1"?>
<!-- Generator: Adobe Illustrator 18.0.0, SVG Export Plug-In . SVG Version: 6.00 Build 0)  -->
<!DOCTYPE svg PUBLIC "-//W3C//DTD SVG 1.1//EN" "http://www.w3.org/Graphics/SVG/1.1/DTD/svg11.dtd">
<svg version="1.1" id="Capa_1" xmlns="http://www.w3.org/2000/svg" xmlns:xlink="http://www.w3.org/1999/xlink" x="0px" y="0px"
	 viewBox="0 0 245.555 245.555" style="enable-background:new 0 0 245.555 245.555;" xml:space="preserve">
<path d="M242.985,67.525c-8.315-32.612-35.875-55.389-67.021-55.389c-20.528,0-39.097,9.887-53.207,28.091
	c-14.099-18.205-32.658-28.091-53.182-28.091c-31.133,0-58.686,22.776-67.002,55.387c-4.451,17.455-5.316,45.346,15.847,79.094
	c19.56,31.193,53.455,60.089,100.744,85.886c1.119,0.611,2.355,0.916,3.592,0.916c1.235,0,2.472-0.305,3.591-0.915
	c47.303-25.797,81.209-54.694,100.777-85.886C248.295,112.87,247.435,84.979,242.985,67.525z M122.755,217.355
	C6.727,152.714,12.506,89.274,17.108,71.23c6.62-25.962,28.196-44.094,52.467-44.094c18.354,0,34.963,10.735,46.765,30.228
	c1.359,2.244,3.791,3.615,6.415,3.615h0.001c2.623,0,5.054-1.37,6.414-3.613c11.814-19.494,28.432-30.229,46.794-30.229
	c24.284,0,45.867,18.132,52.486,44.094C233.05,89.274,238.842,152.705,122.755,217.355z"/>
<g>
</g>
<g>
</g>
<g>
</g>
<g>
</g>
<g>
</g>
<g>
</g>
<g>
</g>
<g>
</g>
<g>
</g>
<g>
</g>
<g>
</g>
<g>
</g>
<g>
</g>
<g>
</g>
<g>
</g>
</svg>
