<?xml version="1.0" encoding="iso-8859-1"?>
<!-- Generator: Adobe Illustrator 18.0.0, SVG Export Plug-In . SVG Version: 6.00 Build 0)  -->
<!DOCTYPE svg PUBLIC "-//W3C//DTD SVG 1.1//EN" "http://www.w3.org/Graphics/SVG/1.1/DTD/svg11.dtd">
<svg version="1.1" id="Capa_1" xmlns="http://www.w3.org/2000/svg" xmlns:xlink="http://www.w3.org/1999/xlink" x="0px" y="0px"
	 viewBox="0 0 228.081 228.081" style="enable-background:new 0 0 228.081 228.081;" xml:space="preserve">
<path d="M220.581,71.027h-63.527V7.501c0-4.142-3.358-7.5-7.5-7.5H78.526c-4.142,0-7.5,3.358-7.5,7.5v63.526H7.5
	c-4.142,0-7.5,3.358-7.5,7.5v71.032c0,4.142,3.358,7.5,7.5,7.5h63.526v63.521c0,4.142,3.358,7.5,7.5,7.5h71.027
	c4.142,0,7.5-3.358,7.5-7.5v-63.521h63.527c4.142,0,7.5-3.358,7.5-7.5V78.527C228.081,74.385,224.723,71.027,220.581,71.027z
	 M213.081,142.059h-63.527c-4.142,0-7.5,3.358-7.5,7.5v63.521H86.026v-63.521c0-4.142-3.358-7.5-7.5-7.5H15V86.027h63.526
	c4.142,0,7.5-3.358,7.5-7.5V15.001h56.027v63.526c0,4.142,3.358,7.5,7.5,7.5h63.527V142.059z"/>
<g>
</g>
<g>
</g>
<g>
</g>
<g>
</g>
<g>
</g>
<g>
</g>
<g>
</g>
<g>
</g>
<g>
</g>
<g>
</g>
<g>
</g>
<g>
</g>
<g>
</g>
<g>
</g>
<g>
</g>
</svg>
