<?xml version="1.0" encoding="iso-8859-1"?>
<!-- Generator: Adobe Illustrator 18.0.0, SVG Export Plug-In . SVG Version: 6.00 Build 0)  -->
<!DOCTYPE svg PUBLIC "-//W3C//DTD SVG 1.1//EN" "http://www.w3.org/Graphics/SVG/1.1/DTD/svg11.dtd">
<svg version="1.1" id="Capa_1" xmlns="http://www.w3.org/2000/svg" xmlns:xlink="http://www.w3.org/1999/xlink" x="0px" y="0px"
	 viewBox="0 0 214.24 214.24" style="enable-background:new 0 0 214.24 214.24;" xml:space="preserve">
<g>
	<path d="M177.923,36.463c-4.862-4.866-11.329-7.547-18.208-7.547c-6.878,0-13.345,2.681-18.207,7.546
		c-4.863,4.864-7.541,11.331-7.541,18.207c0,6.878,2.679,13.344,7.54,18.203c4.862,4.864,11.327,7.543,18.205,7.543
		c6.877,0,13.344-2.678,18.207-7.54c4.865-4.862,7.544-11.328,7.544-18.206C185.463,47.794,182.785,41.327,177.923,36.463z
		 M167.316,62.266c-2.032,2.031-4.733,3.149-7.605,3.149c-2.87,0-5.567-1.117-7.599-3.149c-2.03-2.028-3.146-4.726-3.146-7.597
		c0-2.87,1.118-5.57,3.149-7.603c2.03-2.031,4.729-3.15,7.599-3.15s5.568,1.119,7.6,3.151c2.03,2.031,3.148,4.731,3.148,7.602
		C170.463,57.54,169.346,60.238,167.316,62.266z"/>
	<path d="M194.515,19.872C168.209-6.43,125.41-6.434,99.106,19.868C79.923,39.06,74.204,67.646,84.108,92.507l-25.964,25.962h-23.77
		c-4.143,0-7.5,3.357-7.5,7.5v19.376H7.5c-4.143,0-7.5,3.357-7.5,7.5v26.88v26.871c0,4.143,3.357,7.5,7.5,7.5h26.875
		c1.988,0,3.894-0.789,5.301-2.194l81.834-81.768c24.959,10.121,53.688,4.456,73.006-14.862
		C220.814,88.972,220.814,46.176,194.515,19.872z M183.908,104.666c-16.038,16.04-40.418,19.979-60.664,9.799
		c-2.89-1.45-6.383-0.89-8.67,1.396l-83.304,83.236H15v-19.371v-19.38h19.375c4.142,0,7.5-3.357,7.5-7.5v-19.376h19.376
		c1.989,0,3.896-0.79,5.303-2.196l31.803-31.801c2.275-2.275,2.846-5.747,1.419-8.631c-9.984-20.171-5.99-44.432,9.938-60.368
		c20.455-20.451,53.736-20.448,74.194,0.005C204.359,50.934,204.359,84.213,183.908,104.666z"/>
</g>
<g>
</g>
<g>
</g>
<g>
</g>
<g>
</g>
<g>
</g>
<g>
</g>
<g>
</g>
<g>
</g>
<g>
</g>
<g>
</g>
<g>
</g>
<g>
</g>
<g>
</g>
<g>
</g>
<g>
</g>
</svg>
