<?xml version="1.0" encoding="iso-8859-1"?>
<!-- Generator: Adobe Illustrator 18.0.0, SVG Export Plug-In . SVG Version: 6.00 Build 0)  -->
<!DOCTYPE svg PUBLIC "-//W3C//DTD SVG 1.1//EN" "http://www.w3.org/Graphics/SVG/1.1/DTD/svg11.dtd">
<svg version="1.1" id="Capa_1" xmlns="http://www.w3.org/2000/svg" xmlns:xlink="http://www.w3.org/1999/xlink" x="0px" y="0px"
	 viewBox="0 0 223.095 223.095" style="enable-background:new 0 0 223.095 223.095;" xml:space="preserve">
<path d="M173.976,83.236h-13.308V49.115C160.668,22.033,138.633,0,111.549,0C84.464,0,62.43,22.033,62.43,49.115v34.121h-13.31
	c-4.142,0-7.5,3.357-7.5,7.5v124.859c0,4.142,3.358,7.5,7.5,7.5h124.856c4.142,0,7.5-3.358,7.5-7.5V90.736
	C181.476,86.593,178.118,83.236,173.976,83.236z M77.43,49.115C77.43,30.304,92.735,15,111.549,15
	c18.813,0,34.119,15.304,34.119,34.115v34.121H77.43V49.115z M166.476,208.095H56.619V98.236H69.93h83.238h13.308V208.095z"/>
<g>
</g>
<g>
</g>
<g>
</g>
<g>
</g>
<g>
</g>
<g>
</g>
<g>
</g>
<g>
</g>
<g>
</g>
<g>
</g>
<g>
</g>
<g>
</g>
<g>
</g>
<g>
</g>
<g>
</g>
</svg>
