<?xml version="1.0" encoding="iso-8859-1"?>
<!-- Generator: Adobe Illustrator 18.0.0, SVG Export Plug-In . SVG Version: 6.00 Build 0)  -->
<!DOCTYPE svg PUBLIC "-//W3C//DTD SVG 1.1//EN" "http://www.w3.org/Graphics/SVG/1.1/DTD/svg11.dtd">
<svg version="1.1" id="Capa_1" xmlns="http://www.w3.org/2000/svg" xmlns:xlink="http://www.w3.org/1999/xlink" x="0px" y="0px"
	 viewBox="0 0 245.268 245.268" style="enable-background:new 0 0 245.268 245.268;" xml:space="preserve">
<g>
	<path d="M237.768,64.686H35.986c-4.142,0-7.5,3.358-7.5,7.5v100.896c0,4.142,3.358,7.5,7.5,7.5h201.781c4.142,0,7.5-3.358,7.5-7.5
		V72.186C245.268,68.044,241.91,64.686,237.768,64.686z M230.268,165.582H43.486V79.686h186.781V165.582z"/>
	<rect x="193.422" y="97.683" width="18.85" height="49.9"/>
	<path d="M7.5,89.892c-4.142,0-7.5,3.358-7.5,7.5v50.486c0,4.142,3.358,7.5,7.5,7.5s7.5-3.358,7.5-7.5V97.392
		C15,93.25,11.642,89.892,7.5,89.892z"/>
</g>
<g>
</g>
<g>
</g>
<g>
</g>
<g>
</g>
<g>
</g>
<g>
</g>
<g>
</g>
<g>
</g>
<g>
</g>
<g>
</g>
<g>
</g>
<g>
</g>
<g>
</g>
<g>
</g>
<g>
</g>
</svg>
