<?xml version="1.0" encoding="iso-8859-1"?>
<!-- Generator: Adobe Illustrator 18.0.0, SVG Export Plug-In . SVG Version: 6.00 Build 0)  -->
<!DOCTYPE svg PUBLIC "-//W3C//DTD SVG 1.1//EN" "http://www.w3.org/Graphics/SVG/1.1/DTD/svg11.dtd">
<svg version="1.1" id="Capa_1" xmlns="http://www.w3.org/2000/svg" xmlns:xlink="http://www.w3.org/1999/xlink" x="0px" y="0px"
	 viewBox="0 0 219.781 219.781" style="enable-background:new 0 0 219.781 219.781;" xml:space="preserve">
<g>
	<path d="M161.033,66.241c1.919,0,3.839-0.732,5.303-2.196l18.537-18.536c2.929-2.929,2.929-7.678,0-10.606
		c-2.929-2.93-7.678-2.929-10.606-0.001l-18.537,18.536c-2.929,2.929-2.929,7.678,0,10.606
		C157.194,65.509,159.113,66.241,161.033,66.241z"/>
	<path d="M172.688,126.932c-2.929-2.928-7.678-2.929-10.607,0.001c-2.929,2.929-2.929,7.678,0,10.606l18.535,18.534
		c1.464,1.464,3.384,2.196,5.303,2.196c1.919,0,3.839-0.732,5.303-2.197c2.929-2.929,2.929-7.678,0-10.606L172.688,126.932z"/>
	<path d="M212.279,88.287l-26.216,0.002c-4.142,0-7.5,3.358-7.5,7.501c0,4.142,3.358,7.499,7.5,7.499l26.216-0.002
		c4.142,0,7.5-3.358,7.5-7.501C219.779,91.645,216.421,88.287,212.279,88.287z"/>
	<path d="M82.241,57.699c1.464,1.464,3.384,2.196,5.303,2.196c1.919,0,3.839-0.732,5.303-2.196c2.929-2.93,2.929-7.678,0-10.607
		L74.316,28.56c-2.929-2.928-7.678-2.928-10.606,0c-2.929,2.93-2.929,7.678,0,10.607L82.241,57.699z"/>
	<path d="M123.989,41.213C123.989,41.213,123.989,41.213,123.989,41.213c4.143,0,7.5-3.357,7.501-7.499l0.004-26.213
		c0-4.142-3.357-7.5-7.499-7.501c0,0-0.001,0-0.001,0c-4.142,0-7.5,3.357-7.5,7.499l-0.004,26.213
		C116.489,37.854,119.847,41.212,123.989,41.213z"/>
	<path d="M158.346,87.777l-26.34-26.34c-2.929-2.928-7.678-2.928-10.606,0L95.054,87.781c-0.005,0.005-0.009,0.011-0.015,0.016
		l-92.841,92.84c-1.407,1.407-2.197,3.314-2.197,5.304s0.79,3.896,2.197,5.304l26.342,26.341c1.464,1.464,3.384,2.196,5.303,2.196
		c1.92,0,3.839-0.732,5.303-2.196l92.837-92.837c0.007-0.008,0.016-0.014,0.023-0.021l21.601-21.604l4.738-4.738
		C161.275,95.455,161.275,90.707,158.346,87.777z M142.436,93.081l-15.735,15.735l-15.735-15.731l15.737-15.737L142.436,93.081z
		 M33.843,201.675L18.108,185.94l82.25-82.249l15.736,15.732L33.843,201.675z"/>
</g>
<g>
</g>
<g>
</g>
<g>
</g>
<g>
</g>
<g>
</g>
<g>
</g>
<g>
</g>
<g>
</g>
<g>
</g>
<g>
</g>
<g>
</g>
<g>
</g>
<g>
</g>
<g>
</g>
<g>
</g>
</svg>
