<?xml version="1.0" encoding="iso-8859-1"?>
<!-- Generator: Adobe Illustrator 18.0.0, SVG Export Plug-In . SVG Version: 6.00 Build 0)  -->
<!DOCTYPE svg PUBLIC "-//W3C//DTD SVG 1.1//EN" "http://www.w3.org/Graphics/SVG/1.1/DTD/svg11.dtd">
<svg version="1.1" id="Capa_1" xmlns="http://www.w3.org/2000/svg" xmlns:xlink="http://www.w3.org/1999/xlink" x="0px" y="0px"
	 viewBox="0 0 228.092 228.092" style="enable-background:new 0 0 228.092 228.092;" xml:space="preserve">
<path d="M228.089,7.51V7.501c0.001-4.142-3.357-7.5-7.499-7.501h-0.001c-0.065,0-0.128,0.008-0.193,0.01h-43.938
	c-4.142,0-7.5,3.358-7.5,7.5s3.358,7.5,7.5,7.5h26.021l-44.507,44.505c-17.326-14.849-39.142-22.949-62.204-22.949
	c-25.582,0-49.631,9.963-67.715,28.053c-18.088,18.082-28.05,42.127-28.05,67.706c0,25.578,9.961,49.626,28.048,67.715
	c18.085,18.09,42.133,28.053,67.713,28.053c25.58,0,49.629-9.963,67.716-28.053c18.085-18.085,28.046-42.133,28.047-67.712
	c0.002-23.065-8.099-44.882-22.949-62.206l44.508-44.507l-0.002,26.024c-0.001,4.142,3.357,7.5,7.499,7.5h0.001
	c4.142,0,7.499-3.357,7.5-7.5L228.089,7.51L228.089,7.51L228.089,7.51z M152.874,189.434
	c-15.254,15.256-35.536,23.659-57.109,23.659c-21.573,0-41.853-8.402-57.106-23.659c-15.255-15.256-23.656-35.538-23.656-57.109
	c0-21.571,8.4-41.849,23.656-57.099c15.252-15.257,35.534-23.66,57.108-23.66c21.572,0,41.853,8.4,57.107,23.654
	c15.255,15.251,23.655,35.531,23.653,57.107C176.527,153.899,168.126,174.181,152.874,189.434z"/>
<g>
</g>
<g>
</g>
<g>
</g>
<g>
</g>
<g>
</g>
<g>
</g>
<g>
</g>
<g>
</g>
<g>
</g>
<g>
</g>
<g>
</g>
<g>
</g>
<g>
</g>
<g>
</g>
<g>
</g>
</svg>
