<?xml version="1.0" encoding="iso-8859-1"?>
<!-- Generator: Adobe Illustrator 18.0.0, SVG Export Plug-In . SVG Version: 6.00 Build 0)  -->
<!DOCTYPE svg PUBLIC "-//W3C//DTD SVG 1.1//EN" "http://www.w3.org/Graphics/SVG/1.1/DTD/svg11.dtd">
<svg version="1.1" id="Capa_1" xmlns="http://www.w3.org/2000/svg" xmlns:xlink="http://www.w3.org/1999/xlink" x="0px" y="0px"
	 viewBox="0 0 235.434 235.434" style="enable-background:new 0 0 235.434 235.434;" xml:space="preserve">
<path d="M232.226,24.591c-2.009-1.401-4.576-1.735-6.878-0.89l-70.894,26.045L83.561,23.701c-1.67-0.613-3.503-0.613-5.173,0
	L4.914,50.696C1.962,51.781,0,54.592,0,57.736v146.956c0,2.451,1.198,4.747,3.207,6.15c1.276,0.891,2.778,1.35,4.293,1.35
	c0.871,0,1.747-0.151,2.586-0.46l70.888-26.045l70.892,26.045c1.669,0.613,3.502,0.613,5.173,0l73.48-26.995
	c2.952-1.085,4.914-3.895,4.914-7.04V30.741C235.434,28.29,234.236,25.994,232.226,24.591z M88.475,41.486l58.478,21.484v130.977
	l-58.478-21.484V41.486z M15,62.971l58.475-21.484v130.977L15,193.946V62.971z M220.434,172.463l-58.48,21.484V62.971l58.48-21.484
	V172.463z"/>
<g>
</g>
<g>
</g>
<g>
</g>
<g>
</g>
<g>
</g>
<g>
</g>
<g>
</g>
<g>
</g>
<g>
</g>
<g>
</g>
<g>
</g>
<g>
</g>
<g>
</g>
<g>
</g>
<g>
</g>
</svg>
