<?xml version="1.0" encoding="iso-8859-1"?>
<!-- Generator: Adobe Illustrator 18.0.0, SVG Export Plug-In . SVG Version: 6.00 Build 0)  -->
<!DOCTYPE svg PUBLIC "-//W3C//DTD SVG 1.1//EN" "http://www.w3.org/Graphics/SVG/1.1/DTD/svg11.dtd">
<svg version="1.1" id="Capa_1" xmlns="http://www.w3.org/2000/svg" xmlns:xlink="http://www.w3.org/1999/xlink" x="0px" y="0px"
	 viewBox="0 0 226.661 226.661" style="enable-background:new 0 0 226.661 226.661;" xml:space="preserve">
<g>
	<path d="M132.737,109.344l27.551-19.002c2.03-1.4,3.242-3.708,3.242-6.174V7.5c0-4.142-3.357-7.5-7.5-7.5H70.647
		c-4.143,0-7.5,3.358-7.5,7.5v76.669c0,2.465,1.212,4.773,3.24,6.173l27.539,19.001c-23.738,8.101-40.865,30.613-40.865,57.067
		c0,33.223,27.037,60.251,60.269,60.251s60.27-27.028,60.27-60.251C173.6,139.958,156.474,117.446,132.737,109.344z
		 M113.332,104.508l-9.583-6.612V15h19.177v82.891L113.332,104.508z M148.53,80.231l-10.605,7.314V15h10.605V80.231z M78.147,15
		h10.602v72.546l-10.602-7.314V15z M113.331,211.661c-24.962,0-45.27-20.299-45.27-45.251c0-24.973,20.308-45.291,45.27-45.291
		s45.27,20.318,45.27,45.291C158.6,191.362,138.292,211.661,113.331,211.661z"/>
	<path d="M113.331,129.216c-20.499,0-37.176,16.686-37.176,37.194c0,20.489,16.677,37.157,37.176,37.157
		c20.508,0,37.192-16.668,37.192-37.157C150.523,145.901,133.838,129.216,113.331,129.216z M113.331,188.567
		c-12.227,0-22.176-9.939-22.176-22.157c0-12.238,9.948-22.194,22.176-22.194c12.237,0,22.192,9.956,22.192,22.194
		C135.523,178.628,125.568,188.567,113.331,188.567z"/>
</g>
<g>
</g>
<g>
</g>
<g>
</g>
<g>
</g>
<g>
</g>
<g>
</g>
<g>
</g>
<g>
</g>
<g>
</g>
<g>
</g>
<g>
</g>
<g>
</g>
<g>
</g>
<g>
</g>
<g>
</g>
</svg>
