<?xml version="1.0" encoding="iso-8859-1"?>
<!-- Generator: Adobe Illustrator 18.0.0, SVG Export Plug-In . SVG Version: 6.00 Build 0)  -->
<!DOCTYPE svg PUBLIC "-//W3C//DTD SVG 1.1//EN" "http://www.w3.org/Graphics/SVG/1.1/DTD/svg11.dtd">
<svg version="1.1" id="Capa_1" xmlns="http://www.w3.org/2000/svg" xmlns:xlink="http://www.w3.org/1999/xlink" x="0px" y="0px"
	 viewBox="0 0 228.08 228.08" style="enable-background:new 0 0 228.08 228.08;" xml:space="preserve">
<path d="M219.524,0H80.271c-4.142,0-7.5,3.358-7.5,7.5v69.65v64.222H44.418c-23.91,0-43.362,19.446-43.362,43.348
	c0,23.909,19.452,43.36,43.362,43.36c23.905,0,43.354-19.451,43.354-43.36V84.65h124.253v56.722h-28.343
	c-23.908,0-43.359,19.446-43.359,43.348c0,23.909,19.451,43.36,43.359,43.36c23.899,0,43.343-19.451,43.343-43.36V77.15V7.5
	C227.024,3.358,223.666,0,219.524,0z M44.418,213.08c-15.639,0-28.362-12.722-28.362-28.36c0-15.631,12.723-28.348,28.362-28.348
	h28.354v28.348C72.771,200.358,60.052,213.08,44.418,213.08z M87.771,15h124.253v54.65H87.771V15z M183.682,213.08
	c-15.637,0-28.359-12.722-28.359-28.36c0-15.631,12.722-28.348,28.359-28.348h28.343v28.348
	C212.024,200.358,199.31,213.08,183.682,213.08z"/>
<g>
</g>
<g>
</g>
<g>
</g>
<g>
</g>
<g>
</g>
<g>
</g>
<g>
</g>
<g>
</g>
<g>
</g>
<g>
</g>
<g>
</g>
<g>
</g>
<g>
</g>
<g>
</g>
<g>
</g>
</svg>
