<?xml version="1.0" encoding="iso-8859-1"?>
<!-- Generator: Adobe Illustrator 18.0.0, SVG Export Plug-In . SVG Version: 6.00 Build 0)  -->
<!DOCTYPE svg PUBLIC "-//W3C//DTD SVG 1.1//EN" "http://www.w3.org/Graphics/SVG/1.1/DTD/svg11.dtd">
<svg version="1.1" id="Capa_1" xmlns="http://www.w3.org/2000/svg" xmlns:xlink="http://www.w3.org/1999/xlink" x="0px" y="0px"
	 viewBox="0 0 229.238 229.238" style="enable-background:new 0 0 229.238 229.238;" xml:space="preserve">
<path d="M220.228,172.242c-20.606-17.82-39.675-42.962-39.675-105.734c0-36.353-29.576-65.928-65.93-65.928
	c-36.359,0-65.939,29.575-65.939,65.928c0,62.829-19.062,87.946-39.686,105.751C3.28,177.239,0,184.411,0,191.937
	c0,4.142,3.358,7.5,7.5,7.5h71.175c3.472,16.663,18.268,29.222,35.944,29.222s32.473-12.558,35.944-29.222h71.175
	c4.142,0,7.5-3.358,7.5-7.5C229.238,184.35,225.95,177.167,220.228,172.242z M114.619,213.659c-9.34,0-17.321-5.929-20.381-14.222
	H135C131.94,207.73,123.959,213.659,114.619,213.659z M17.954,184.437c0.273-0.296,0.564-0.578,0.871-0.845
	c31.443-27.146,44.858-62.162,44.858-117.084c0-28.082,22.852-50.928,50.939-50.928c28.083,0,50.93,22.846,50.93,50.928
	c0,54.872,13.417,89.887,44.876,117.091c0.307,0.265,0.598,0.544,0.872,0.838H17.954z"/>
<g>
</g>
<g>
</g>
<g>
</g>
<g>
</g>
<g>
</g>
<g>
</g>
<g>
</g>
<g>
</g>
<g>
</g>
<g>
</g>
<g>
</g>
<g>
</g>
<g>
</g>
<g>
</g>
<g>
</g>
</svg>
