<?xml version="1.0" encoding="iso-8859-1"?>
<!-- Generator: Adobe Illustrator 18.0.0, SVG Export Plug-In . SVG Version: 6.00 Build 0)  -->
<!DOCTYPE svg PUBLIC "-//W3C//DTD SVG 1.1//EN" "http://www.w3.org/Graphics/SVG/1.1/DTD/svg11.dtd">
<svg version="1.1" id="Capa_1" xmlns="http://www.w3.org/2000/svg" xmlns:xlink="http://www.w3.org/1999/xlink" x="0px" y="0px"
	 viewBox="0 0 193.099 193.099" style="enable-background:new 0 0 193.099 193.099;" xml:space="preserve">
<path d="M191.425,79.629c-2.608-3.216-7.328-3.713-10.549-1.104l-33.018,26.762l-4.509-4.509c-0.002-0.002-0.003-0.004-0.003-0.004
	L92.325,49.753v-0.001l-4.514-4.513l26.762-33.017c2.608-3.218,2.114-7.941-1.104-10.549c-3.218-2.606-7.941-2.113-10.549,1.104
	L71.904,41.044c-2.418,2.983-2.192,7.31,0.522,10.026l2.338,2.338l-52.61,29.972c-1.904,1.085-3.239,2.95-3.652,5.103L0.135,184.184
	c-0.469,2.442,0.304,4.959,2.062,6.718c1.42,1.419,3.334,2.196,5.304,2.196c0.47,0,0.943-0.044,1.413-0.135l95.703-18.366
	c2.153-0.413,4.019-1.748,5.104-3.653l29.971-52.61l2.338,2.339c1.457,1.456,3.378,2.196,5.306,2.196
	c1.666,0,3.338-0.553,4.721-1.674l38.267-31.017C193.539,87.57,194.033,82.847,191.425,79.629z M98.396,160.517l-68.252,13.099
	l45.688-45.539c2.489,1.071,5.19,1.644,7.981,1.644c5.399,0,10.477-2.104,14.295-5.921c7.879-7.88,7.879-20.703-0.001-28.589
	c-3.818-3.818-8.896-5.921-14.295-5.921s-10.476,2.103-14.294,5.92c-3.818,3.819-5.921,8.896-5.921,14.296
	c0,2.783,0.568,5.477,1.634,7.96L19.456,163.09l13.126-68.388l53.181-30.296l42.93,42.929L98.396,160.517z M80.125,113.192
	c-0.985-0.985-1.527-2.294-1.527-3.688c0-1.393,0.543-2.702,1.528-3.688c0.984-0.985,2.293-1.527,3.687-1.527
	c1.393,0,2.703,0.543,3.687,1.526c2.033,2.035,2.035,5.344,0.002,7.376c-0.984,0.985-2.294,1.528-3.688,1.528
	C82.421,114.72,81.11,114.177,80.125,113.192z"/>
<g>
</g>
<g>
</g>
<g>
</g>
<g>
</g>
<g>
</g>
<g>
</g>
<g>
</g>
<g>
</g>
<g>
</g>
<g>
</g>
<g>
</g>
<g>
</g>
<g>
</g>
<g>
</g>
<g>
</g>
</svg>
