<?xml version="1.0" encoding="iso-8859-1"?>
<!-- Generator: Adobe Illustrator 18.0.0, SVG Export Plug-In . SVG Version: 6.00 Build 0)  -->
<!DOCTYPE svg PUBLIC "-//W3C//DTD SVG 1.1//EN" "http://www.w3.org/Graphics/SVG/1.1/DTD/svg11.dtd">
<svg version="1.1" id="Capa_1" xmlns="http://www.w3.org/2000/svg" xmlns:xlink="http://www.w3.org/1999/xlink" x="0px" y="0px"
	 viewBox="0 0 235.592 235.592" style="enable-background:new 0 0 235.592 235.592;" xml:space="preserve">
<g>
	<path d="M117.795,0.002C52.843,0.002,0,52.844,0,117.795C0,182.747,52.843,235.59,117.795,235.59
		c64.954,0,117.797-52.843,117.797-117.795C235.592,52.844,182.749,0.002,117.795,0.002z M117.795,220.59
		C61.114,220.59,15,174.477,15,117.795C15,61.114,61.114,15.002,117.795,15.002c56.683,0,102.797,46.112,102.797,102.793
		C220.592,174.477,174.477,220.59,117.795,220.59z"/>
	<path d="M173.699,111.226L88.902,64.519c-2.325-1.28-5.15-1.238-7.435,0.113c-2.284,1.349-3.685,3.804-3.685,6.457v93.417
		c0,2.652,1.401,5.107,3.685,6.458c1.175,0.693,2.495,1.042,3.815,1.042c1.245,0,2.491-0.31,3.619-0.931l84.796-46.711
		c2.395-1.319,3.881-3.836,3.881-6.569S176.093,112.544,173.699,111.226z M92.783,151.811v-68.03l61.752,34.014L92.783,151.811z"/>
</g>
<g>
</g>
<g>
</g>
<g>
</g>
<g>
</g>
<g>
</g>
<g>
</g>
<g>
</g>
<g>
</g>
<g>
</g>
<g>
</g>
<g>
</g>
<g>
</g>
<g>
</g>
<g>
</g>
<g>
</g>
</svg>
