<?xml version="1.0" encoding="iso-8859-1"?>
<!-- Generator: Adobe Illustrator 18.0.0, SVG Export Plug-In . SVG Version: 6.00 Build 0)  -->
<!DOCTYPE svg PUBLIC "-//W3C//DTD SVG 1.1//EN" "http://www.w3.org/Graphics/SVG/1.1/DTD/svg11.dtd">
<svg version="1.1" id="Capa_1" xmlns="http://www.w3.org/2000/svg" xmlns:xlink="http://www.w3.org/1999/xlink" x="0px" y="0px"
	 viewBox="0 0 216.051 216.051" style="enable-background:new 0 0 216.051 216.051;" xml:space="preserve">
<path d="M158.288,50.264h-17.631V7.5c0-4.143-3.357-7.5-7.5-7.5c-4.143,0-7.5,3.357-7.5,7.5v42.764H90.393V7.5
	c0-4.143-3.356-7.5-7.5-7.5c-4.142,0-7.5,3.357-7.5,7.5v42.764h-17.63c-4.143,0-7.5,3.357-7.5,7.5v50.262
	c0,29.307,21.946,53.568,50.265,57.259v43.267c0,4.143,3.356,7.5,7.5,7.5c4.142,0,7.5-3.357,7.5-7.5v-43.267
	c28.316-3.69,50.261-27.952,50.261-57.259V57.764C165.788,53.621,162.431,50.264,158.288,50.264z M150.788,108.025
	c0,23.579-19.183,42.762-42.761,42.762c-23.581,0-42.765-19.183-42.765-42.762V65.264h85.525V108.025z"/>
<g>
</g>
<g>
</g>
<g>
</g>
<g>
</g>
<g>
</g>
<g>
</g>
<g>
</g>
<g>
</g>
<g>
</g>
<g>
</g>
<g>
</g>
<g>
</g>
<g>
</g>
<g>
</g>
<g>
</g>
</svg>
