<?xml version="1.0" encoding="iso-8859-1"?>
<!-- Generator: Adobe Illustrator 18.0.0, SVG Export Plug-In . SVG Version: 6.00 Build 0)  -->
<!DOCTYPE svg PUBLIC "-//W3C//DTD SVG 1.1//EN" "http://www.w3.org/Graphics/SVG/1.1/DTD/svg11.dtd">
<svg version="1.1" id="Capa_1" xmlns="http://www.w3.org/2000/svg" xmlns:xlink="http://www.w3.org/1999/xlink" x="0px" y="0px"
	 viewBox="0 0 216.832 216.832" style="enable-background:new 0 0 216.832 216.832;" xml:space="preserve">
<g>
	<path d="M189.151,0H27.681c-4.142,0-7.5,3.357-7.5,7.5v121.105c0.004,48.884,81.696,86.017,85.174,87.573
		c0.975,0.436,2.019,0.654,3.064,0.654c1.045,0,2.09-0.218,3.063-0.654c3.479-1.557,85.168-38.689,85.168-87.574V7.5
		C196.651,3.357,193.294,0,189.151,0z M181.651,128.604c0,31.067-50.225,61.495-73.231,72.464
		c-23.007-10.969-73.235-41.396-73.238-72.464V15h146.47V128.604z"/>
	<path d="M80.181,165.469c9.133,6.669,18.473,12.042,24.699,15.374c1.104,0.592,2.321,0.888,3.539,0.888
		c1.218,0,2.436-0.296,3.541-0.889c6.227-3.335,15.564-8.709,24.699-15.373c11.082-8.094,29.674-23.927,29.674-39.03V37.002
		c0-4.142-3.357-7.5-7.5-7.5H58.005c-4.143,0-7.5,3.358-7.5,7.5v89.437C50.505,141.547,69.098,157.378,80.181,165.469z
		 M65.505,44.502h85.828v81.937c0,3.368-4.916,13.329-23.519,26.915c-6.858,5.004-13.888,9.244-19.396,12.327
		c-5.509-3.08-12.535-7.318-19.392-12.326c-18.605-13.583-23.521-23.546-23.521-26.916V44.502z"/>
</g>
<g>
</g>
<g>
</g>
<g>
</g>
<g>
</g>
<g>
</g>
<g>
</g>
<g>
</g>
<g>
</g>
<g>
</g>
<g>
</g>
<g>
</g>
<g>
</g>
<g>
</g>
<g>
</g>
<g>
</g>
</svg>
