<?xml version="1.0" encoding="iso-8859-1"?>
<!-- Generator: Adobe Illustrator 18.0.0, SVG Export Plug-In . SVG Version: 6.00 Build 0)  -->
<!DOCTYPE svg PUBLIC "-//W3C//DTD SVG 1.1//EN" "http://www.w3.org/Graphics/SVG/1.1/DTD/svg11.dtd">
<svg version="1.1" id="Capa_1" xmlns="http://www.w3.org/2000/svg" xmlns:xlink="http://www.w3.org/1999/xlink" x="0px" y="0px"
	 viewBox="0 0 244.4 244.4" style="enable-background:new 0 0 244.4 244.4;" xml:space="preserve">
<g>
	<path d="M105.689,207.258l-85.198-0.001l34.052-58.978l0.282,1.051c0.899,3.349,3.929,5.556,7.238,5.556
		c0.644,0,1.299-0.083,1.95-0.259c4.001-1.075,6.372-5.189,5.298-9.189l-4.976-18.52c0-0.001,0-0.002,0-0.003
		c-0.097-0.36-0.227-0.702-0.37-1.035c-1.415-3.268-4.98-5.128-8.521-4.326c-0.1,0.022-0.199,0.038-0.299,0.064l-18.518,4.977
		c-4,1.075-6.372,5.189-5.297,9.189c0.9,3.349,3.929,5.556,7.238,5.556c0.645,0,1.3-0.084,1.951-0.259l1.014-0.273L1.005,211.006
		c-1.34,2.32-1.34,5.179,0,7.5c1.34,2.32,3.815,3.75,6.495,3.75l98.188,0.002c4.142,0,7.5-3.358,7.5-7.5
		C113.189,210.616,109.831,207.258,105.689,207.258z"/>
	<path d="M243.396,211.004l-49.1-85.035c-2.072-3.587-6.659-4.815-10.245-2.745c-3.587,2.071-4.816,6.658-2.745,10.246
		l42.604,73.785l-69.11,0.001l0.77-0.772c2.926-2.932,2.921-7.681-0.011-10.606c-2.932-2.927-7.681-2.921-10.606,0.011
		l-13.543,13.57c-2.925,2.931-2.921,7.678,0.009,10.605l13.567,13.551c1.464,1.462,3.382,2.193,5.3,2.193
		c1.921,0,3.842-0.733,5.307-2.2c2.927-2.931,2.924-7.68-0.007-10.607l-0.745-0.744l82.061-0.001c2.68,0,5.155-1.43,6.495-3.75
		C244.735,216.184,244.735,213.325,243.396,211.004z"/>
	<path d="M155.201,89.787c-3.997-1.067-8.112,1.307-9.183,5.309c-1.069,4.002,1.308,8.113,5.309,9.182l18.53,4.952
		c0,0,0.001,0,0.001,0h0.001c0.647,0.173,1.299,0.256,1.939,0.256c3.314,0,6.345-2.212,7.241-5.565
		c0.001-0.002,0.001-0.005,0.001-0.007l4.946-18.521c1.068-4.002-1.31-8.112-5.312-9.181c-3.996-1.07-8.112,1.31-9.181,5.311
		l-0.27,1.014l-40.532-70.193c-1.34-2.32-3.816-3.749-6.495-3.749c-2.68,0-5.155,1.43-6.495,3.75L66.614,97.368
		c-2.071,3.587-0.842,8.174,2.745,10.245c3.587,2.072,8.175,0.842,10.245-2.745l42.594-73.775l34.055,58.975L155.201,89.787z"/>
</g>
<g>
</g>
<g>
</g>
<g>
</g>
<g>
</g>
<g>
</g>
<g>
</g>
<g>
</g>
<g>
</g>
<g>
</g>
<g>
</g>
<g>
</g>
<g>
</g>
<g>
</g>
<g>
</g>
<g>
</g>
</svg>
