<?xml version="1.0" encoding="iso-8859-1"?>
<!-- Generator: Adobe Illustrator 18.0.0, SVG Export Plug-In . SVG Version: 6.00 Build 0)  -->
<!DOCTYPE svg PUBLIC "-//W3C//DTD SVG 1.1//EN" "http://www.w3.org/Graphics/SVG/1.1/DTD/svg11.dtd">
<svg version="1.1" id="Capa_1" xmlns="http://www.w3.org/2000/svg" xmlns:xlink="http://www.w3.org/1999/xlink" x="0px" y="0px"
	 viewBox="0 0 233.183 233.183" style="enable-background:new 0 0 233.183 233.183;" xml:space="preserve">
<g>
	<path d="M91.206,87.356c6.228-8.405,9.919-18.798,9.919-30.039c0-27.881-22.68-50.564-50.557-50.564
		C22.685,6.753,0,29.437,0,57.317c0,27.88,22.685,50.563,50.568,50.563c11.237,0,21.628-3.69,30.031-9.917l21.621,21.619
		c1.465,1.464,3.384,2.196,5.303,2.196c1.92,0,3.839-0.732,5.304-2.197c2.929-2.929,2.928-7.678-0.001-10.606L91.206,87.356z
		 M15,57.317c0-19.61,15.956-35.564,35.568-35.564c19.606,0,35.557,15.954,35.557,35.564c0,19.609-15.951,35.563-35.557,35.563
		C30.956,92.88,15,76.927,15,57.317z"/>
	<path d="M176.455,89.521c22.484,0,40.777-18.291,40.777-40.773c0-22.488-18.292-40.783-40.777-40.783
		c-22.486,0-40.78,18.295-40.78,40.783C135.674,71.23,153.968,89.521,176.455,89.521z M176.455,22.965
		c14.213,0,25.777,11.566,25.777,25.783c0,14.212-11.563,25.773-25.777,25.773c-14.215,0-25.78-11.561-25.78-25.773
		C150.674,34.531,162.239,22.965,176.455,22.965z"/>
	<path d="M193.473,106.809H159.71c-21.895,0-39.709,17.815-39.709,39.713v72.408c0,4.143,3.358,7.5,7.5,7.5s7.5-3.357,7.5-7.5
		v-72.408c0-13.627,11.084-24.713,24.709-24.713h33.763c13.625,0,24.71,11.086,24.71,24.713v72.408c0,4.143,3.358,7.5,7.5,7.5
		s7.5-3.357,7.5-7.5v-72.408C233.183,124.624,215.369,106.809,193.473,106.809z"/>
</g>
<g>
</g>
<g>
</g>
<g>
</g>
<g>
</g>
<g>
</g>
<g>
</g>
<g>
</g>
<g>
</g>
<g>
</g>
<g>
</g>
<g>
</g>
<g>
</g>
<g>
</g>
<g>
</g>
<g>
</g>
</svg>
