<?xml version="1.0" encoding="iso-8859-1"?>
<!-- Generator: Adobe Illustrator 18.0.0, SVG Export Plug-In . SVG Version: 6.00 Build 0)  -->
<!DOCTYPE svg PUBLIC "-//W3C//DTD SVG 1.1//EN" "http://www.w3.org/Graphics/SVG/1.1/DTD/svg11.dtd">
<svg version="1.1" id="Capa_1" xmlns="http://www.w3.org/2000/svg" xmlns:xlink="http://www.w3.org/1999/xlink" x="0px" y="0px"
	 viewBox="0 0 218.326 218.326" style="enable-background:new 0 0 218.326 218.326;" xml:space="preserve">
<g>
	<path d="M193.536,54.143L141.59,2.196C140.183,0.79,138.275,0,136.286,0H30.094c-4.143,0-7.5,3.357-7.5,7.5v203.326
		c0,4.143,3.357,7.5,7.5,7.5h158.139c4.143,0,7.5-3.357,7.5-7.5V59.446C195.732,57.457,194.942,55.55,193.536,54.143z
		 M143.786,25.607L170.13,51.95h-26.344V25.607z M37.594,203.326V15h91.192v44.45c0,4.143,3.357,7.5,7.5,7.5h44.446v121.949
		c-0.362-0.805-0.866-1.561-1.527-2.222l-25.2-25.199c1.227-1.604,2.379-3.268,3.432-5.001h1.042c4.143,0,7.5-3.357,7.5-7.5
		c0-2.311-1.046-4.374-2.688-5.75c1.499-5.068,2.317-10.428,2.317-15.977c0-8.605-1.942-16.762-5.399-24.068
		c3.307-0.782,5.77-3.745,5.77-7.291c0-4.143-3.357-7.5-7.5-7.5h-8.426c-8.171-8.598-19.009-14.625-31.178-16.745
		c1.137-1.315,1.829-3.024,1.829-4.899c0-4.143-3.357-7.5-7.5-7.5h-53.36c-4.143,0-7.5,3.357-7.5,7.5s3.357,7.5,7.5,7.5h29.874
		c-8.215,3.023-15.527,7.916-21.447,14.145h-8.427c-4.143,0-7.5,3.357-7.5,7.5c0,3.546,2.463,6.509,5.769,7.291
		c-3.457,7.307-5.399,15.463-5.399,24.068c0,5.549,0.818,10.908,2.317,15.978c-1.641,1.376-2.687,3.439-2.687,5.749
		c0,4.143,3.357,7.5,7.5,7.5h1.042c2.941,4.84,6.598,9.196,10.809,12.941H59.844c-4.143,0-7.5,3.357-7.5,7.5
		c0,4.142,3.357,7.5,7.5,7.5h95.889l12.867,12.866c1.464,1.464,3.384,2.196,5.303,2.196c1.919,0,3.839-0.733,5.304-2.197
		c0.66-0.66,1.164-1.416,1.526-2.221v8.263H37.594z M150.608,127.251c0,22.852-18.592,41.443-41.443,41.443
		c-22.856,0-41.452-18.592-41.452-41.443c0-22.86,18.596-41.458,41.452-41.458C132.017,85.793,150.608,104.391,150.608,127.251z"/>
	<path d="M59.844,50.302h53.36c4.143,0,7.5-3.357,7.5-7.5s-3.357-7.5-7.5-7.5h-53.36c-4.143,0-7.5,3.357-7.5,7.5
		S55.701,50.302,59.844,50.302z"/>
</g>
<g>
</g>
<g>
</g>
<g>
</g>
<g>
</g>
<g>
</g>
<g>
</g>
<g>
</g>
<g>
</g>
<g>
</g>
<g>
</g>
<g>
</g>
<g>
</g>
<g>
</g>
<g>
</g>
<g>
</g>
</svg>
