<?xml version="1.0" encoding="iso-8859-1"?>
<!-- Generator: Adobe Illustrator 18.0.0, SVG Export Plug-In . SVG Version: 6.00 Build 0)  -->
<!DOCTYPE svg PUBLIC "-//W3C//DTD SVG 1.1//EN" "http://www.w3.org/Graphics/SVG/1.1/DTD/svg11.dtd">
<svg version="1.1" id="Capa_1" xmlns="http://www.w3.org/2000/svg" xmlns:xlink="http://www.w3.org/1999/xlink" x="0px" y="0px"
	 viewBox="0 0 235.592 235.592" style="enable-background:new 0 0 235.592 235.592;" xml:space="preserve">
<g>
	<path d="M117.798,0.002C52.844,0.002,0,52.844,0,117.795C0,182.747,52.844,235.59,117.798,235.59
		c64.951,0,117.794-52.843,117.794-117.795C235.592,52.844,182.749,0.002,117.798,0.002z M117.798,220.59
		C61.114,220.59,15,174.477,15,117.795C15,61.114,61.114,15.002,117.798,15.002c56.68,0,102.794,46.112,102.794,102.793
		C220.592,174.477,174.477,220.59,117.798,220.59z"/>
	<path d="M168.805,64.431c-2.485-1.292-5.48-1.089-7.771,0.522l-36.919,25.979V71.087c0-2.8-1.56-5.366-4.045-6.656
		c-2.486-1.292-5.48-1.089-7.771,0.522L45.926,111.66c-1.997,1.405-3.184,3.693-3.184,6.134c0,2.44,1.187,4.729,3.184,6.134
		l66.372,46.711c1.288,0.906,2.799,1.366,4.316,1.366c1.182,0,2.367-0.278,3.455-0.844c2.485-1.289,4.045-3.856,4.045-6.656v-19.849
		l36.919,25.982c1.288,0.906,2.798,1.366,4.317,1.366c1.18,0,2.366-0.279,3.454-0.844c2.485-1.289,4.045-3.856,4.045-6.656V71.087
		C172.85,68.287,171.29,65.721,168.805,64.431z M109.114,150.056l-45.84-32.262l45.84-32.258v15.953L94.66,111.66
		c-1.997,1.405-3.184,3.693-3.184,6.134c0,2.44,1.187,4.729,3.184,6.134l14.454,10.173V150.056z M157.85,150.056l-45.841-32.262
		l45.841-32.259V150.056z"/>
</g>
<g>
</g>
<g>
</g>
<g>
</g>
<g>
</g>
<g>
</g>
<g>
</g>
<g>
</g>
<g>
</g>
<g>
</g>
<g>
</g>
<g>
</g>
<g>
</g>
<g>
</g>
<g>
</g>
<g>
</g>
</svg>
