<?xml version="1.0" encoding="iso-8859-1"?>
<!-- Generator: Adobe Illustrator 18.0.0, SVG Export Plug-In . SVG Version: 6.00 Build 0)  -->
<!DOCTYPE svg PUBLIC "-//W3C//DTD SVG 1.1//EN" "http://www.w3.org/Graphics/SVG/1.1/DTD/svg11.dtd">
<svg version="1.1" id="Capa_1" xmlns="http://www.w3.org/2000/svg" xmlns:xlink="http://www.w3.org/1999/xlink" x="0px" y="0px"
	 viewBox="0 0 231.949 231.949" style="enable-background:new 0 0 231.949 231.949;" xml:space="preserve">
<path d="M224.449,103.627h-17.035c-6.539-15.142-17.662-27.717-31.938-36.092l-0.068-26.138c-0.007-2.648-1.41-5.096-3.69-6.441
	c-2.282-1.346-5.103-1.388-7.422-0.112l-19.739,10.849c-2.838-24.204-23.461-43.049-48.414-43.049
	c-26.888,0-48.764,21.874-48.764,48.76c0,3.798,0.451,7.49,1.276,11.041C19.667,74.123,0,102.698,0,134.425
	c0,25.164,12.009,48.415,32.33,63.001v24.379c0,4.142,3.358,7.5,7.5,7.5h37.73c4.14,0,7.497-3.355,7.5-7.495l0.007-9.814h43.613
	l-0.036,9.782c-0.007,1.994,0.779,3.909,2.186,5.321c1.408,1.413,3.319,2.207,5.314,2.207h35.494c4.142,0,7.5-3.358,7.5-7.5v-22.777
	c15.639-10.406,26.948-26.07,31.873-44.074h13.438c4.142,0,7.5-3.358,7.5-7.5v-36.327
	C231.949,106.984,228.591,103.627,224.449,103.627z M96.143,17.644c18.615,0,33.76,15.145,33.76,33.76
	c0,1.924-0.171,3.808-0.481,5.645c-0.016,0.076-0.028,0.153-0.042,0.23c-2.79,15.822-16.627,27.885-33.237,27.885
	c-18.617,0-33.764-15.145-33.764-33.76C62.379,32.789,77.525,17.644,96.143,17.644z M216.949,139.954h-11.9
	c-3.608,0-6.705,2.569-7.371,6.115c-3.329,17.721-14.205,33.154-29.839,42.343c-2.292,1.347-3.7,3.807-3.7,6.466v19.428h-20.466
	l0.037-9.782c0.007-1.994-0.779-3.909-2.187-5.321c-1.408-1.413-3.319-2.206-5.313-2.206H77.572c-4.14,0-7.497,3.355-7.5,7.495
	l-0.007,9.814H47.33v-20.851c0-2.556-1.302-4.936-3.453-6.314C25.795,175.552,15,155.846,15,134.425
	c0-25.604,15.873-48.661,39.266-58.075c1.91,3.193,4.178,6.146,6.742,8.813h-6.129c-4.142,0-7.5,3.357-7.5,7.5
	c0,4.142,3.358,7.5,7.5,7.5h82.523c4.142,0,7.5-3.358,7.5-7.5c0-4.143-3.358-7.5-7.5-7.5h-6.128
	c5.754-5.986,10.005-13.425,12.119-21.715l17.048-9.37l0.047,17.921c0.007,2.812,1.587,5.384,4.092,6.662
	c14.405,7.348,25.289,19.763,30.647,34.958c1.058,3,3.893,5.006,7.073,5.006h14.648V139.954z"/>
<g>
</g>
<g>
</g>
<g>
</g>
<g>
</g>
<g>
</g>
<g>
</g>
<g>
</g>
<g>
</g>
<g>
</g>
<g>
</g>
<g>
</g>
<g>
</g>
<g>
</g>
<g>
</g>
<g>
</g>
</svg>
