<?xml version="1.0" encoding="iso-8859-1"?>
<!-- Generator: Adobe Illustrator 18.0.0, SVG Export Plug-In . SVG Version: 6.00 Build 0)  -->
<!DOCTYPE svg PUBLIC "-//W3C//DTD SVG 1.1//EN" "http://www.w3.org/Graphics/SVG/1.1/DTD/svg11.dtd">
<svg version="1.1" id="Capa_1" xmlns="http://www.w3.org/2000/svg" xmlns:xlink="http://www.w3.org/1999/xlink" x="0px" y="0px"
	 viewBox="0 0 184.129 184.129" style="enable-background:new 0 0 184.129 184.129;" xml:space="preserve">
<path d="M184.127,106.556c0-3.033-1.827-5.769-4.63-6.929c-2.804-1.163-6.028-0.519-8.174,1.625l-29.732,29.73l-38.92-38.92
	l38.918-38.917l29.733,29.733c1.436,1.435,3.354,2.196,5.306,2.196c0.966,0,1.94-0.187,2.868-0.571
	c2.803-1.16,4.63-3.896,4.63-6.929V7.502c0-4.143-3.357-7.5-7.5-7.5h-70.072c-3.033,0-5.769,1.827-6.929,4.63
	c-1.161,2.803-0.52,6.028,1.625,8.174l29.731,29.732L92.064,81.455L53.146,42.537l29.732-29.732
	c2.145-2.146,2.786-5.371,1.625-8.174c-1.16-2.803-3.896-4.63-6.929-4.63L7.5,0C5.511,0,3.604,0.79,2.196,2.196
	C0.79,3.604,0,5.511,0,7.5v70.074c0,3.033,1.827,5.768,4.63,6.929c0.928,0.385,1.902,0.571,2.868,0.571
	c1.952,0,3.87-0.762,5.305-2.196l29.735-29.733l38.919,38.918l-38.922,38.922l-29.731-29.732c-2.146-2.146-5.372-2.789-8.174-1.625
	c-2.803,1.16-4.63,3.896-4.63,6.929v70.073c0,1.989,0.79,3.896,2.196,5.304c1.407,1.406,3.314,2.196,5.304,2.196l70.072-0.001
	c3.033,0,5.769-1.827,6.929-4.63c1.161-2.803,0.52-6.028-1.625-8.174l-29.733-29.732l38.922-38.922l38.92,38.92l-29.733,29.734
	c-2.145,2.146-2.786,5.371-1.625,8.174c1.16,2.803,3.896,4.63,6.929,4.63h70.074c1.989,0,3.896-0.79,5.304-2.196
	c1.406-1.407,2.196-3.314,2.196-5.304L184.127,106.556z M169.127,15.002v44.467l-44.466-44.467H169.127z M15,15l44.468,0.001
	L15,59.468V15z M15,169.129v-44.467l44.466,44.466L15,169.129z M124.661,169.128l44.467-44.466l0.001,44.466H124.661z"/>
<g>
</g>
<g>
</g>
<g>
</g>
<g>
</g>
<g>
</g>
<g>
</g>
<g>
</g>
<g>
</g>
<g>
</g>
<g>
</g>
<g>
</g>
<g>
</g>
<g>
</g>
<g>
</g>
<g>
</g>
</svg>
