<?xml version="1.0" encoding="iso-8859-1"?>
<!-- Generator: Adobe Illustrator 18.0.0, SVG Export Plug-In . SVG Version: 6.00 Build 0)  -->
<!DOCTYPE svg PUBLIC "-//W3C//DTD SVG 1.1//EN" "http://www.w3.org/Graphics/SVG/1.1/DTD/svg11.dtd">
<svg version="1.1" id="Capa_1" xmlns="http://www.w3.org/2000/svg" xmlns:xlink="http://www.w3.org/1999/xlink" x="0px" y="0px"
	 viewBox="0 0 228.079 228.079" style="enable-background:new 0 0 228.079 228.079;" xml:space="preserve">
<g>
	<path d="M190.973,23.154H162.85v-5.88c0-4.142-3.357-7.5-7.5-7.5h-10.219V7.5c0-4.142-3.357-7.5-7.5-7.5H89.946
		c-4.143,0-7.5,3.358-7.5,7.5v2.274H72.233c-4.143,0-7.5,3.358-7.5,7.5v5.88H37.106c-4.143,0-7.5,3.358-7.5,7.5v189.925
		c0,4.142,3.357,7.5,7.5,7.5h153.867c4.143,0,7.5-3.358,7.5-7.5V30.654C198.473,26.512,195.116,23.154,190.973,23.154z
		 M79.733,24.774h10.213c4.143,0,7.5-3.358,7.5-7.5V15h32.685v2.274c0,4.142,3.357,7.5,7.5,7.5h10.219v25.053H79.733V24.774z
		 M183.473,213.079H44.606V38.154h20.127v19.173c0,4.142,3.357,7.5,7.5,7.5h83.117c4.143,0,7.5-3.358,7.5-7.5V38.154h20.623V213.079
		z"/>
	<path d="M155.924,90.422H72.153c-4.143,0-7.5,3.358-7.5,7.5c0,4.142,3.357,7.5,7.5,7.5h83.771c4.143,0,7.5-3.358,7.5-7.5
		C163.424,93.78,160.067,90.422,155.924,90.422z"/>
	<path d="M155.924,141.968H72.153c-4.143,0-7.5,3.358-7.5,7.5c0,4.142,3.357,7.5,7.5,7.5h83.771c4.143,0,7.5-3.358,7.5-7.5
		C163.424,145.326,160.067,141.968,155.924,141.968z"/>
	<path d="M155.924,116.191H72.153c-4.143,0-7.5,3.358-7.5,7.5c0,4.142,3.357,7.5,7.5,7.5h83.771c4.143,0,7.5-3.358,7.5-7.5
		C163.424,119.549,160.067,116.191,155.924,116.191z"/>
	<path d="M155.924,167.744H72.153c-4.143,0-7.5,3.358-7.5,7.5s3.357,7.5,7.5,7.5h83.771c4.143,0,7.5-3.358,7.5-7.5
		S160.067,167.744,155.924,167.744z"/>
</g>
<g>
</g>
<g>
</g>
<g>
</g>
<g>
</g>
<g>
</g>
<g>
</g>
<g>
</g>
<g>
</g>
<g>
</g>
<g>
</g>
<g>
</g>
<g>
</g>
<g>
</g>
<g>
</g>
<g>
</g>
</svg>
