<?xml version="1.0" encoding="iso-8859-1"?>
<!-- Generator: Adobe Illustrator 18.0.0, SVG Export Plug-In . SVG Version: 6.00 Build 0)  -->
<!DOCTYPE svg PUBLIC "-//W3C//DTD SVG 1.1//EN" "http://www.w3.org/Graphics/SVG/1.1/DTD/svg11.dtd">
<svg version="1.1" id="Capa_1" xmlns="http://www.w3.org/2000/svg" xmlns:xlink="http://www.w3.org/1999/xlink" x="0px" y="0px"
	 viewBox="0 0 243.739 243.739" style="enable-background:new 0 0 243.739 243.739;" xml:space="preserve">
<path d="M243.719,128.913c0.007-0.132,0.02-0.263,0.02-0.396c0-0.953-0.178-1.864-0.502-2.703L222.298,56.53
	c-0.956-3.165-3.873-5.33-7.179-5.33h-7.067V31.755h3.532c4.142,0,7.5-3.357,7.5-7.5c0-4.142-3.358-7.5-7.5-7.5h-11.032h-44.153
	h-11.041c-4.142,0-7.5,3.358-7.5,7.5c0,4.143,3.358,7.5,7.5,7.5h3.541v19.444h-10.662c-4.142,0-7.5,3.357-7.5,7.5v9.959H112.99
	v-9.959c0-4.143-3.358-7.5-7.5-7.5H94.824V31.755h3.537c4.142,0,7.5-3.357,7.5-7.5c0-4.142-3.358-7.5-7.5-7.5H87.324H43.176H32.133
	c-4.142,0-7.5,3.358-7.5,7.5c0,4.143,3.358,7.5,7.5,7.5h3.543v19.444h-7.07c-3.306,0-6.223,2.165-7.179,5.33L0.348,126.257
	c-0.008,0.023-0.015,0.047-0.022,0.071l-0.006,0.019c-0.005,0.017-0.007,0.032-0.012,0.048c-0.071,0.241-0.129,0.486-0.176,0.736
	c-0.017,0.087-0.027,0.174-0.04,0.261c-0.027,0.18-0.05,0.36-0.064,0.543c-0.008,0.11-0.013,0.22-0.017,0.33
	C0.01,128.35,0,128.432,0,128.517v73.282c0,0.031,0.004,0.063,0.004,0.094c0.101,16.472,23.895,25.091,47.404,25.091
	c23.512,0,47.31-8.619,47.412-25.091c0-0.031,0.004-0.063,0.004-0.094v-65.782h10.666c4.142,0,7.5-3.357,7.5-7.5v-9.952h17.746
	v9.952c0,4.143,3.358,7.5,7.5,7.5h10.662v65.782c0,0.031,0.004,0.063,0.004,0.094c0.102,16.472,23.896,25.091,47.406,25.091
	c23.562,0,47.413-8.654,47.413-25.195c0-0.022-0.003-0.043-0.003-0.064V128.913z M163.898,31.755h29.153v19.444h-29.153V31.755z
	 M50.676,31.755h29.149v19.444H50.676V31.755z M47.408,211.984c-21.265,0-32.408-7.575-32.408-10.195
	c0-2.62,11.143-10.195,32.408-10.195c21.271,0,32.416,7.575,32.416,10.195C79.824,204.408,68.679,211.984,47.408,211.984z
	 M79.824,182.93c-8.894-4.191-20.69-6.337-32.416-6.337c-11.723,0-23.516,2.145-32.408,6.336v-46.912h64.824V182.93z M97.99,121.017
	H87.324H17.603l16.571-54.817h9.002h44.149H97.99v9.959v34.906V121.017z M112.99,103.565V83.658h17.746v19.906H112.99z
	 M145.736,111.065V76.158v-9.959h10.662h44.153h8.999l16.566,54.817h-69.719h-10.662V111.065z M228.719,136.017v46.911
	c-8.893-4.19-20.687-6.335-32.41-6.335c-11.724,0-23.517,2.145-32.41,6.336v-46.912H228.719z M196.309,211.984
	c-21.267,0-32.41-7.575-32.41-10.195c0-2.62,11.144-10.195,32.41-10.195c21.209,0,32.348,7.531,32.41,10.172v0.034
	c0,0.003,0,0.006,0,0.009C228.667,204.446,217.527,211.984,196.309,211.984z"/>
<g>
</g>
<g>
</g>
<g>
</g>
<g>
</g>
<g>
</g>
<g>
</g>
<g>
</g>
<g>
</g>
<g>
</g>
<g>
</g>
<g>
</g>
<g>
</g>
<g>
</g>
<g>
</g>
<g>
</g>
</svg>
