<?xml version="1.0" encoding="iso-8859-1"?>
<!-- Generator: Adobe Illustrator 18.0.0, SVG Export Plug-In . SVG Version: 6.00 Build 0)  -->
<!DOCTYPE svg PUBLIC "-//W3C//DTD SVG 1.1//EN" "http://www.w3.org/Graphics/SVG/1.1/DTD/svg11.dtd">
<svg version="1.1" id="Capa_1" xmlns="http://www.w3.org/2000/svg" xmlns:xlink="http://www.w3.org/1999/xlink" x="0px" y="0px"
	 viewBox="0 0 195.414 195.414" style="enable-background:new 0 0 195.414 195.414;" xml:space="preserve">
<g>
	<path d="M187.914,0.002c-4.143,0-7.5,3.357-7.5,7.5v180.41c0,4.143,3.357,7.5,7.5,7.5c4.142,0,7.5-3.357,7.5-7.5V7.502
		C195.414,3.359,192.056,0.002,187.914,0.002z"/>
	<path d="M7.5,0.002c-4.142,0-7.5,3.357-7.5,7.5v180.41c0,4.143,3.358,7.5,7.5,7.5s7.5-3.357,7.5-7.5V7.502
		C15,3.359,11.642,0.002,7.5,0.002z"/>
	<path d="M90.189,36.104H75.139V7.502c0-4.143-3.358-7.5-7.5-7.5c-4.142,0-7.5,3.357-7.5,7.5v28.602H45.088
		c-4.142,0-7.5,3.357-7.5,7.5v45.104c0,4.143,3.358,7.5,7.5,7.5h15.051v91.705c0,4.143,3.358,7.5,7.5,7.5c4.142,0,7.5-3.357,7.5-7.5
		V96.207h15.051c4.142,0,7.5-3.357,7.5-7.5V43.604C97.689,39.461,94.331,36.104,90.189,36.104z M82.689,81.207H52.588V51.104h30.102
		V81.207z"/>
	<path d="M150.326,99.207h-15.051V7.502c0-4.143-3.358-7.5-7.5-7.5c-4.142,0-7.5,3.357-7.5,7.5v91.705h-15.051
		c-4.142,0-7.5,3.357-7.5,7.5v45.102c0,4.143,3.358,7.5,7.5,7.5h15.051v28.602c0,4.143,3.358,7.5,7.5,7.5c4.142,0,7.5-3.357,7.5-7.5
		v-28.602h15.051c4.142,0,7.5-3.357,7.5-7.5v-45.102C157.826,102.564,154.468,99.207,150.326,99.207z M142.826,144.309h-30.101
		v-30.102h30.101V144.309z"/>
</g>
<g>
</g>
<g>
</g>
<g>
</g>
<g>
</g>
<g>
</g>
<g>
</g>
<g>
</g>
<g>
</g>
<g>
</g>
<g>
</g>
<g>
</g>
<g>
</g>
<g>
</g>
<g>
</g>
<g>
</g>
</svg>
