<?xml version="1.0" encoding="iso-8859-1"?>
<!-- Generator: Adobe Illustrator 18.0.0, SVG Export Plug-In . SVG Version: 6.00 Build 0)  -->
<!DOCTYPE svg PUBLIC "-//W3C//DTD SVG 1.1//EN" "http://www.w3.org/Graphics/SVG/1.1/DTD/svg11.dtd">
<svg version="1.1" id="Capa_1" xmlns="http://www.w3.org/2000/svg" xmlns:xlink="http://www.w3.org/1999/xlink" x="0px" y="0px"
	 viewBox="0 0 289.344 289.344" style="enable-background:new 0 0 289.344 289.344;" xml:space="preserve">
<path d="M281.844,30.633h-53.272h-30.633c-4.143,0-7.5,3.358-7.5,7.5c0,25.229-20.533,45.754-45.77,45.754
	c-25.236,0-45.768-20.525-45.768-45.754c0-4.142-3.357-7.5-7.5-7.5H60.77H7.5c-4.143,0-7.5,3.358-7.5,7.5v106.535
	c0,4.142,3.357,7.5,7.5,7.5h45.77v99.042c0,4.142,3.357,7.5,7.5,7.5h167.803c4.143,0,7.5-3.358,7.5-7.5v-99.042h45.772
	c4.143,0,7.5-3.358,7.5-7.5V38.133C289.344,33.991,285.986,30.633,281.844,30.633z M274.344,137.169h-45.772
	c-4.143,0-7.5,3.358-7.5,7.5v99.042H68.27v-99.042c0-4.142-3.357-7.5-7.5-7.5H15V45.633h45.77h23.594
	c3.707,29.974,29.339,53.254,60.307,53.254c30.969,0,56.6-23.28,60.309-53.254h23.594h45.772V137.169z"/>
<g>
</g>
<g>
</g>
<g>
</g>
<g>
</g>
<g>
</g>
<g>
</g>
<g>
</g>
<g>
</g>
<g>
</g>
<g>
</g>
<g>
</g>
<g>
</g>
<g>
</g>
<g>
</g>
<g>
</g>
</svg>
