<?xml version="1.0" encoding="iso-8859-1"?>
<!-- Generator: Adobe Illustrator 18.0.0, SVG Export Plug-In . SVG Version: 6.00 Build 0)  -->
<!DOCTYPE svg PUBLIC "-//W3C//DTD SVG 1.1//EN" "http://www.w3.org/Graphics/SVG/1.1/DTD/svg11.dtd">
<svg version="1.1" id="Capa_1" xmlns="http://www.w3.org/2000/svg" xmlns:xlink="http://www.w3.org/1999/xlink" x="0px" y="0px"
	 viewBox="0 0 228.302 228.302" style="enable-background:new 0 0 228.302 228.302;" xml:space="preserve">
<path d="M228.302,71.001c0-17.033-7.273-44.926-26.79-47.257c-0.401-0.049-0.814-0.073-1.226-0.073
	c-9.925,0-22.016,13.773-58.445,61.142c-14.413,18.741-34.057,44.281-40.104,47.787c-0.057,0.01-0.111,0.02-0.166,0.03
	l-46.082,9.122c-2.073,0.264-13.799,1.862-25.701,5.702C10.023,153.831,0,163.111,0,175.037c0,24.758,37.845,27.52,56.032,28.846
	c1.109,0.081,2.132,0.156,3.051,0.23c4.331,0.345,11.779,0.52,22.137,0.52c17.391,0,37.5-0.493,37.701-0.498
	c0.188-0.005,0.374-0.017,0.56-0.035c1.511-0.15,37.179-4.232,52.286-51.101c4.787-14.839,18.266-30.9,30.049-35.805
	c0.281-0.117,0.557-0.25,0.834-0.376v80.313c0,4.143,3.357,7.5,7.5,7.5c4.143,0,7.5-3.357,7.5-7.5v-93.474
	C224.444,93.974,228.302,81.431,228.302,71.001z M196.049,103.346c-15.821,6.585-32.398,25.95-38.559,45.048
	c-11.563,35.87-36.64,40.373-39.302,40.752c-2.781,0.066-21.039,0.485-36.969,0.485c-9.961,0-17.009-0.159-20.943-0.473
	c-0.948-0.075-2.006-0.152-3.153-0.236C29.173,186.883,15,182.211,15,175.037c0-8.573,25.173-16.339,42.569-18.429
	c0.19-0.022,0.38-0.053,0.568-0.09l45.879-9.081c8.191-0.837,18.104-12.377,49.715-53.48c15.689-20.401,39.166-50.927,46.918-55.119
	c6.908,2.163,12.652,18.912,12.652,32.163C213.302,82.876,205.923,99.231,196.049,103.346z"/>
<g>
</g>
<g>
</g>
<g>
</g>
<g>
</g>
<g>
</g>
<g>
</g>
<g>
</g>
<g>
</g>
<g>
</g>
<g>
</g>
<g>
</g>
<g>
</g>
<g>
</g>
<g>
</g>
<g>
</g>
</svg>
