<?xml version="1.0" encoding="iso-8859-1"?>
<!-- Generator: Adobe Illustrator 18.0.0, SVG Export Plug-In . SVG Version: 6.00 Build 0)  -->
<!DOCTYPE svg PUBLIC "-//W3C//DTD SVG 1.1//EN" "http://www.w3.org/Graphics/SVG/1.1/DTD/svg11.dtd">
<svg version="1.1" id="Capa_1" xmlns="http://www.w3.org/2000/svg" xmlns:xlink="http://www.w3.org/1999/xlink" x="0px" y="0px"
	 viewBox="0 0 250.26 250.26" style="enable-background:new 0 0 250.26 250.26;" xml:space="preserve">
<path d="M242.76,218.537h-39.518v-99.071c0-4.143-3.357-7.5-7.5-7.5h-39.557v-39.39c0-4.143-3.357-7.5-7.5-7.5h-47.061
	c-4.143,0-7.5,3.357-7.5,7.5v54.07H54.557c-4.143,0-7.5,3.357-7.5,7.5v84.391H15V24.216c0-4.143-3.358-7.5-7.5-7.5
	c-4.143,0-7.5,3.357-7.5,7.5v201.82c0,4.143,3.357,7.5,7.5,7.5h46.921c0.046,0.001,0.09,0.007,0.136,0.007h47.061
	c0.002,0,0.002,0,0.004,0c0.002,0,0.002,0,0.004,0h47.061h47.057c0.046,0,0.09-0.006,0.136-0.007h46.882c4.143,0,7.5-3.357,7.5-7.5
	C250.26,221.894,246.902,218.537,242.76,218.537z M188.242,126.965v91.571h-32.057v-91.571H188.242z M141.186,80.076v39.39v99.071
	h-32.061V80.076H141.186z M62.057,141.646h32.061v76.891H62.057V141.646z"/>
<g>
</g>
<g>
</g>
<g>
</g>
<g>
</g>
<g>
</g>
<g>
</g>
<g>
</g>
<g>
</g>
<g>
</g>
<g>
</g>
<g>
</g>
<g>
</g>
<g>
</g>
<g>
</g>
<g>
</g>
</svg>
