<?xml version="1.0" encoding="iso-8859-1"?>
<!-- Generator: Adobe Illustrator 18.0.0, SVG Export Plug-In . SVG Version: 6.00 Build 0)  -->
<!DOCTYPE svg PUBLIC "-//W3C//DTD SVG 1.1//EN" "http://www.w3.org/Graphics/SVG/1.1/DTD/svg11.dtd">
<svg version="1.1" id="Capa_1" xmlns="http://www.w3.org/2000/svg" xmlns:xlink="http://www.w3.org/1999/xlink" x="0px" y="0px"
	 viewBox="0 0 227.214 227.214" style="enable-background:new 0 0 227.214 227.214;" xml:space="preserve">
<path d="M198.424,115.042c0-16.437-13.374-29.81-29.813-29.81s-29.813,13.372-29.813,29.81c0,13.85,9.493,25.522,22.313,28.857
	v33.56c0,19.164-15.591,34.755-34.756,34.755c-19.161,0-34.75-15.591-34.75-34.755v-67.351
	c26.962-3.674,47.811-26.836,47.811-54.792V7.5c0-4.142-3.358-7.5-7.5-7.5h-23.902c-4.142,0-7.5,3.358-7.5,7.5s3.358,7.5,7.5,7.5
	h16.402v40.316c0,22.229-18.083,40.313-40.311,40.313c-22.23,0-40.316-18.084-40.316-40.313V15h16.408c4.142,0,7.5-3.358,7.5-7.5
	S64.339,0,60.198,0H36.29c-4.143,0-7.5,3.358-7.5,7.5v47.816c0,27.955,20.852,51.118,47.816,54.792v67.351
	c0,27.435,22.317,49.755,49.75,49.755c27.436,0,49.756-22.32,49.756-49.755v-33.56C188.932,140.564,198.424,128.892,198.424,115.042
	z M168.612,129.855c-8.167,0-14.813-6.645-14.813-14.813c0-8.166,6.645-14.81,14.813-14.81s14.813,6.644,14.813,14.81
	C183.424,123.21,176.779,129.855,168.612,129.855z"/>
<g>
</g>
<g>
</g>
<g>
</g>
<g>
</g>
<g>
</g>
<g>
</g>
<g>
</g>
<g>
</g>
<g>
</g>
<g>
</g>
<g>
</g>
<g>
</g>
<g>
</g>
<g>
</g>
<g>
</g>
</svg>
