<?xml version="1.0" encoding="iso-8859-1"?>
<!-- Generator: Adobe Illustrator 18.0.0, SVG Export Plug-In . SVG Version: 6.00 Build 0)  -->
<!DOCTYPE svg PUBLIC "-//W3C//DTD SVG 1.1//EN" "http://www.w3.org/Graphics/SVG/1.1/DTD/svg11.dtd">
<svg version="1.1" id="Capa_1" xmlns="http://www.w3.org/2000/svg" xmlns:xlink="http://www.w3.org/1999/xlink" x="0px" y="0px"
	 viewBox="0 0 409.443 409.443" style="enable-background:new 0 0 409.443 409.443;" xml:space="preserve">
<g>
	<path d="M401.943,165.39h-14.409c-2.537-5.723-5.714-10.857-9.558-15.354c-13.193-15.433-33.737-23.258-61.061-23.258H92.534
		c-27.326,0-47.871,7.825-61.065,23.258c-3.844,4.496-7.021,9.631-9.558,15.354H7.5c-4.143,0-7.5,3.357-7.5,7.5
		c0,4.143,3.357,7.5,7.5,7.5h9.546c-1.633,7.4-2.458,15.517-2.458,24.328c0,42.98,34.967,77.947,77.946,77.947
		c27.209,0,53.524-12.411,74.1-34.948c18.003-19.72,29.186-45.292,29.186-66.737c0-1.855-0.001-3.654-0.009-5.412
		c2.891-0.688,5.871-1.037,8.909-1.037c3.042,0,6.024,0.351,8.913,1.038c-0.008,1.757-0.009,3.557-0.009,5.411
		c0,21.446,11.184,47.019,29.186,66.737c20.575,22.537,46.893,34.948,74.104,34.948c42.978,0,77.942-34.967,77.942-77.947
		c0-8.812-0.825-16.928-2.458-24.328h9.544c4.143,0,7.5-3.357,7.5-7.5C409.443,168.747,406.086,165.39,401.943,165.39z
		 M155.556,237.604c-17.698,19.386-40.079,30.062-63.021,30.062c-34.709,0-62.946-28.238-62.946-62.947
		c0-42.352,20.59-62.939,62.946-62.939c45.207,0,70.108,0,80.526,5.079c7.044,3.435,7.76,9.532,7.76,34.122
		C180.82,198.837,171.14,220.534,155.556,237.604z M204.721,159.53c-3.198,0-6.353,0.285-9.447,0.838
		c-0.674-7.479-2.183-13.673-5.562-18.59h30.021c-3.379,4.918-4.888,11.111-5.561,18.59
		C211.077,159.816,207.921,159.53,204.721,159.53z M316.915,267.665c-22.944,0-45.327-10.676-63.025-30.062
		c-15.584-17.069-25.265-38.767-25.265-56.624c0-24.59,0.716-30.688,7.761-34.122c10.418-5.079,35.32-5.079,80.529-5.079
		c42.353,0,62.942,20.588,62.942,62.939C379.857,239.427,351.622,267.665,316.915,267.665z"/>
	<path d="M116.61,163.55c-2.929-2.93-7.677-2.93-10.607-0.002L58.05,211.483c-2.929,2.929-2.93,7.678-0.002,10.607
		c1.465,1.465,3.385,2.197,5.305,2.197c1.919,0,3.838-0.731,5.303-2.195l47.953-47.936
		C119.537,171.229,119.538,166.48,116.61,163.55z"/>
	<path d="M129.83,187.427l-35.971,35.959c-2.929,2.928-2.93,7.677-0.001,10.606c1.464,1.465,3.384,2.197,5.304,2.197
		c1.919,0,3.838-0.732,5.303-2.196l35.971-35.959c2.929-2.928,2.93-7.677,0.001-10.606
		C137.509,184.499,132.76,184.498,129.83,187.427z"/>
	<path d="M327.576,163.551c-2.929-2.932-7.678-2.931-10.607-0.003l-47.957,47.936c-2.93,2.929-2.931,7.677-0.003,10.607
		c1.465,1.466,3.385,2.198,5.305,2.198c1.919,0,3.838-0.731,5.302-2.195l47.957-47.936
		C330.503,171.229,330.504,166.48,327.576,163.551z"/>
	<path d="M340.795,187.427l-35.969,35.959c-2.929,2.928-2.93,7.677-0.001,10.606c1.464,1.465,3.384,2.197,5.304,2.197
		c1.919,0,3.838-0.732,5.303-2.196l35.969-35.959c2.929-2.928,2.93-7.677,0.001-10.606
		C348.475,184.499,343.726,184.498,340.795,187.427z"/>
</g>
<g>
</g>
<g>
</g>
<g>
</g>
<g>
</g>
<g>
</g>
<g>
</g>
<g>
</g>
<g>
</g>
<g>
</g>
<g>
</g>
<g>
</g>
<g>
</g>
<g>
</g>
<g>
</g>
<g>
</g>
</svg>
