<?xml version="1.0" encoding="iso-8859-1"?>
<!-- Generator: Adobe Illustrator 18.0.0, SVG Export Plug-In . SVG Version: 6.00 Build 0)  -->
<!DOCTYPE svg PUBLIC "-//W3C//DTD SVG 1.1//EN" "http://www.w3.org/Graphics/SVG/1.1/DTD/svg11.dtd">
<svg version="1.1" id="Capa_1" xmlns="http://www.w3.org/2000/svg" xmlns:xlink="http://www.w3.org/1999/xlink" x="0px" y="0px"
	 viewBox="0 0 228.096 228.096" style="enable-background:new 0 0 228.096 228.096;" xml:space="preserve">
<path d="M225.468,80.069c0-4.142-3.357-7.5-7.5-7.5H139.62l16.028-63.227c0.568-2.243,0.069-4.622-1.352-6.449S150.691,0,148.378,0
	h-45.385c-3.432,0-6.426,2.329-7.27,5.655l-16.98,66.914h-5.076v-5.196c0-4.141-3.355-7.499-7.496-7.501l-56.039-0.031
	c-0.001,0-0.003,0-0.004,0c-1.988,0-3.897,0.79-5.303,2.196c-1.407,1.407-2.197,3.316-2.197,5.306l0.035,153.255
	c0.001,4.141,3.358,7.498,7.5,7.498h55.986c4.142,0,7.5-3.357,7.5-7.499l0.002-19.021l25.989,12.989
	c1.041,0.52,2.188,0.791,3.353,0.791h102.982c4.143,0,7.5-3.358,7.5-7.5v-24.443h4.492c4.143,0,7.5-3.358,7.5-7.5
	c0-0.02-0.003-0.04-0.003-0.06s0.003-0.04,0.003-0.06V80.069z M17.661,213.096L17.63,74.845l41.036,0.022l-0.001,4.883
	c-0.004,0.106-0.016,0.211-0.016,0.318v109.372c0,0.018,0.004,0.034,0.004,0.052l-0.003,23.603H17.661z M198.476,200.355h-93.713
	l-31.109-15.548l0.012-97.238h10.912c3.432,0,6.426-2.329,7.27-5.655L108.827,15h29.912l-16.028,63.227
	c-0.568,2.243-0.069,4.623,1.352,6.449c1.421,1.826,3.605,2.894,5.919,2.894h80.486v16.921H163.09c-4.143,0-7.5,3.358-7.5,7.5
	c0,4.142,3.357,7.5,7.5,7.5h47.378v16.962H163.09c-4.143,0-7.5,3.358-7.5,7.5c0,4.142,3.357,7.5,7.5,7.5h47.378v16.96h-47.393
	c-4.143,0-7.5,3.358-7.5,7.5c0,4.142,3.357,7.5,7.5,7.5h35.4V200.355z"/>
<g>
</g>
<g>
</g>
<g>
</g>
<g>
</g>
<g>
</g>
<g>
</g>
<g>
</g>
<g>
</g>
<g>
</g>
<g>
</g>
<g>
</g>
<g>
</g>
<g>
</g>
<g>
</g>
<g>
</g>
</svg>
