<?xml version="1.0" encoding="iso-8859-1"?>
<!-- Generator: Adobe Illustrator 18.0.0, SVG Export Plug-In . SVG Version: 6.00 Build 0)  -->
<!DOCTYPE svg PUBLIC "-//W3C//DTD SVG 1.1//EN" "http://www.w3.org/Graphics/SVG/1.1/DTD/svg11.dtd">
<svg version="1.1" id="Capa_1" xmlns="http://www.w3.org/2000/svg" xmlns:xlink="http://www.w3.org/1999/xlink" x="0px" y="0px"
	 viewBox="0 0 238.75 238.75" style="enable-background:new 0 0 238.75 238.75;" xml:space="preserve">
<g>
	<path d="M156.619,138.47h-33.965v-37.31c0-4.142-3.357-7.5-7.5-7.5c-4.143,0-7.5,3.358-7.5,7.5v44.81c0,4.142,3.357,7.5,7.5,7.5
		h41.465c4.143,0,7.5-3.358,7.5-7.5C164.119,141.828,160.762,138.47,156.619,138.47z"/>
	<path d="M191.889,80.546l4.959-4.963l2.379,2.38c1.465,1.466,3.385,2.198,5.305,2.198c1.919,0,3.838-0.732,5.302-2.195
		c2.93-2.928,2.932-7.677,0.003-10.606l-7.521-7.525c-0.054-0.058-0.102-0.119-0.158-0.175c-0.055-0.055-0.114-0.101-0.171-0.154
		l-7.5-7.505c-2.93-2.931-7.678-2.931-10.606-0.003c-2.93,2.928-2.932,7.677-0.003,10.606l2.367,2.369l-5.007,5.011
		c-10.723-9.099-23.466-15.884-37.453-19.574c4.2-5.306,6.718-12.003,6.718-19.281C150.502,13.964,136.541,0,119.381,0
		c-17.167,0-31.133,13.964-31.133,31.129c0,7.279,2.519,13.977,6.722,19.283C53.958,61.232,23.629,98.64,23.629,143.001
		c0,52.796,42.954,95.749,95.752,95.749c52.791,0,95.74-42.953,95.74-95.749C215.121,119.158,206.359,97.324,191.889,80.546z
		 M103.248,31.129c0-8.894,7.237-16.129,16.133-16.129c8.89,0,16.121,7.235,16.121,16.129c0,8.891-7.232,16.125-16.121,16.125
		C110.485,47.254,103.248,40.02,103.248,31.129z M119.381,223.75c-44.526,0-80.752-36.224-80.752-80.749
		c0-44.524,36.226-80.747,80.752-80.747c44.521,0,80.74,36.223,80.74,80.747C200.121,187.526,163.901,223.75,119.381,223.75z"/>
	<path d="M119.381,73.184c-37.315,0-67.674,30.357-67.674,67.671c0,37.312,30.358,67.668,67.674,67.668
		c37.309,0,67.662-30.356,67.662-67.668C187.043,103.54,156.689,73.184,119.381,73.184z M119.381,193.523
		c-29.045,0-52.674-23.627-52.674-52.668c0-29.043,23.629-52.671,52.674-52.671c29.038,0,52.662,23.628,52.662,52.671
		C172.043,169.895,148.419,193.523,119.381,193.523z"/>
</g>
<g>
</g>
<g>
</g>
<g>
</g>
<g>
</g>
<g>
</g>
<g>
</g>
<g>
</g>
<g>
</g>
<g>
</g>
<g>
</g>
<g>
</g>
<g>
</g>
<g>
</g>
<g>
</g>
<g>
</g>
</svg>
