<?xml version="1.0" encoding="iso-8859-1"?>
<!-- Generator: Adobe Illustrator 18.0.0, SVG Export Plug-In . SVG Version: 6.00 Build 0)  -->
<!DOCTYPE svg PUBLIC "-//W3C//DTD SVG 1.1//EN" "http://www.w3.org/Graphics/SVG/1.1/DTD/svg11.dtd">
<svg version="1.1" id="Capa_1" xmlns="http://www.w3.org/2000/svg" xmlns:xlink="http://www.w3.org/1999/xlink" x="0px" y="0px"
	 viewBox="0 0 232.395 232.395" style="enable-background:new 0 0 232.395 232.395;" xml:space="preserve">
<path d="M177.121,83.258c-5.921,0-11.324,2.26-15.393,5.962c-4.068-3.702-9.472-5.962-15.393-5.962
	c-5.925,0-11.333,2.261-15.404,5.963c-1.672-1.522-3.579-2.783-5.645-3.76c7.467-9.163,11.828-20.792,11.828-33.095
	C137.115,23.491,113.627,0,84.756,0C55.878,0,32.383,23.491,32.383,52.366c0,20.105,11.649,38.4,29.469,47.085v63.871
	c0,38.086,30.988,69.072,69.077,69.072c38.092,0,69.083-30.986,69.083-69.072V106.15C200.012,93.527,189.743,83.258,177.121,83.258z
	 M47.383,52.366C47.383,31.762,64.148,15,84.756,15c20.6,0,37.359,16.762,37.359,37.366c0,11.702-5.529,22.549-14.467,29.515V52.366
	c0-12.628-10.27-22.902-22.893-22.902c-12.629,0-22.904,10.274-22.904,22.902v29.513C52.912,74.915,47.383,64.068,47.383,52.366z
	 M185.012,163.322c0,29.815-24.262,54.072-54.083,54.072c-29.818,0-54.077-24.257-54.077-54.072V94.887
	c0.013-0.251,0.013-0.502,0-0.751v-41.77c0-4.357,3.546-7.902,7.904-7.902c4.352,0,7.893,3.545,7.893,7.902v53.784v16.451
	c0,4.142,3.358,7.5,7.5,7.5c4.142,0,7.5-3.358,7.5-7.5V106.15c0-4.352,3.54-7.893,7.891-7.893c4.351,0,7.89,3.541,7.89,7.893v16.451
	c0,4.142,3.358,7.5,7.5,7.5c4.142,0,7.5-3.358,7.5-7.5V106.15c0-4.352,3.547-7.893,7.907-7.893c4.352,0,7.893,3.541,7.893,7.893
	v16.451c0,4.142,3.358,7.5,7.5,7.5c4.142,0,7.5-3.358,7.5-7.5V106.15c0-4.352,3.541-7.893,7.893-7.893
	c4.351,0,7.891,3.541,7.891,7.893V163.322z"/>
<g>
</g>
<g>
</g>
<g>
</g>
<g>
</g>
<g>
</g>
<g>
</g>
<g>
</g>
<g>
</g>
<g>
</g>
<g>
</g>
<g>
</g>
<g>
</g>
<g>
</g>
<g>
</g>
<g>
</g>
</svg>
