<?xml version="1.0" encoding="iso-8859-1"?>
<!-- Generator: Adobe Illustrator 18.0.0, SVG Export Plug-In . SVG Version: 6.00 Build 0)  -->
<!DOCTYPE svg PUBLIC "-//W3C//DTD SVG 1.1//EN" "http://www.w3.org/Graphics/SVG/1.1/DTD/svg11.dtd">
<svg version="1.1" id="Capa_1" xmlns="http://www.w3.org/2000/svg" xmlns:xlink="http://www.w3.org/1999/xlink" x="0px" y="0px"
	 viewBox="0 0 235.521 235.521" style="enable-background:new 0 0 235.521 235.521;" xml:space="preserve">
<g>
	<path d="M177.447,69.161c-1.407-1.407-3.314-2.197-5.304-2.197H151.07V46.736c0-1.989-0.79-3.896-2.196-5.303L109.642,2.197
		C108.235,0.791,106.328,0,104.338,0H24.147c-4.142,0-7.5,3.358-7.5,7.5v153.563c0,4.142,3.358,7.5,7.5,7.5h60.3v59.458
		c0,4.142,3.358,7.5,7.5,7.5h119.427c4.142,0,7.5-3.358,7.5-7.5V113.697c0-1.989-0.79-3.897-2.196-5.303L177.447,69.161z
		 M179.643,92.572l13.628,13.628h-13.628V92.572z M111.838,25.608l13.633,13.635h-13.633V25.608z M31.647,153.563V15h65.191v31.743
		c0,4.142,3.358,7.5,7.5,7.5h31.731v12.721H91.947c-4.142,0-7.5,3.358-7.5,7.5v79.099H31.647z M99.447,220.521V81.964h65.196V113.7
		c0,4.142,3.358,7.5,7.5,7.5h31.73v99.32H99.447z"/>
	<path d="M56.952,176.452c-2.144-2.146-5.371-2.786-8.173-1.626c-2.803,1.161-4.63,3.896-4.63,6.929v15.636H31.647v-15.636
		c0-4.142-3.358-7.5-7.5-7.5s-7.5,3.358-7.5,7.5v23.136c0,4.142,3.358,7.5,7.5,7.5h20.002v15.63c0,3.034,1.827,5.768,4.63,6.929
		c0.928,0.384,1.902,0.571,2.869,0.571c1.952,0,3.87-0.762,5.305-2.197l23.132-23.134c2.929-2.929,2.928-7.678-0.001-10.607
		L56.952,176.452z"/>
	<path d="M211.374,23.135h-20.002V7.5c0-3.034-1.828-5.768-4.63-6.929c-2.8-1.159-6.027-0.519-8.174,1.626l-23.133,23.139
		c-2.928,2.929-2.928,7.678,0.001,10.606l23.133,23.131c1.435,1.435,3.353,2.196,5.305,2.196c0.966,0,1.941-0.187,2.869-0.571
		c2.803-1.161,4.63-3.896,4.63-6.929V38.135h12.502V53.77c0,4.142,3.358,7.5,7.5,7.5s7.5-3.358,7.5-7.5V30.635
		C218.874,26.493,215.516,23.135,211.374,23.135z"/>
</g>
<g>
</g>
<g>
</g>
<g>
</g>
<g>
</g>
<g>
</g>
<g>
</g>
<g>
</g>
<g>
</g>
<g>
</g>
<g>
</g>
<g>
</g>
<g>
</g>
<g>
</g>
<g>
</g>
<g>
</g>
</svg>
