<?xml version="1.0" encoding="iso-8859-1"?>
<!-- Generator: Adobe Illustrator 18.0.0, SVG Export Plug-In . SVG Version: 6.00 Build 0)  -->
<!DOCTYPE svg PUBLIC "-//W3C//DTD SVG 1.1//EN" "http://www.w3.org/Graphics/SVG/1.1/DTD/svg11.dtd">
<svg version="1.1" id="Capa_1" xmlns="http://www.w3.org/2000/svg" xmlns:xlink="http://www.w3.org/1999/xlink" x="0px" y="0px"
	 viewBox="0 0 220.889 220.889" style="enable-background:new 0 0 220.889 220.889;" xml:space="preserve">
<g>
	<path d="M206.43,22.883h-19.196h-30.893V7.5c0-4.143-3.357-7.5-7.5-7.5H72.053c-4.143,0-7.5,3.357-7.5,7.5v15.383H33.66H14.459
		c-4.143,0-7.5,3.357-7.5,7.5s3.357,7.5,7.5,7.5h12.219l12.578,176.04c0.28,3.925,3.546,6.966,7.481,6.966h127.42
		c3.935,0,7.2-3.041,7.48-6.966l12.579-176.04h12.214c4.143,0,7.5-3.357,7.5-7.5S210.572,22.883,206.43,22.883z M79.553,15h61.788
		v7.883H79.553V15z M167.173,205.889H53.72L41.715,37.883h30.338h76.788h30.338L167.173,205.889z"/>
	<path d="M110.445,62.907c-4.143,0-7.5,3.357-7.5,7.5v102.945c0,4.143,3.357,7.5,7.5,7.5s7.5-3.357,7.5-7.5V70.407
		C117.945,66.265,114.588,62.907,110.445,62.907z"/>
	<path d="M77.209,69.873c-0.294-4.132-3.898-7.262-8.015-6.946c-4.132,0.295-7.242,3.884-6.946,8.015l7.354,102.945
		c0.281,3.95,3.573,6.966,7.473,6.966c0.18,0,0.36-0.006,0.542-0.02c4.132-0.295,7.242-3.884,6.946-8.015L77.209,69.873z"/>
	<path d="M143.693,69.873l-7.357,102.945c-0.296,4.131,2.814,7.72,6.946,8.015c0.182,0.014,0.362,0.02,0.542,0.02
		c3.898,0,7.19-3.016,7.473-6.966l7.357-102.945c0.296-4.131-2.814-7.72-6.946-8.015C147.593,62.614,143.988,65.741,143.693,69.873z
		"/>
</g>
<g>
</g>
<g>
</g>
<g>
</g>
<g>
</g>
<g>
</g>
<g>
</g>
<g>
</g>
<g>
</g>
<g>
</g>
<g>
</g>
<g>
</g>
<g>
</g>
<g>
</g>
<g>
</g>
<g>
</g>
</svg>
