<?xml version="1.0" encoding="iso-8859-1"?>
<!-- Generator: Adobe Illustrator 18.0.0, SVG Export Plug-In . SVG Version: 6.00 Build 0)  -->
<!DOCTYPE svg PUBLIC "-//W3C//DTD SVG 1.1//EN" "http://www.w3.org/Graphics/SVG/1.1/DTD/svg11.dtd">
<svg version="1.1" id="Capa_1" xmlns="http://www.w3.org/2000/svg" xmlns:xlink="http://www.w3.org/1999/xlink" x="0px" y="0px"
	 viewBox="0 0 235.588 235.588" style="enable-background:new 0 0 235.588 235.588;" xml:space="preserve">
<path d="M184.116,125.147c0-67.547-58.813-120.993-61.317-123.234c-2.847-2.55-7.157-2.551-10.006,0
	C110.289,4.155,51.472,57.6,51.472,125.147c0,16.312,7.047,32.961,19.334,45.68c11.001,11.388,24.809,18.38,39.49,20.168v37.092
	c0,4.142,3.357,7.5,7.5,7.5c4.143,0,7.5-3.358,7.5-7.5v-37.092c14.68-1.788,28.486-8.781,39.486-20.168
	C177.069,158.108,184.116,141.458,184.116,125.147z M79.505,72.183l30.791,30.794v31.339L70.872,94.887
	C73.122,86.942,76.1,79.336,79.505,72.183z M125.296,134.326v-31.342l30.791-30.794c3.406,7.157,6.384,14.766,8.634,22.715
	L125.296,134.326z M148.729,58.367c-0.119,0.106-0.242,0.208-0.356,0.323l-23.077,23.08V26.138
	C132.181,34.006,140.888,45.069,148.729,58.367z M110.296,26.137v55.625L87.226,58.69c-0.118-0.117-0.241-0.221-0.364-0.329
	C94.706,45.064,103.411,34.003,110.296,26.137z M66.472,125.147c0-4.269,0.293-8.484,0.805-12.64l43.02,43.023v20.329
	C84.765,171.754,66.472,147.261,66.472,125.147z M125.296,175.858v-20.32l43.016-43.013c0.512,4.15,0.805,8.359,0.805,12.622
	C169.116,147.261,150.825,171.754,125.296,175.858z"/>
<g>
</g>
<g>
</g>
<g>
</g>
<g>
</g>
<g>
</g>
<g>
</g>
<g>
</g>
<g>
</g>
<g>
</g>
<g>
</g>
<g>
</g>
<g>
</g>
<g>
</g>
<g>
</g>
<g>
</g>
</svg>
