<?xml version="1.0" encoding="iso-8859-1"?>
<!-- Generator: Adobe Illustrator 18.0.0, SVG Export Plug-In . SVG Version: 6.00 Build 0)  -->
<!DOCTYPE svg PUBLIC "-//W3C//DTD SVG 1.1//EN" "http://www.w3.org/Graphics/SVG/1.1/DTD/svg11.dtd">
<svg version="1.1" id="Capa_1" xmlns="http://www.w3.org/2000/svg" xmlns:xlink="http://www.w3.org/1999/xlink" x="0px" y="0px"
	 viewBox="0 0 227.214 227.214" style="enable-background:new 0 0 227.214 227.214;" xml:space="preserve">
<path d="M175.719,72.648c0.018-0.523,0.026-1.045,0.026-1.566c0-17.049-9.29-32.776-23.971-41.104
	C147.548,12.632,131.802,0,113.608,0C95.414,0,79.669,12.631,75.442,29.978C60.758,38.3,51.468,54.028,51.468,71.082
	c0,0.519,0.009,1.041,0.027,1.565c-15.452,10.162-24.861,27.407-24.861,46.118c0,30.428,24.756,55.183,55.186,55.183h11.986v45.766
	c0,4.142,3.357,7.5,7.5,7.5h24.6c4.143,0,7.5-3.358,7.5-7.5v-45.766h11.988c30.43,0,55.186-24.755,55.186-55.183
	C200.58,100.055,191.17,82.811,175.719,72.648z M118.406,212.214h-9.6v-38.266h9.6V212.214z M145.394,158.948H81.82
	c-22.158,0-40.186-18.026-40.186-40.183c0-14.859,8.151-28.45,21.272-35.47c2.774-1.485,4.328-4.544,3.889-7.66
	c-0.217-1.539-0.327-3.071-0.327-4.554c0-12.548,7.373-24.046,18.783-29.291c2.332-1.072,3.954-3.263,4.299-5.806
	C91.173,24.021,101.516,15,113.608,15c12.093,0,22.435,9.021,24.058,20.984c0.345,2.543,1.966,4.733,4.297,5.806
	c11.41,5.25,18.783,16.747,18.783,29.292c0,1.507-0.109,3.032-0.325,4.531c-0.45,3.123,1.103,6.195,3.886,7.683
	c13.122,7.02,21.273,20.61,21.273,35.47C185.58,140.922,167.552,158.948,145.394,158.948z"/>
<g>
</g>
<g>
</g>
<g>
</g>
<g>
</g>
<g>
</g>
<g>
</g>
<g>
</g>
<g>
</g>
<g>
</g>
<g>
</g>
<g>
</g>
<g>
</g>
<g>
</g>
<g>
</g>
<g>
</g>
</svg>
