<?xml version="1.0" encoding="iso-8859-1"?>
<!-- Generator: Adobe Illustrator 18.0.0, SVG Export Plug-In . SVG Version: 6.00 Build 0)  -->
<!DOCTYPE svg PUBLIC "-//W3C//DTD SVG 1.1//EN" "http://www.w3.org/Graphics/SVG/1.1/DTD/svg11.dtd">
<svg version="1.1" id="Capa_1" xmlns="http://www.w3.org/2000/svg" xmlns:xlink="http://www.w3.org/1999/xlink" x="0px" y="0px"
	 viewBox="0 0 302.936 302.936" style="enable-background:new 0 0 302.936 302.936;" xml:space="preserve">
<g>
	<path d="M289.311,67.73c-0.05-0.054-0.102-0.106-0.154-0.158c-8.885-8.884-20.696-13.776-33.258-13.776
		c-10.311,0-20.484,3.445-28.635,9.693c-1.859,1.421-3.357,2.714-4.716,4.071c-0.06,0.06-0.119,0.121-0.176,0.183l-45.738,45.743
		c-8.897,8.896-13.797,20.725-13.797,33.306c0,12.548,4.874,24.348,13.727,33.236c0.029,0.03,0.058,0.059,0.087,0.088
		c0.992,0.988,2.077,1.971,3.175,2.882c0.063,0.059,0.125,0.115,0.178,0.162c0.065,0.057,0.132,0.113,0.199,0.168
		c8.34,6.802,18.882,10.548,29.682,10.548c10.018,0,19.584-3.101,27.66-8.961c2.142-1.551,3.963-3.077,5.56-4.66
		c0.052-0.049,0.103-0.099,0.153-0.149l45.912-45.913C307.479,115.87,307.525,86.101,289.311,67.73z M278.56,123.586l-45.769,45.77
		c-0.052,0.049-0.103,0.1-0.154,0.15c-1.061,1.065-2.335,2.131-3.898,3.263c-5.504,3.995-12.024,6.106-18.856,6.106
		c-7.267,0-14.357-2.486-19.996-7.006c-0.097-0.088-0.202-0.18-0.321-0.28c-0.821-0.675-1.585-1.362-2.273-2.044
		c-0.018-0.018-0.036-0.037-0.055-0.055c-6.064-6.064-9.403-14.126-9.403-22.7c0-8.575,3.339-16.636,9.404-22.699l45.908-45.913
		c0.05-0.05,0.099-0.101,0.147-0.151c0.847-0.831,1.831-1.669,3.086-2.628c5.556-4.259,12.487-6.604,19.518-6.604
		c8.496,0,16.489,3.287,22.526,9.258c0.043,0.045,0.086,0.089,0.13,0.133C291.071,90.699,291.073,111.066,278.56,123.586z"/>
	<path d="M126.292,122.832c-8.881-8.883-20.696-13.776-33.268-13.776c-5.801,0-11.483,1.048-16.892,3.116
		c-6.237,2.389-11.774,5.974-16.457,10.654c-0.072,0.072-0.143,0.146-0.212,0.22l-45.702,45.693
		c-18.35,18.369-18.35,48.255,0.003,66.624c8.884,8.884,20.7,13.777,33.271,13.777h0c5.858,0,11.589-1.068,17.02-3.17
		c6.162-2.369,11.653-5.934,16.322-10.597c0.059-0.059,0.116-0.118,0.173-0.179l45.743-45.743
		c18.294-18.31,18.351-48.063,0.17-66.441C126.408,122.949,126.35,122.89,126.292,122.832z M115.685,178.847L69.782,224.75
		c-0.052,0.052-0.103,0.105-0.153,0.158c-3.144,3.1-6.829,5.475-10.971,7.068c-3.712,1.437-7.623,2.166-11.622,2.165
		c-8.564,0-16.613-3.333-22.662-9.381c-12.51-12.521-12.509-32.896-0.003-45.416l45.909-45.9c0.065-0.065,0.129-0.13,0.191-0.197
		c3.144-3.091,6.853-5.468,11.023-7.065c3.688-1.41,7.567-2.125,11.53-2.125c8.497,0,16.484,3.279,22.516,9.238
		c0.047,0.049,0.094,0.098,0.143,0.146C128.192,145.959,128.192,166.329,115.685,178.847z"/>
</g>
<g>
</g>
<g>
</g>
<g>
</g>
<g>
</g>
<g>
</g>
<g>
</g>
<g>
</g>
<g>
</g>
<g>
</g>
<g>
</g>
<g>
</g>
<g>
</g>
<g>
</g>
<g>
</g>
<g>
</g>
</svg>
