<?xml version="1.0" encoding="iso-8859-1"?>
<!-- Generator: Adobe Illustrator 18.0.0, SVG Export Plug-In . SVG Version: 6.00 Build 0)  -->
<!DOCTYPE svg PUBLIC "-//W3C//DTD SVG 1.1//EN" "http://www.w3.org/Graphics/SVG/1.1/DTD/svg11.dtd">
<svg version="1.1" id="Capa_1" xmlns="http://www.w3.org/2000/svg" xmlns:xlink="http://www.w3.org/1999/xlink" x="0px" y="0px"
	 viewBox="0 0 211.293 211.293" style="enable-background:new 0 0 211.293 211.293;" xml:space="preserve">
<g>
	<path d="M176.777,54.027H133.43c-4.142,0-7.5,3.357-7.5,7.5c0,4.142,3.358,7.5,7.5,7.5h35.847v127.266H42.016V69.027H77.86
		c4.142,0,7.5-3.357,7.5-7.5c0-4.143-3.358-7.5-7.5-7.5H34.516c-4.142,0-7.5,3.357-7.5,7.5v142.266c0,4.143,3.358,7.5,7.5,7.5
		h142.261c4.142,0,7.5-3.357,7.5-7.5V61.527C184.277,57.385,180.919,54.027,176.777,54.027z"/>
	<path d="M82.058,41.693l16.087-16.087V135.66c0,4.143,3.358,7.5,7.5,7.5c4.143,0,7.5-3.357,7.5-7.5V25.607l16.086,16.086
		c1.464,1.465,3.384,2.197,5.303,2.197c1.919,0,3.838-0.733,5.303-2.196c2.929-2.93,2.929-7.678,0-10.607l-28.889-28.89
		C109.542,0.79,107.634,0,105.645,0c-1.988,0-3.896,0.79-5.303,2.196l-28.891,28.89c-2.929,2.929-2.929,7.678,0,10.606
		C74.38,44.622,79.129,44.621,82.058,41.693z"/>
</g>
<g>
</g>
<g>
</g>
<g>
</g>
<g>
</g>
<g>
</g>
<g>
</g>
<g>
</g>
<g>
</g>
<g>
</g>
<g>
</g>
<g>
</g>
<g>
</g>
<g>
</g>
<g>
</g>
<g>
</g>
</svg>
