<?xml version="1.0" encoding="iso-8859-1"?>
<!-- Generator: Adobe Illustrator 18.0.0, SVG Export Plug-In . SVG Version: 6.00 Build 0)  -->
<!DOCTYPE svg PUBLIC "-//W3C//DTD SVG 1.1//EN" "http://www.w3.org/Graphics/SVG/1.1/DTD/svg11.dtd">
<svg version="1.1" id="Capa_1" xmlns="http://www.w3.org/2000/svg" xmlns:xlink="http://www.w3.org/1999/xlink" x="0px" y="0px"
	 viewBox="0 0 244.856 244.856" style="enable-background:new 0 0 244.856 244.856;" xml:space="preserve">
<path d="M240.905,38.894c-2.433-1.307-5.388-1.17-7.69,0.354l-64.629,42.809V64.384c0-14.475-11.776-26.25-26.25-26.25H26.25
	C11.776,38.134,0,49.909,0,64.384v116.087c0,14.474,11.776,26.25,26.25,26.25h116.086c14.474,0,26.25-11.776,26.25-26.25v-17.67
	l64.629,42.807c1.251,0.828,2.694,1.247,4.142,1.247c1.217,0,2.437-0.296,3.548-0.893c2.433-1.307,3.951-3.846,3.951-6.607V45.501
	C244.856,42.74,243.338,40.201,240.905,38.894z M153.586,180.471c0,6.202-5.047,11.25-11.25,11.25H26.25
	c-6.203,0-11.25-5.048-11.25-11.25V64.384c0-6.203,5.047-11.25,11.25-11.25h116.086c6.203,0,11.25,5.047,11.25,11.25v31.637v52.816
	V180.471z M229.856,185.391l-61.271-40.582v-44.76l61.271-40.584V185.391z"/>
<g>
</g>
<g>
</g>
<g>
</g>
<g>
</g>
<g>
</g>
<g>
</g>
<g>
</g>
<g>
</g>
<g>
</g>
<g>
</g>
<g>
</g>
<g>
</g>
<g>
</g>
<g>
</g>
<g>
</g>
</svg>
