<?xml version="1.0" encoding="iso-8859-1"?>
<!-- Generator: Adobe Illustrator 18.0.0, SVG Export Plug-In . SVG Version: 6.00 Build 0)  -->
<!DOCTYPE svg PUBLIC "-//W3C//DTD SVG 1.1//EN" "http://www.w3.org/Graphics/SVG/1.1/DTD/svg11.dtd">
<svg version="1.1" id="Capa_1" xmlns="http://www.w3.org/2000/svg" xmlns:xlink="http://www.w3.org/1999/xlink" x="0px" y="0px"
	 viewBox="0 0 246.989 246.989" style="enable-background:new 0 0 246.989 246.989;" xml:space="preserve">
<path d="M246.038,83.955l-39.424-70.664c-1.325-2.374-3.831-3.846-6.55-3.846H46.93c-2.719,0-5.225,1.471-6.55,3.846L0.951,83.955
	c-1.497,2.683-1.206,6.008,0.734,8.391l116.002,142.432c0.037,0.046,0.08,0.085,0.118,0.13c0.12,0.141,0.244,0.278,0.375,0.41
	c0.015,0.015,0.028,0.033,0.043,0.048c0.034,0.033,0.069,0.064,0.104,0.096c0.012,0.012,0.025,0.021,0.037,0.033
	c0.133,0.125,0.27,0.245,0.412,0.361c0.065,0.053,0.131,0.106,0.198,0.157c0.145,0.11,0.295,0.213,0.448,0.313
	c0.072,0.047,0.143,0.094,0.216,0.139c0.129,0.077,0.263,0.148,0.397,0.219c0.055,0.028,0.108,0.059,0.164,0.086
	c0.051,0.025,0.101,0.05,0.152,0.074c0.149,0.069,0.303,0.128,0.459,0.188c0.097,0.038,0.192,0.079,0.291,0.113
	c0.019,0.006,0.035,0.015,0.054,0.021c0.007,0.002,0.014,0.003,0.021,0.005c0.066,0.022,0.137,0.034,0.205,0.054
	c0.253,0.075,0.51,0.136,0.77,0.184c0.108,0.02,0.215,0.04,0.324,0.055c0.309,0.043,0.622,0.07,0.938,0.074
	c0.029,0,0.058,0.007,0.088,0.007h0.001h0.001c0.03,0,0.059-0.007,0.088-0.007c0.317-0.004,0.63-0.031,0.939-0.074
	c0.108-0.015,0.214-0.035,0.321-0.054c0.263-0.048,0.522-0.11,0.776-0.186c0.065-0.019,0.133-0.031,0.198-0.052
	c0.008-0.003,0.016-0.003,0.023-0.006c0.02-0.006,0.036-0.015,0.055-0.022c0.098-0.033,0.191-0.074,0.287-0.11
	c0.156-0.06,0.312-0.12,0.462-0.189c0.052-0.024,0.104-0.05,0.155-0.075c0.053-0.026,0.104-0.056,0.155-0.082
	c0.136-0.071,0.271-0.143,0.401-0.221c0.074-0.045,0.146-0.093,0.22-0.141c0.152-0.099,0.302-0.202,0.444-0.311
	c0.068-0.051,0.134-0.104,0.199-0.158c0.144-0.116,0.281-0.237,0.414-0.362c0.013-0.013,0.027-0.023,0.04-0.035
	c0.03-0.029,0.062-0.056,0.092-0.086c0.017-0.017,0.032-0.036,0.049-0.053c0.134-0.135,0.261-0.276,0.383-0.42
	c0.036-0.042,0.076-0.079,0.111-0.122L245.304,92.346C247.244,89.963,247.535,86.638,246.038,83.955z M138.3,24.446l21.242,55.664
	H87.457l21.249-55.664H138.3z M160.065,95.11l-36.563,110.967L86.935,95.11H160.065z M71.142,95.11l32.524,98.699L23.282,95.11
	H71.142z M175.858,95.11h47.851l-80.37,98.696L175.858,95.11z M226.715,80.11h-51.118l-21.242-55.664h41.306L226.715,80.11z
	 M51.333,24.446h41.317L71.402,80.11H20.274L51.333,24.446z"/>
<g>
</g>
<g>
</g>
<g>
</g>
<g>
</g>
<g>
</g>
<g>
</g>
<g>
</g>
<g>
</g>
<g>
</g>
<g>
</g>
<g>
</g>
<g>
</g>
<g>
</g>
<g>
</g>
<g>
</g>
</svg>
