<?xml version="1.0" encoding="iso-8859-1"?>
<!-- Generator: Adobe Illustrator 18.0.0, SVG Export Plug-In . SVG Version: 6.00 Build 0)  -->
<!DOCTYPE svg PUBLIC "-//W3C//DTD SVG 1.1//EN" "http://www.w3.org/Graphics/SVG/1.1/DTD/svg11.dtd">
<svg version="1.1" id="Capa_1" xmlns="http://www.w3.org/2000/svg" xmlns:xlink="http://www.w3.org/1999/xlink" x="0px" y="0px"
	 viewBox="0 0 264.734 264.734" style="enable-background:new 0 0 264.734 264.734;" xml:space="preserve">
<g>
	<path d="M34.143,67.855h159.869c4.143,0,7.5-3.358,7.5-7.5s-3.357-7.5-7.5-7.5H34.143c-4.143,0-7.5,3.358-7.5,7.5
		S30,67.855,34.143,67.855z"/>
	<path d="M174.264,156.511H53.887c-4.142,0-7.5,3.358-7.5,7.5c0,4.142,3.358,7.5,7.5,7.5h120.377c4.143,0,7.5-3.358,7.5-7.5
		C181.764,159.869,178.406,156.511,174.264,156.511z"/>
	<path d="M174.264,191.058H53.887c-4.142,0-7.5,3.358-7.5,7.5c0,4.142,3.358,7.5,7.5,7.5h120.377c4.143,0,7.5-3.358,7.5-7.5
		C181.764,194.416,178.406,191.058,174.264,191.058z"/>
	<path d="M257.234,53.093H228.15V25.828c0-4.142-3.357-7.5-7.5-7.5H7.5c-4.143,0-7.5,3.358-7.5,7.5v194.794
		c0,14.218,11.566,25.785,25.783,25.785h213.158c14.223,0,25.793-11.567,25.793-25.785V60.593
		C264.734,56.451,261.377,53.093,257.234,53.093z M15,220.622V33.328h198.15v27.266v160.028c0,3.85,0.854,7.501,2.373,10.785H25.783
		C19.836,231.407,15,226.568,15,220.622z M238.941,231.407c-5.95,0-10.791-4.838-10.791-10.785V68.093h21.584v152.528
		C249.734,226.568,244.893,231.407,238.941,231.407z"/>
	<path d="M52.906,131.516c0.765-1.24,1.482-3.088,2.135-5.488l4.664-16.449l4.83,16.446c0.409,1.497,0.814,2.782,1.209,3.82
		c0.381,1.006,0.978,1.869,1.771,2.562c0.801,0.711,1.92,1.071,3.33,1.071c1.355,0,2.441-0.336,3.225-0.998
		c0.793-0.664,1.352-1.397,1.707-2.236c0.36-0.819,0.855-2.138,1.473-3.92l7.24-21.229c0.678-1.852,1.022-3.27,1.022-4.215
		c0-1.056-0.419-1.989-1.247-2.773c-0.834-0.783-1.82-1.18-2.933-1.18c-1.108,0-1.982,0.268-2.596,0.795
		c-0.599,0.511-1.025,1.113-1.269,1.784c-0.228,0.59-0.522,1.556-0.954,3.126l-5.6,18.983l-5.027-17.586
		c-0.546-1.862-0.962-3.142-1.274-3.912c-0.32-0.786-0.873-1.516-1.643-2.169c-0.787-0.678-1.887-1.021-3.268-1.021
		c-1.355,0-2.441,0.344-3.226,1.02c-0.773,0.651-1.311,1.362-1.598,2.113c-0.292,0.767-0.725,2.14-1.259,3.972l-5.022,17.58
		l-5.537-18.978c-0.602-2.057-1.152-3.477-1.684-4.344c-0.574-0.904-1.651-1.362-3.205-1.362c-1.159,0-2.157,0.412-2.964,1.222
		c-0.804,0.801-1.212,1.72-1.212,2.731c0,0.794,0.355,2.172,1.085,4.209l7.173,21.237l0.808,2.286
		c0.341,0.954,0.757,1.812,1.233,2.55c0.473,0.737,1.077,1.313,1.795,1.711c0.713,0.402,1.591,0.605,2.607,0.605
		C50.679,133.478,52.095,132.818,52.906,131.516z"/>
	<path d="M97.14,128.611c0.345,0.962,0.759,1.821,1.229,2.55c0.47,0.736,1.071,1.313,1.788,1.712
		c0.728,0.407,1.58,0.605,2.606,0.605c1.984,0,3.401-0.66,4.212-1.962c0.767-1.233,1.485-3.081,2.138-5.488l4.668-16.448
		l4.818,16.448c0.46,1.628,0.856,2.877,1.211,3.817c0.387,1.023,0.968,1.862,1.773,2.563c0.803,0.711,1.925,1.071,3.334,1.071
		c1.35,0,2.435-0.336,3.226-0.999c0.789-0.665,1.349-1.396,1.711-2.237c0.377-0.877,0.884-2.232,1.466-3.918l7.238-21.229
		c0.693-1.896,1.031-3.275,1.031-4.215c0-1.054-0.423-1.987-1.256-2.772c-0.832-0.784-1.816-1.181-2.93-1.181
		c-1.109,0-1.984,0.268-2.6,0.795c-0.6,0.511-1.028,1.113-1.273,1.788c-0.246,0.664-0.573,1.746-0.947,3.122l-5.598,18.983
		l-5.023-17.586c-0.529-1.796-0.961-3.112-1.283-3.91c-0.313-0.79-0.866-1.521-1.641-2.172c-0.792-0.678-1.889-1.021-3.262-1.021
		c-1.359,0-2.447,0.344-3.232,1.021c-0.776,0.661-1.313,1.371-1.597,2.112c-0.291,0.767-0.726,2.14-1.259,3.972l-5.023,17.58
		l-5.533-18.977c-0.604-2.072-1.157-3.493-1.69-4.343c-0.563-0.905-1.638-1.364-3.194-1.364c-1.162,0-2.162,0.411-2.974,1.223
		c-0.803,0.806-1.21,1.724-1.21,2.73c0,0.799,0.354,2.177,1.08,4.209l7.185,21.233C96.52,126.892,96.79,127.655,97.14,128.611z"/>
	<path d="M189.477,96.926c-1.118,0-1.994,0.268-2.6,0.795c-0.594,0.507-1.023,1.108-1.277,1.789
		c-0.251,0.685-0.576,1.766-0.941,3.121l-5.605,18.983l-5.021-17.587c-0.551-1.862-0.967-3.141-1.273-3.911
		c-0.319-0.783-0.874-1.514-1.648-2.17c-0.79-0.677-1.889-1.021-3.265-1.021c-1.352,0-2.439,0.344-3.227,1.02
		c-0.767,0.646-1.305,1.356-1.603,2.112c-0.301,0.794-0.747,2.205-1.253,3.972l-5.027,17.58l-5.539-18.977
		c-0.571-1.994-1.14-3.455-1.688-4.344c-0.564-0.905-1.638-1.364-3.194-1.364c-1.159,0-2.158,0.411-2.97,1.223
		c-0.803,0.802-1.21,1.721-1.21,2.73c0,0.788,0.355,2.166,1.084,4.209l7.178,21.236c0.197,0.569,0.466,1.331,0.814,2.286
		c0.341,0.964,0.755,1.823,1.23,2.552c0.478,0.742,1.082,1.317,1.793,1.71c0.706,0.402,1.581,0.606,2.601,0.606
		c1.988,0,3.407-0.66,4.219-1.962c0.75-1.217,1.469-3.064,2.135-5.488l4.662-16.448l4.823,16.447
		c0.452,1.63,0.847,2.879,1.208,3.819c0.378,0.995,0.973,1.857,1.77,2.564c0.816,0.709,1.939,1.069,3.338,1.069
		c1.344,0,2.431-0.336,3.228-0.999c0.78-0.656,1.339-1.387,1.707-2.236c0.365-0.835,0.873-2.191,1.47-3.92l7.24-21.23
		c0.691-1.912,1.025-3.291,1.025-4.214c0-1.056-0.424-1.989-1.256-2.772C191.571,97.323,190.588,96.926,189.477,96.926z"/>
</g>
<g>
</g>
<g>
</g>
<g>
</g>
<g>
</g>
<g>
</g>
<g>
</g>
<g>
</g>
<g>
</g>
<g>
</g>
<g>
</g>
<g>
</g>
<g>
</g>
<g>
</g>
<g>
</g>
<g>
</g>
</svg>
