<?xml version="1.0" encoding="iso-8859-1"?>
<!-- Generator: Adobe Illustrator 18.0.0, SVG Export Plug-In . SVG Version: 6.00 Build 0)  -->
<!DOCTYPE svg PUBLIC "-//W3C//DTD SVG 1.1//EN" "http://www.w3.org/Graphics/SVG/1.1/DTD/svg11.dtd">
<svg version="1.1" id="Capa_1" xmlns="http://www.w3.org/2000/svg" xmlns:xlink="http://www.w3.org/1999/xlink" x="0px" y="0px"
	 viewBox="0 0 265.566 265.566" style="enable-background:new 0 0 265.566 265.566;" xml:space="preserve">
<g>
	<path d="M132.786,61.402c16.928,0,30.701-13.77,30.701-30.695C163.486,13.775,149.714,0,132.786,0
		c-16.931,0-30.705,13.775-30.705,30.707C102.08,47.633,115.855,61.402,132.786,61.402z M132.786,15
		c8.657,0,15.701,7.046,15.701,15.707c0,8.654-7.043,15.695-15.701,15.695c-8.66,0-15.705-7.041-15.705-15.695
		C117.08,22.046,124.126,15,132.786,15z"/>
	<path d="M185.885,165.856l-14.304-28.607V99.09c0-16.545-13.46-30.005-30.004-30.005h-17.588c-16.544,0-30.004,13.46-30.004,30.005
		v38.155l-14.305,28.612c-1.162,2.324-1.038,5.086,0.329,7.297c1.367,2.211,3.781,3.557,6.38,3.557h23.97v81.355
		c0,4.143,3.358,7.5,7.5,7.5s7.5-3.357,7.5-7.5v-81.355h15.039v81.355c0,4.143,3.358,7.5,7.5,7.5c4.142,0,7.5-3.357,7.5-7.5v-81.355
		h23.779c2.599,0,5.013-1.346,6.38-3.557C186.924,170.942,187.048,168.182,185.885,165.856z M98.524,161.711l9.67-19.342
		c0.521-1.041,0.791-2.189,0.791-3.354V99.09c0-8.273,6.731-15.005,15.004-15.005h17.588c8.273,0,15.004,6.731,15.004,15.005v39.93
		c0,1.164,0.271,2.313,0.792,3.354l9.669,19.337H98.524z"/>
</g>
<g>
</g>
<g>
</g>
<g>
</g>
<g>
</g>
<g>
</g>
<g>
</g>
<g>
</g>
<g>
</g>
<g>
</g>
<g>
</g>
<g>
</g>
<g>
</g>
<g>
</g>
<g>
</g>
<g>
</g>
</svg>
