<?xml version="1.0" encoding="iso-8859-1"?>
<!-- Generator: Adobe Illustrator 19.0.0, SVG Export Plug-In . SVG Version: 6.00 Build 0)  -->
<svg xmlns="http://www.w3.org/2000/svg" xmlns:xlink="http://www.w3.org/1999/xlink" version="1.1" id="Layer_1" x="0px" y="0px" viewBox="0 0 496 496" style="enable-background:new 0 0 496 496;" xml:space="preserve">
<g>
	<path style="fill:#333333;" d="M426.56,191.408L407,156.128l-14,7.752l11.848,21.376c-24.264-6.096-51.784-10.616-80.608-13.496   c-3.752-37.568-10.272-72.968-19.456-101.76l19.832,9.248l6.768-14.496l-34.44-16.056C284.288,18.792,267.904,0,248,0   c-40.936,0-67.008,79.304-76.24,171.744c-4.824,0.48-9.672,0.936-14.408,1.504l1.92,15.888c3.632-0.44,7.368-0.776,11.056-1.16   C168.792,207.784,168,227.992,168,248c0,20.04,0.8,40.288,2.336,60.12C76.56,298.424,16,272.128,16,248   c0-10.024,10.984-18.92,20.2-24.616l-8.408-13.608C9.352,221.168,0,234.032,0,248c0,40.936,79.32,67.016,171.76,76.24   C180.984,416.68,207.064,496,248,496c38.84,0,58.912-69.928,67.424-111.616l-15.672-3.2C287.496,441.208,267.184,480,248,480   c-24.128,0-50.424-60.56-60.12-154.336C207.712,327.2,227.96,328,248,328l8.072-0.04l-0.144-16L248,312   c-21.648,0-42.248-0.848-61.608-2.392C184.848,290.248,184,269.648,184,248c0-21.616,0.848-42.184,2.384-61.52   C206.368,184.872,226.96,184,248,184c21.648,0,42.248,0.848,61.608,2.392C311.152,205.752,312,226.352,312,248l-0.04,7.928   l16,0.144L328,248c0-20.04-0.8-40.288-2.336-60.12c29.2,3.016,55.168,7.64,77.096,13.312l-23.328,16.24l9.144,13.128l33.968-23.648   C458.984,218.808,480,233.784,480,248c0,19.184-38.792,39.496-98.816,51.744l3.2,15.672C426.072,306.912,496,286.848,496,248   C496,223.808,468.288,204.808,426.56,191.408z M248,168c-20.496,0-40.576,0.832-60.12,2.328C197.576,76.552,223.872,16,248,16   c11.448,0,23.384,13.64,33.808,37.976l-16.792,30.128l13.968,7.8l10.168-18.224c8.256,25.376,15,58.24,18.976,96.664   C288.288,168.8,268.04,168,248,168z"/>
	<path style="fill:#333333;" d="M190.4,440.552c-0.72-0.72-1.6-1.36-2.56-1.76c-1.512-0.64-3.12-0.8-4.64-0.4   c-0.552,0.08-1.04,0.24-1.512,0.4c-0.488,0.24-0.96,0.488-1.36,0.72c-0.488,0.32-0.88,0.64-1.2,1.04c-0.8,0.728-1.36,1.6-1.76,2.56   c-0.4,1.04-0.64,2.08-0.64,3.128c0,1.04,0.24,2.08,0.64,3.04s0.96,1.832,1.76,2.552c1.52,1.52,3.52,2.408,5.6,2.408   c2.16,0,4.16-0.88,5.68-2.408c0.72-0.72,1.36-1.592,1.76-2.552s0.56-2,0.56-3.04c0-1.048-0.168-2.088-0.56-3.128   C191.76,442.16,191.12,441.28,190.4,440.552z"/>
	<path style="fill:#333333;" d="M95.832,390c-3.12,3.192-3.12,8.24,0,11.36c1.6,1.512,3.6,2.32,5.68,2.32c2,0,4.088-0.808,5.68-2.4   c3.128-3.128,3.048-8.168-0.08-11.28C104,386.872,98.96,386.872,95.832,390z"/>
</g>
<path style="fill:#F9BA48;" d="M96,272c-39.704,0-72-32.296-72-72s32.296-72,72-72s72,32.296,72,72S135.704,272,96,272z"/>
<g>
	<path style="fill:#333333;" d="M75.44,364.4c-3.6,2.64-4.32,7.6-1.76,11.2c1.6,2.16,4,3.272,6.48,3.272c1.6,0,3.28-0.48,4.72-1.592   c3.6-2.56,4.32-7.6,1.768-11.128C84,362.552,78.96,361.76,75.44,364.4z"/>
	<path style="fill:#333333;" d="M104,224H88c-4.416,0-8-3.584-8-8H64c0,13.232,10.768,24,24,24v8h16v-8c13.232,0,24-10.768,24-24   s-10.768-24-24-24H88c-4.416,0-8-3.584-8-8s3.584-8,8-8h16c4.416,0,8,3.584,8,8h16c0-13.232-10.768-24-24-24v-8H88v8   c-13.232,0-24,10.768-24,24s10.768,24,24,24h16c4.416,0,8,3.584,8,8S108.416,224,104,224z"/>
	<path style="fill:#333333;" d="M158.08,426.72v-0.08c-4-1.92-8.8-0.4-10.8,3.6c-2,3.912-0.408,8.72,3.592,10.72   c-0.08,0-0.08,0-0.08,0c1.2,0.552,2.4,0.872,3.6,0.872c2.96,0,5.76-1.592,7.2-4.4C163.6,433.512,162,428.64,158.08,426.72z"/>
</g>
<path style="fill:#F9BA48;" d="M320,392c-39.704,0-72-32.296-72-72s32.296-72,72-72s72,32.296,72,72S359.704,392,320,392z"/>
<g>
	<path style="fill:#333333;" d="M120,412.16c-2.64,3.52-1.84,8.56,1.76,11.128c1.44,1.04,3.04,1.512,4.72,1.512   c2.488,0,4.96-1.12,6.488-3.28c2.552-3.592,1.76-8.64-1.84-11.192C127.512,407.76,122.552,408.552,120,412.16z"/>
	<path style="fill:#333333;" d="M59.28,335.92c-3.92,2-5.52,6.872-3.448,10.8c1.36,2.72,4.24,4.32,7.128,4.32   c1.192,0,2.48-0.32,3.68-0.88c3.832-2,5.44-6.872,3.44-10.8C68,335.44,63.192,333.92,59.28,335.92z"/>
	<path style="fill:#333333;" d="M312,296h16c4.416,0,8,3.584,8,8h16c0-13.232-10.768-24-24-24v-8h-16v8c-13.232,0-24,10.768-24,24   s10.768,24,24,24h16c4.416,0,8,3.584,8,8s-3.584,8-8,8h-16c-4.416,0-8-3.584-8-8h-16c0,13.232,10.768,24,24,24v8h16v-8   c13.232,0,24-10.768,24-24s-10.768-24-24-24h-16c-4.416,0-8-3.584-8-8S307.584,296,312,296z"/>
	<path style="fill:#333333;" d="M57.68,315.76c0.4-0.96,0.56-1.92,0.56-3.04c0-1.04-0.168-2.08-0.56-3.04s-1.04-1.84-1.76-2.56   c-2.96-3.04-8.32-3.04-11.28,0c-0.808,0.72-1.36,1.6-1.768,2.56c-0.4,0.96-0.632,2-0.632,3.04c0,1.12,0.232,2.08,0.632,3.04   c0.408,1.04,0.96,1.84,1.768,2.64c0.72,0.72,1.6,1.36,2.552,1.76c0.96,0.4,2,0.56,3.048,0.56c1.12,0,2.16-0.168,3.12-0.56   s1.832-1.04,2.56-1.76C56.64,317.6,57.28,316.8,57.68,315.76z"/>
	<path style="fill:#333333;" d="M451.44,307.04c-2.24-2.24-5.832-2.96-8.72-1.76c-1.04,0.4-1.92,0.96-2.64,1.76   c-0.72,0.72-1.28,1.6-1.68,2.56c-0.48,0.952-0.64,2-0.64,3.04c0,1.12,0.168,2.16,0.56,3.12s1.04,1.84,1.76,2.56s1.6,1.36,2.64,1.76   c0.96,0.4,2,0.56,3.04,0.56c2.08,0,4.168-0.808,5.68-2.32c0.72-0.72,1.28-1.6,1.68-2.56s0.64-2,0.64-3.12   c0-1.04-0.24-2.088-0.64-3.04C452.72,308.64,452.16,307.76,451.44,307.04z"/>
	<path style="fill:#333333;" d="M388.64,390.16c-3.2,3.128-3.2,8.24-0.088,11.36c1.6,1.6,3.6,2.408,5.688,2.408   c2,0,4.08-0.808,5.592-2.32c3.2-3.128,3.2-8.168,0.088-11.36C396.8,387.12,391.76,387.12,388.64,390.16z"/>
	<path style="fill:#333333;" d="M409.28,366.24c-2.64,3.592-1.84,8.552,1.76,11.192c1.36,1.04,3.04,1.6,4.72,1.6   c2.4,0,4.88-1.2,6.4-3.28c2.64-3.6,1.84-8.56-1.68-11.2C416.96,361.92,411.92,362.72,409.28,366.24z"/>
	<path style="fill:#333333;" d="M436.72,335.92c-3.92-2-8.72-0.488-10.72,3.44h-0.08c-2,3.92-0.488,8.8,3.512,10.8   c1.12,0.56,2.4,0.88,3.6,0.88c2.96,0,5.68-1.6,7.12-4.32C442.16,342.72,440.64,337.92,436.72,335.92z"/>
	<path style="fill:#333333;" d="M364.48,410.64c-3.6,2.552-4.4,7.512-1.832,11.12c1.512,2.168,4,3.36,6.48,3.36   c1.6,0,3.28-0.48,4.64-1.512c3.6-2.56,4.4-7.52,1.84-11.128C373.04,408.872,368,408,364.48,410.64z"/>
	<path style="fill:#333333;" d="M337.36,426.96c-3.92,2-5.52,6.8-3.6,10.72c1.44,2.8,4.24,4.4,7.2,4.4c1.192,0,2.4-0.24,3.592-0.8   c3.92-2,5.52-6.808,3.52-10.728C346.08,426.552,341.28,424.96,337.36,426.96z"/>
	<path style="fill:#333333;" d="M316,440.8c-0.4-0.32-0.808-0.64-1.2-0.96c-0.48-0.32-0.872-0.552-1.36-0.72   c-0.48-0.24-1.04-0.4-1.512-0.48c-2.56-0.56-5.368,0.32-7.2,2.16c-1.52,1.52-2.4,3.6-2.4,5.68c0,2.168,0.872,4.168,2.4,5.68   c1.44,1.52,3.52,2.32,5.6,2.32c2.16,0,4.16-0.8,5.68-2.32c1.512-1.512,2.32-3.512,2.32-5.68c0-1.04-0.168-2.08-0.56-3.04   S316.72,441.6,316,440.8z"/>
	<path style="fill:#333333;" d="M346.872,72.96c2.168,0,4.168-0.808,5.68-2.32c1.52-1.52,2.32-3.52,2.32-5.68   c0-2.088-0.8-4.168-2.32-5.6c-2.952-3.04-8.4-3.04-11.36,0c-1.44,1.44-2.32,3.512-2.32,5.6c0,2.16,0.88,4.16,2.32,5.68   C342.72,72.16,344.72,72.96,346.872,72.96z"/>
	<path style="fill:#333333;" d="M369.04,88.72c1.44,1.12,3.12,1.68,4.8,1.68c2.408,0,4.808-1.12,6.408-3.12   c2.632-3.52,2-8.56-1.52-11.28c-3.52-2.64-8.56-2-11.2,1.512c-2.72,3.52-2,8.56,1.52,11.28V88.72H369.04z"/>
	<path style="fill:#333333;" d="M418.32,136.552c1.6,0,3.192-0.48,4.552-1.44c3.6-2.56,4.488-7.512,2-11.12c0-0.08,0-0.08,0-0.08   c-2.552-3.6-7.592-4.488-11.192-1.92c-3.6,2.552-4.488,7.512-1.92,11.192C413.28,135.36,415.76,136.552,418.32,136.552z"/>
	<path style="fill:#333333;" d="M397.832,111.76c2,0,4-0.72,5.6-2.24c3.12-3.04,3.28-8.16,0.168-11.272   c-3.048-3.2-8.088-3.28-11.28-0.24c-3.2,3.04-3.28,8.16-0.24,11.28C393.68,110.96,395.76,111.76,397.832,111.76z"/>
	<path style="fill:#333333;" d="M434.72,164.24c1.2,0,2.4-0.32,3.52-0.88c3.912-1.92,5.592-6.72,3.592-10.72   c-1.912-3.92-6.72-5.6-10.64-3.6c-4,1.92-5.68,6.72-3.68,10.72C428.872,162.552,431.76,164.24,434.72,164.24z"/>
	<path style="fill:#333333;" d="M439.28,183.12c-0.408,0.96-0.64,2-0.64,3.04s0.232,2.088,0.64,3.04c0.4,0.96,0.96,1.84,1.68,2.56   c0.8,0.8,1.68,1.36,2.64,1.76c0.952,0.408,2,0.64,3.04,0.64s2.08-0.232,3.04-0.64c0.96-0.4,1.832-0.96,2.64-1.76   c1.512-1.44,2.32-3.44,2.32-5.6c0-1.04-0.168-2.08-0.64-3.04c-0.4-1.04-0.96-1.92-1.68-2.64c-3.04-2.96-8.4-2.96-11.36,0   C440.24,181.192,439.68,182.08,439.28,183.12z"/>
	<path style="fill:#333333;" d="M82,126.08c0.96,0.4,2,0.64,3.04,0.64c2.16,0,4.16-0.88,5.68-2.4c0.72-0.72,1.36-1.6,1.76-2.56   s0.56-2,0.56-3.04c0-1.12-0.168-2.08-0.56-3.12c-0.4-0.96-1.04-1.84-1.76-2.56c-2.24-2.24-5.76-2.96-8.72-1.76   c-0.96,0.4-1.84,1.04-2.64,1.76c-0.72,0.72-1.28,1.6-1.68,2.56c-0.4,1.04-0.64,2.08-0.64,3.12c0,2.08,0.88,4.08,2.32,5.6   C80.16,125.12,81.04,125.68,82,126.08z"/>
	<path style="fill:#333333;" d="M106.08,104c1.92,0,3.92-0.72,5.44-2.168c3.2-3.04,3.36-8.08,0.32-11.36   c-2.96-3.192-8-3.36-11.28-0.32c0-0.08,0-0.08,0-0.08c-3.192,3.04-3.36,8.08-0.4,11.36C101.76,103.12,103.92,104,106.08,104z"/>
	<path style="fill:#333333;" d="M156.8,68.96c1.2,0,2.4-0.24,3.52-0.808c4-1.912,5.6-6.72,3.68-10.72   c-1.92-3.92-6.72-5.6-10.64-3.68c-0.08,0-0.08,0-0.08,0c-3.92,2-5.6,6.72-3.68,10.72C151.04,67.36,153.832,68.96,156.8,68.96z"/>
	<path style="fill:#333333;" d="M130.16,84.552c1.52,0,3.128-0.4,4.488-1.36c3.68-2.552,4.552-7.512,2.08-11.12   c-2.48-3.68-7.52-4.56-11.12-2.08c-3.68,2.48-4.56,7.512-2.088,11.12C125.12,83.36,127.6,84.552,130.16,84.552z"/>
	<path style="fill:#333333;" d="M185.6,57.512c2.08,0,4.08-0.8,5.592-2.32c1.528-1.512,2.408-3.512,2.408-5.68   c0-2.08-0.88-4.16-2.408-5.68c-2.952-2.96-8.32-2.96-11.272,0c-1.52,1.52-2.32,3.6-2.32,5.68c0,2.168,0.8,4.168,2.32,5.68   C181.44,56.72,183.44,57.512,185.6,57.512z"/>
</g>
<g>
</g>
<g>
</g>
<g>
</g>
<g>
</g>
<g>
</g>
<g>
</g>
<g>
</g>
<g>
</g>
<g>
</g>
<g>
</g>
<g>
</g>
<g>
</g>
<g>
</g>
<g>
</g>
<g>
</g>
</svg>
