<?xml version="1.0" encoding="iso-8859-1"?>
<!-- Generator: Adobe Illustrator 19.0.0, SVG Export Plug-In . SVG Version: 6.00 Build 0)  -->
<svg version="1.1" id="Layer_1" xmlns="http://www.w3.org/2000/svg" xmlns:xlink="http://www.w3.org/1999/xlink" x="0px" y="0px"
	 viewBox="0 0 496 496" style="enable-background:new 0 0 496 496;" xml:space="preserve">
<g>
	<rect x="280" style="fill:#F9BA48;" width="96" height="496"/>
	<rect x="448" y="72" style="fill:#F9BA48;" width="40" height="320"/>
	<circle style="fill:#F9BA48;" cx="128" cy="256" r="48"/>
</g>
<g>
	<rect x="344" y="32" style="fill:#333333;" width="32" height="16"/>
	<rect x="344" y="64" style="fill:#333333;" width="32" height="16"/>
	<rect x="328" y="96" style="fill:#333333;" width="48" height="16"/>
	<rect x="344" y="128" style="fill:#333333;" width="32" height="16"/>
	<rect x="344" y="160" style="fill:#333333;" width="32" height="16"/>
	<rect x="328" y="192" style="fill:#333333;" width="48" height="16"/>
	<rect x="344" y="224" style="fill:#333333;" width="32" height="16"/>
	<rect x="344" y="256" style="fill:#333333;" width="32" height="16"/>
	<rect x="328" y="288" style="fill:#333333;" width="48" height="16"/>
	<rect x="344" y="320" style="fill:#333333;" width="32" height="16"/>
	<rect x="344" y="352" style="fill:#333333;" width="32" height="16"/>
	<rect x="328" y="384" style="fill:#333333;" width="48" height="16"/>
	<rect x="344" y="416" style="fill:#333333;" width="32" height="16"/>
	<rect x="344" y="448" style="fill:#333333;" width="32" height="16"/>
	<path style="fill:#333333;" d="M448,2.232l-48,67.2V448c0,26.472,21.528,48,48,48s48-21.528,48-48V69.44L448,2.232z M472.456,64
		h-48.912L448,29.768L472.456,64z M440,80v304h-24V80H440z M480,400v16h-64v-16H480z M456,384V80h24v304H456z M448,480
		c-17.648,0-32-14.352-32-32v-16h64v16C480,465.648,465.648,480,448,480z"/>
	<path style="fill:#333333;" d="M184,144h-10.84C189.504,130.792,200,110.608,200,88V64h24V48h-24c0-26.472-21.528-48-48-48h-48
		C77.528,0,56,21.528,56,48v16v24c0,22.608,10.496,42.792,26.84,56H72c-39.704,0-72,32.296-72,72v80c0,26.472,21.528,48,48,48v40h-8
		v16h8v96h160v-96h8v-16h-8v-40c26.472,0,48-21.528,48-48v-80C256,176.296,223.704,144,184,144z M104,16h48
		c17.648,0,32,14.352,32,32H72C72,30.352,86.352,16,104,16z M72,88V64h112v24c0,30.872-25.128,56-56,56S72,118.872,72,88z
		 M153.896,160L128,181.584L102.104,160H153.896z M16,296v-64h32v96C30.352,328,16,313.648,16,296z M64,400h56v48H64V400z M64,480
		v-16h56v16H64z M136,480v-16h56v16H136z M192,448h-56v-48h56V448z M136,384v-24h-16v24H64v-56h128v56H136z M208,328v-96h32v64
		C240,313.648,225.648,328,208,328z M208,216v-16h-16v112H64V200H48v16H16c0-30.872,25.128-56,56-56h5.096L128,202.416L178.904,160
		H184c30.872,0,56,25.128,56,56H208z"/>
	<circle style="fill:#333333;" cx="104" cy="240" r="8"/>
	<circle style="fill:#333333;" cx="152" cy="240" r="8"/>
	<path style="fill:#333333;" d="M128,280c-8.824,0-16-7.176-16-16H96c0,17.648,14.352,32,32,32s32-14.352,32-32h-16
		C144,272.824,136.824,280,128,280z"/>
</g>
<g>
</g>
<g>
</g>
<g>
</g>
<g>
</g>
<g>
</g>
<g>
</g>
<g>
</g>
<g>
</g>
<g>
</g>
<g>
</g>
<g>
</g>
<g>
</g>
<g>
</g>
<g>
</g>
<g>
</g>
</svg>
