<svg version="1" xmlns="http://www.w3.org/2000/svg" width="933.333" height="933.333" viewBox="0 0 700.000000 700.000000"><path d="M281.3 189.2c-12 1.3-22.7 8.9-28.1 19.8-2.4 4.8-2.7 6.7-2.7 15 0 8.4.3 10.1 2.8 14.8 7.3 13.9 17.4 18.9 45.7 22.7 13.7 1.8 18.7 2.5 20.5 2.9 1.1.2 5.2.7 9 1.2 3.9.4 7.2.8 7.5.9.4.1 8.9 1.3 14.5 2 9.5 1.3 19.4 2.7 21.5 3 1.4.2 4.5.7 7 1 2.5.3 9.5 1.2 15.5 2.1 14 2 14.9 2.1 24.5 3.4 4.4.6 9.4 1.3 11.2 1.5 1.8.3 5.1.7 7.3 1 2.2.3 5.1.7 6.5 1 1.6.3 14.4 12.4 35.2 33.2 34.6 34.5 35.4 35.6 31 39.6-4.1 3.8-5.5 2.8-33.6-25.1-16.1-16-29-27.9-31.7-29.4-5.4-2.9-14.6-4.8-20.7-4.3-13.6 1.2-24.5 8.9-30.6 21.5-2.8 5.8-3.1 7.5-3.1 15.5 0 16.5-3.6 12.2 75.2 91 37.8 37.8 69.8 69.4 71.2 70.3 2.3 1.5 9.4 1.7 77.2 1.8 66.3.1 75-.1 77.9-1.5 9.9-4.8 10.5-18.5 1.1-24.3l-3.6-2.3H549.4l-65.2-65.3c-35.9-35.9-65.3-65.7-65.3-66.2-.8-6.1.2-9.2 3.5-10.8 3.8-1.9 6.1-2.1 8.4-.9 1.2.7 13.8 12.8 28 26.8 14.1 14.1 27.1 26.5 28.7 27.6 13 8.9 31.1 6.9 42.6-4.6 11-11 13.3-28.1 5.7-41.1-2.7-4.5-72.3-74.6-76.1-76.6-2.9-1.5-9.4-2.8-19.7-3.9-3-.3-6.2-.8-7-1-.8-.2-3.6-.7-6.2-1-2.6-.3-7.8-.9-11.5-1.5-3.8-.5-9-1.2-11.8-1.5-2.7-.4-5.7-.8-6.5-1-.8-.3-4.2-.7-7.4-1.1-3.3-.3-6.9-.8-8-1-1.1-.2-3.8-.6-6.1-.9-2.2-.4-5.1-.8-6.5-1-1.4-.2-5-.7-8-1-3-.4-6.3-.9-7.4-1.1-1-.2-4.4-.6-7.5-1-3.1-.3-6.5-.8-7.5-1-1.1-.2-5.6-.8-10-1.4-4.5-.6-9.2-1.3-10.6-1.5-1.4-.2-6.3-.9-11-1.5s-9.6-1.3-11-1.5c-1.4-.2-4.5-.7-7-1-5.2-.8-9.8-3.2-10.5-5.6-1-2.9.5-6.6 3.1-7.8 1.8-.8 29.1-1.1 96.9-1.1h94.3l76 75.9c59.8 59.9 76.6 76.1 79.3 76.9 1.9.4 16.7.8 32.9.7 28.8-.1 29.7-.1 32.7-2.3 3.5-2.5 6.3-7.7 6.3-11.9 0-4.1-3.2-9.5-7.1-11.8-3.2-1.8-5.3-2-29.2-2.1H638l-75.2-75.3c-41.4-41.4-76.6-76-78.3-76.8-2.6-1.4-14.3-1.6-100-1.7-53.3-.1-99.8.2-103.2.6zM10.4 204.8c-2.9.4-8.1 5.2-9.3 8.6-2.5 6.3-.1 13.2 5.8 16.8l3.6 2.3 69.5.1c38.2.1 69.8.2 70.3.3.4 0 29.9 29.3 65.6 65 43.7 43.7 65 65.8 65.5 67.6 1.8 7-5.9 13.4-12 10.2-1.3-.7-14-12.8-28.2-26.9-14.1-14-27.5-26.7-29.8-28.1-22.1-13.7-51.5 2.8-51.5 28.8 0 7.1 2.2 14.4 6.2 20 4.9 7.1 72.1 73.3 75.9 74.9 1.9.8 6.4 1.7 10 2.1 3.6.4 7.4.9 8.5 1.1 1 .2 3.7.6 6 .9 11.9 1.6 19.4 2.6 22.5 3.1 12.7 1.8 17.1 2.4 21.5 2.9 2.8.3 7.5 1 10.5 1.5s7.8 1.2 10.5 1.5c4.2.5 26.5 3.6 44.5 6.1 2.5.4 5.4.8 6.5.9 20 2.6 33.3 4.9 35.5 6 4.8 2.5 5.4 7.3 1.4 10.4-2.7 2.1-3.1 2.1-97.5 2.1h-94.7l-74.9-74.8c-41.1-41.2-76.1-75.7-77.8-76.8-2.7-1.8-5.1-1.9-32.8-2-28.5-.1-30.2 0-34 2-7.2 3.7-9.7 13.3-5.2 20.2 3.5 5.4 5.9 5.8 33.8 5.9l25.7.1 75.3 75.3c41.3 41.4 76.5 76 78.2 76.9 2.7 1.3 14.3 1.5 103.5 1.4 55.3 0 101.2-.3 102-.5 6.2-1.6 7.9-2.2 11.2-3.9 4.9-2.6 12.5-10.8 15.1-16.6 1.8-3.8 2.2-6.6 2.2-14.2 0-8.4-.3-10.1-2.7-14.8-7-13.5-20.2-20-45.7-22.7-3-.3-8.2-.9-11.5-1.5-3.4-.5-8.3-1.2-11.1-1.5-2.7-.3-5.9-.8-7-1-1.1-.2-5.8-.9-10.5-1.5-4.7-.5-9.6-1.2-11-1.4-2.3-.4-4.8-.8-15-2.2-5.9-.8-8.3-1.1-14-1.9-3-.4-6.6-.9-8-1.1-1.4-.2-6.1-.8-10.5-1.4-4.4-.6-9.3-1.3-11-1.6-5.4-.9-7.9-1.2-14.5-2-3.6-.5-6.9-.9-7.5-.9-.5-.1-3.5-.5-6.5-1-3-.4-6.3-.9-7.3-1-1-.1-16.6-15-34.8-33.1-34.7-34.6-35.5-35.7-31.1-39.7 4.1-3.8 5.5-2.8 33.7 25.3 23.8 23.6 27.9 27.3 33.6 30 18.9 8.8 40.3 1 49.3-18 2.7-5.8 3.1-7.5 3.1-15.5 0-16.5 3.6-12.2-75.2-91-37.8-37.8-69.8-69.4-71.2-70.3-2.3-1.5-9.3-1.7-76.6-1.7-40.7-.1-75 .1-76.1.3z"/></svg>